<svg width="22" height="16" viewBox="0 0 22 16" fill="none" xmlns="http://www.w3.org/2000/svg">
<path fill-rule="evenodd" clip-rule="evenodd" d="M22 8.00622C22 7.82266 21.9244 7.64735 21.7986 7.51535L14.993 0.641036C14.7242 0.369474 14.289 0.370161 14.0209 0.641036C13.7521 0.911911 13.7521 1.35191 14.0209 1.62279L19.6536 7.31185H0.6875C0.308 7.31185 0 7.6226 0 8.00622C0 8.38985 0.308 8.7006 0.6875 8.7006H19.6529L14.0209 14.3897C13.7521 14.6605 13.7527 15.1005 14.0209 15.3714C14.2897 15.6423 14.7249 15.6423 14.993 15.3714L21.7986 8.4971C21.9271 8.36716 21.9979 8.18841 22 8.00622Z" fill="white"/>
</svg>
