<svg width="22" height="18" viewBox="0 0 22 18" fill="none" xmlns="http://www.w3.org/2000/svg">
<path d="M0 17.5677V10.0841C0 7.63891 1.5056 5.65663 3.36282 5.65663C5.22009 5.65663 6.72565 7.63891 6.72565 10.0841V17.5677H0Z" fill="#D22030"/>
<path d="M14.4833 -1.43051e-05C14.1054 -1.43051e-05 13.7991 0.306338 13.7991 0.684255V12.5247C13.7991 12.9027 14.1054 13.209 14.4833 13.209C14.8612 13.209 15.1675 12.9027 15.1675 12.5247V0.684255C15.1675 0.306338 14.8612 -1.43051e-05 14.4833 -1.43051e-05Z" fill="#D22030"/>
<path d="M16.0012 5.65663H15.6103V12.5248C15.6103 13.1462 15.1048 13.6518 14.4834 13.6518C13.8619 13.6518 13.3564 13.1462 13.3564 12.5248V5.65663H4.9585C5.37776 5.90335 5.76186 6.24928 6.09327 6.68563C6.78654 7.59842 7.16838 8.80536 7.16838 10.0841V17.5677H12.6384H16.0012H19.364V10.0841C19.364 7.63891 17.8585 5.65663 16.0012 5.65663Z" fill="#D22030"/>
<path d="M21.33 0.684328H15.6104V4.50813H21.33L19.6284 2.59623L21.33 0.684328Z" fill="#D22030"/>
</svg>
