<svg width="20" height="20" viewBox="0 0 20 20" fill="none" xmlns="http://www.w3.org/2000/svg">
<path d="M5.625 14.9375V17.9375C5.625 18.125 5.75 18.25 5.9375 18.25H14.125C14.3125 18.25 14.4375 18.125 14.4375 17.9375V14.9375V13.0625C14.4375 12.875 14.3125 12.75 14.125 12.75H5.9375C5.75 12.75 5.625 12.875 5.625 13.0625V14.9375ZM6.75 13.8125H13.3125V14.875H6.75V13.8125ZM6.75 16H13.3125V17.0625H6.75V16Z" fill="#D22030"/>
<path d="M14.375 5.0625V1.8125H5.625V5.0625V7.25H14.375V5.0625Z" fill="#D22030"/>
<path d="M16.5625 5.0625H15.4375V7.25V8.375H4.5625V7.25V5.0625H3.4375C2.25 5.0625 1.25 6.0625 1.25 7.25V12.75C1.25 13.9375 2.25 14.9375 3.4375 14.9375H4.5625V12.75V11.625H15.5V12.75V14.9375H16.625C17.8125 14.9375 18.8125 13.9375 18.8125 12.75V7.3125C18.75 6.0625 17.75 5.0625 16.5625 5.0625Z" fill="#D22030"/>
</svg>
