<svg width="18" height="12" viewBox="0 0 18 12" fill="none" xmlns="http://www.w3.org/2000/svg">
<path d="M9 8.93382C8.41887 8.93382 7.83773 8.76563 7.34203 8.42478L0 3.38741V10.4228C0 11.2448 0.755508 11.9118 1.6875 11.9118H16.3125C17.2445 11.9118 18 11.2451 18 10.4228V3.38741L10.6594 8.42819C10.1637 8.76632 9.58008 8.93382 9 8.93382ZM0.572695 2.52194L8.03285 7.64338C8.60203 8.03424 9.39937 8.03424 9.96855 7.64338L17.4287 2.52194C17.7574 2.27378 18 1.89223 18 1.48897C18 0.666625 17.2441 0 16.3125 0H1.6875C0.755508 0 0 0.666625 0 1.48897C0 1.89223 0.211289 2.27378 0.572695 2.52194Z" fill="#D22030"/>
</svg>
