<svg width="39" height="39" viewBox="0 0 39 39" fill="none" xmlns="http://www.w3.org/2000/svg">
<path d="M26.2211 20.6695C27.3623 18.8742 28.0317 16.7441 28.0317 14.4543C28.0317 8.05643 22.8511 2.86816 16.4608 2.86816C10.063 2.86816 4.88232 8.05643 4.88232 14.4543C4.88232 20.8521 10.063 26.0404 16.4532 26.0404C18.7735 26.0404 20.934 25.3557 22.7446 24.1842L23.2695 23.819L31.5311 32.0807L34.0948 29.4713L25.8408 21.2097L26.2211 20.6695ZM22.9423 7.98035C24.6692 9.70724 25.6202 12.0047 25.6202 14.4467C25.6202 16.8886 24.6692 19.1861 22.9423 20.913C21.2155 22.6399 18.918 23.5908 16.476 23.5908C14.0341 23.5908 11.7366 22.6399 10.0097 20.913C8.28284 19.1861 7.33191 16.8886 7.33191 14.4467C7.33191 12.0047 8.28284 9.70724 10.0097 7.98035C11.7366 6.25347 14.0341 5.30254 16.476 5.30254C18.918 5.30254 21.2155 6.25347 22.9423 7.98035Z" fill="#D22030"/>
</svg>
