<svg width="25" height="22" viewBox="0 0 25 22" fill="none" xmlns="http://www.w3.org/2000/svg">
<path d="M23.6385 18.3652V8.76367L22.0916 9.53713V18.3642L21.0601 21.0166H24.6696L23.6385 18.3652Z" fill="#D22030"/>
<path d="M10.9102 13.7436L4.55957 10.5684V13.7374C4.55957 15.8733 8.02253 17.6047 12.2942 17.6047C16.566 17.6047 20.0288 15.8733 20.0288 13.7374V10.5684L13.6777 13.7438C12.5907 14.1744 11.9974 14.1743 10.9102 13.7436Z" fill="#D22030"/>
<path d="M12.9874 12.3605L23.9791 6.86459C24.3597 6.67431 24.3597 6.36305 23.9791 6.17275L12.9874 0.67689C12.6069 0.486609 11.9843 0.486609 11.6037 0.67689L0.611984 6.17275C0.231552 6.36303 0.231552 6.67429 0.611984 6.86459L11.6037 12.3605C11.9843 12.5507 12.6069 12.5507 12.9874 12.3605Z" fill="#D22030"/>
</svg>
