<svg width="30" height="30" viewBox="0 0 30 30" fill="none" xmlns="http://www.w3.org/2000/svg">
<path d="M20.0105 17.3762C20.8587 16.0418 21.3562 14.4585 21.3562 12.7566C21.3562 8.00134 17.5057 4.14511 12.756 4.14511C8.00078 4.14511 4.15021 8.00134 4.15021 12.7566C4.15021 17.5119 8.00078 21.3681 12.7504 21.3681C14.475 21.3681 16.0808 20.8592 17.4265 19.9885L17.8166 19.717L23.9572 25.8576L25.8627 23.9182L19.7278 17.7776L20.0105 17.3762ZM17.5735 7.9448C18.857 9.22832 19.5638 10.9359 19.5638 12.751C19.5638 14.566 18.857 16.2736 17.5735 17.5571C16.29 18.8406 14.5824 19.5474 12.7674 19.5474C10.9523 19.5474 9.24473 18.8406 7.9612 17.5571C6.67768 16.2736 5.97089 14.566 5.97089 12.751C5.97089 10.9359 6.67768 9.22832 7.9612 7.9448C9.24473 6.66127 10.9523 5.95449 12.7674 5.95449C14.5824 5.95449 16.29 6.66127 17.5735 7.9448Z" fill="black"/>
</svg>
