<svg width="30" height="30" viewBox="0 0 30 30" fill="none" xmlns="http://www.w3.org/2000/svg">
<rect width="30" height="30" fill="#D22030"/>
<path d="M18.2788 16.5541C18.8339 15.6807 19.1595 14.6445 19.1595 13.5306C19.1595 10.4184 16.6394 7.89453 13.5308 7.89453C10.4186 7.89453 7.89844 10.4184 7.89844 13.5306C7.89844 16.6429 10.4186 19.1667 13.5271 19.1667C14.6558 19.1667 15.7068 18.8337 16.5876 18.2638L16.8429 18.0861L20.8618 22.1051L22.109 20.8357L18.0938 16.8168L18.2788 16.5541ZM16.6838 10.3814C17.5239 11.2214 17.9864 12.339 17.9864 13.5269C17.9864 14.7148 17.5239 15.8324 16.6838 16.6725C15.8438 17.5125 14.7262 17.9751 13.5382 17.9751C12.3503 17.9751 11.2327 17.5125 10.3927 16.6725C9.55263 15.8324 9.09005 14.7148 9.09005 13.5269C9.09005 12.339 9.55263 11.2214 10.3927 10.3814C11.2327 9.54132 12.3503 9.07874 13.5382 9.07874C14.7262 9.07874 15.8438 9.54132 16.6838 10.3814Z" fill="white"/>
</svg>
