<svg width="18" height="19" viewBox="0 0 18 19" fill="none" xmlns="http://www.w3.org/2000/svg">
<path fill-rule="evenodd" clip-rule="evenodd" d="M9 2.52787L17.25 10.7779V16.5625C17.25 17.1095 17.0327 17.6341 16.6459 18.0209C16.2591 18.4077 15.7345 18.625 15.1875 18.625H2.8125C2.26549 18.625 1.74089 18.4077 1.35409 18.0209C0.967299 17.6341 0.75 17.1095 0.75 16.5625V10.7779L9 2.52787ZM15.875 1.4375V6.25L13.125 3.5V1.4375C13.125 1.25516 13.1974 1.0803 13.3264 0.951364C13.4553 0.822433 13.6302 0.75 13.8125 0.75H15.1875C15.3698 0.75 15.5447 0.822433 15.6736 0.951364C15.8026 1.0803 15.875 1.25516 15.875 1.4375Z" fill="white"/>
</svg>
