<svg width="34" height="34" viewBox="0 0 34 34" fill="none" xmlns="http://www.w3.org/2000/svg">
<path d="M22.877 19.7891C23.873 18.2219 24.4574 16.3625 24.4574 14.3637C24.4574 8.77891 19.9352 4.25 14.357 4.25C8.77227 4.25 4.25 8.77891 4.25 14.3637C4.25 19.9484 8.77227 24.4773 14.3504 24.4773C16.3758 24.4773 18.2617 23.8797 19.8422 22.857L20.3004 22.5383L27.5121 29.75L29.75 27.4723L22.5449 20.2605L22.877 19.7891ZM20.0148 8.7125C21.5223 10.2199 22.3523 12.2254 22.3523 14.357C22.3523 16.4887 21.5223 18.4941 20.0148 20.0016C18.5074 21.509 16.502 22.3391 14.3703 22.3391C12.2387 22.3391 10.2332 21.509 8.72578 20.0016C7.21836 18.4941 6.38828 16.4887 6.38828 14.357C6.38828 12.2254 7.21836 10.2199 8.72578 8.7125C10.2332 7.20508 12.2387 6.375 14.3703 6.375C16.502 6.375 18.5074 7.20508 20.0148 8.7125Z" fill="white"/>
</svg>
