<svg width="25" height="19" viewBox="0 0 25 19" fill="none" xmlns="http://www.w3.org/2000/svg">
<path d="M12.5 14.0625C11.6929 14.0625 10.8857 13.7978 10.1973 13.2612L0 5.33203V16.4062C0 17.7002 1.04932 18.75 2.34375 18.75H22.6562C23.9507 18.75 25 17.7007 25 16.4062V5.33203L14.8047 13.2666C14.1162 13.7988 13.3057 14.0625 12.5 14.0625ZM0.79541 3.96973L11.1567 12.0312C11.9473 12.6465 13.0547 12.6465 13.8452 12.0312L24.2065 3.96973C24.6631 3.5791 25 2.97852 25 2.34375C25 1.04932 23.9502 0 22.6562 0H2.34375C1.04932 0 0 1.04932 0 2.34375C0 2.97852 0.293457 3.5791 0.79541 3.96973Z" fill="white"/>
</svg>
