<svg width="48" height="37" viewBox="0 0 48 37" fill="none" xmlns="http://www.w3.org/2000/svg">
<path d="M23.0142 4.18745H5.8205V30.1638H33.0721" stroke="#313131" stroke-miterlimit="10" stroke-linecap="round" stroke-linejoin="round"/>
<path d="M41.9608 30.1638V18.6093" stroke="#313131" stroke-miterlimit="10" stroke-linecap="round" stroke-linejoin="round"/>
<path d="M33.0781 30.1636H41.9781" stroke="#313131" stroke-miterlimit="10" stroke-linecap="round" stroke-linejoin="round"/>
<path d="M41.9656 30.1637L46.4364 34.0422C47.1291 34.643 46.7042 35.7812 45.7871 35.7812H23.89H1.99276C1.07583 35.7812 0.650891 34.643 1.34351 34.0422L5.81417 30.1637" stroke="#313131" stroke-miterlimit="10" stroke-linecap="round" stroke-linejoin="round"/>
<path d="M26.1861 33.4189H21.5938" stroke="#313131" stroke-miterlimit="10" stroke-linecap="round" stroke-linejoin="round"/>
<path d="M21.3861 16.3008C21.3861 18.7113 19.4317 20.6658 17.0212 20.6658C14.6104 20.6658 12.6562 18.7113 12.6562 16.3008C12.6562 13.8901 14.6104 11.9359 17.0212 11.9359C19.4317 11.9359 21.3861 13.8901 21.3861 16.3008Z" stroke="#313131" stroke-miterlimit="10" stroke-linecap="round" stroke-linejoin="round"/>
<path d="M24.9273 30.1636C24.9273 30.1636 24.9273 26.2361 24.9273 25.2111C24.9273 22.7557 23.2017 20.666 19.125 20.666H14.935C10.8582 20.666 9.13281 22.7557 9.13281 25.2111C9.13281 25.9813 9.13281 30.1636 9.13281 30.1636" stroke="#313131" stroke-miterlimit="10" stroke-linecap="round" stroke-linejoin="round"/>
<path d="M35.4688 7.0238H36.3495V12.28" stroke="#313131" stroke-miterlimit="10" stroke-linecap="round" stroke-linejoin="round"/>
<path d="M34.9297 12.28H36.3529" stroke="#313131" stroke-miterlimit="10" stroke-linecap="round" stroke-linejoin="round"/>
<path d="M36.3438 12.28H37.7672" stroke="#313131" stroke-miterlimit="10" stroke-linecap="round" stroke-linejoin="round"/>
<path d="M36.4737 4.73848C36.4737 4.88648 36.3539 5.00659 36.2056 5.00659C36.0576 5.00659 35.9375 4.88648 35.9375 4.73848C35.9375 4.59023 36.0576 4.47036 36.2056 4.47036C36.3539 4.47036 36.4737 4.59023 36.4737 4.73848Z" stroke="#313131" stroke-miterlimit="10" stroke-linecap="round" stroke-linejoin="round"/>
<path d="M45.6647 1.00001H26.843C26.2349 1.00001 25.7422 1.49277 25.7422 2.10061V14.8949C25.7422 15.5028 26.2349 15.9955 26.843 15.9955H27.7084V20.0795C27.7084 20.3987 28.0881 20.5655 28.3233 20.3499L33.073 15.9955H45.6647C46.2726 15.9955 46.7653 15.5028 46.7653 14.8949V2.10061C46.7653 1.49277 46.2726 1.00001 45.6647 1.00001Z" stroke="#313131" stroke-miterlimit="10" stroke-linecap="round" stroke-linejoin="round"/>
</svg>
