<svg width="43" height="43" viewBox="0 0 43 43" fill="none" xmlns="http://www.w3.org/2000/svg">
<ellipse cx="21.041" cy="21.041" rx="21.041" ry="21.041" fill="#D22030"/>
<path fill-rule="evenodd" clip-rule="evenodd" d="M31.3571 24.2207C31.2101 23.6636 30.9552 23.1531 30.6005 22.6914C30.229 22.209 29.7407 21.8357 29.1352 21.5657C28.5291 21.2979 27.751 21.1622 26.792 21.1622H25.4905C25.6457 19.1907 26.2162 17.5129 27.2032 16.1258C28.1885 14.743 29.5546 13.5261 31.3011 12.4822L30.2418 10.4619C27.9423 11.6673 25.9747 13.4306 24.3402 15.7597C22.7063 18.0908 21.8925 20.4005 21.8925 22.6914C21.8925 25.1526 22.3645 27.0831 23.3159 28.4767C24.2673 29.8702 25.63 30.5645 27.4015 30.5645C28.5256 30.5645 29.5021 30.1028 30.3328 29.1803C31.1623 28.2591 31.5782 27.1801 31.5782 25.9495C31.5782 25.3558 31.5053 24.7778 31.3571 24.2207ZM19.4595 24.2207C19.3113 23.6636 19.057 23.1531 18.7017 22.6914C18.3313 22.209 17.8425 21.8357 17.2364 21.5657C16.6315 21.2979 15.8533 21.1622 14.8937 21.1622H13.5917C13.7475 19.1907 14.3174 17.5129 15.3038 16.1258C16.2896 14.743 17.657 13.5261 19.4023 12.4822L18.3435 10.4619C16.0435 11.6673 14.077 13.4306 12.442 15.7597C10.808 18.0908 9.99487 20.4005 9.99487 22.6914C9.99487 25.1526 10.4656 27.0831 11.4176 28.4767C12.3679 29.8702 13.7306 30.5645 15.5033 30.5645C16.6268 30.5645 17.6045 30.1028 18.4351 29.1803C19.2646 28.2591 19.68 27.1801 19.68 25.9495C19.68 25.3558 19.6059 24.7778 19.4595 24.2207Z" fill="white"/>
</svg>
