<svg width="39" height="51" viewBox="0 0 39 51" fill="none" xmlns="http://www.w3.org/2000/svg">
<path d="M19.4342 14.0827C19.3613 14.0827 19.2884 14.0835 19.2153 14.0851C13.9964 14.1995 9.84548 18.388 9.7654 23.6206C9.72165 26.4784 10.9288 29.1957 13.0774 31.0756C14.742 32.532 15.6967 34.6727 15.6967 36.9489V37.3229C15.6967 37.9976 16.2444 38.5468 16.9177 38.5468H21.9474C22.6206 38.5468 23.1686 37.9976 23.1686 37.3229V36.9943C23.1686 34.6964 24.1296 32.5333 25.8058 31.0596C27.8999 29.2181 29.1007 26.5626 29.1007 23.773C29.1007 21.1445 28.0683 18.6843 26.1932 16.8457C24.371 15.059 21.978 14.0827 19.4342 14.0827ZM21.9474 39.9077H16.9177C15.4956 39.9077 14.3387 38.7483 14.3387 37.3229V36.9489C14.3387 35.0658 13.5535 33.2987 12.1844 32.1009C9.73429 29.9574 8.35769 26.8589 8.40756 23.5998C8.49893 17.632 13.2332 12.855 19.1855 12.7242C22.1794 12.6589 25.0054 13.7766 27.1428 15.873C29.2814 17.9695 30.4589 20.7754 30.4589 23.773C30.4589 26.9541 29.0893 29.9832 26.7012 32.0829C25.319 33.2983 24.5264 35.0883 24.5264 36.9943V37.3229C24.5264 38.7483 23.3696 39.9077 21.9474 39.9077Z" fill="#212121"/>
<path d="M16.7809 39.9083C16.1815 39.9083 15.6939 40.3971 15.6939 40.9979C15.6939 41.5986 16.1815 42.0874 16.7809 42.0874H22.0789C22.6782 42.0874 23.1659 41.5986 23.1659 40.9979C23.1659 40.3971 22.6782 39.9083 22.0789 39.9083H16.7809ZM22.0789 43.4482H16.7809C15.4327 43.4482 14.3359 42.3493 14.3359 40.9979C14.3359 39.6468 15.4327 38.5475 16.7809 38.5475H22.0789C23.4268 38.5475 24.5236 39.6468 24.5236 40.9979C24.5236 42.3493 23.4268 43.4482 22.0789 43.4482Z" fill="#212121"/>
<path d="M16.7809 43.4477C16.1815 43.4477 15.6939 43.9365 15.6939 44.5372C15.6939 45.138 16.1815 45.6268 16.7809 45.6268H22.0789C22.6782 45.6268 23.1659 45.138 23.1659 44.5372C23.1659 43.9365 22.6782 43.4477 22.0789 43.4477H16.7809ZM22.0789 46.988H16.7809C15.4327 46.988 14.3359 45.8887 14.3359 44.5372C14.3359 43.1862 15.4327 42.0869 16.7809 42.0869H22.0789C23.4268 42.0869 24.5236 43.1862 24.5236 44.5372C24.5236 45.8887 23.4268 46.988 22.0789 46.988Z" fill="#212121"/>
<path d="M17.8501 46.9882V47.213C17.8501 48.0957 18.5667 48.8142 19.4476 48.8142C20.3283 48.8142 21.0451 48.0957 21.0451 47.213V46.9882H17.8501ZM19.4476 50.175C17.8179 50.175 16.4922 48.8465 16.4922 47.213V45.627H22.4028V47.213C22.4028 48.8465 21.0773 50.175 19.4476 50.175Z" fill="#212121"/>
<path d="M19.4446 9.43652C19.0696 9.43652 18.7656 9.13166 18.7656 8.75609V0.680371C18.7656 0.304395 19.0696 -6.38962e-05 19.4446 -6.38962e-05C19.8197 -6.38962e-05 20.1235 0.304395 20.1235 0.680371V8.75609C20.1235 9.13166 19.8197 9.43652 19.4446 9.43652Z" fill="#212121"/>
<path d="M1.09302 23.0971H4.4236C4.78946 23.0971 5.10411 23.3791 5.12095 23.7453C5.13893 24.136 4.82815 24.458 4.44272 24.458H1.09302C0.718029 24.458 0.414062 24.1535 0.414062 23.7776C0.414062 23.4016 0.718029 23.0971 1.09302 23.0971Z" fill="#212121"/>
<path d="M37.7787 24.4778H34.448C34.0822 24.4778 33.7675 24.1954 33.7507 23.8292C33.7328 23.4385 34.0435 23.1165 34.4288 23.1165H37.7787C38.1535 23.1165 38.4576 23.421 38.4576 23.7969C38.4576 24.1729 38.1535 24.4778 37.7787 24.4778Z" fill="#212121"/>
<path d="M32.4221 16.9453C32.1876 16.9453 31.9593 16.8235 31.8333 16.6053C31.6457 16.2796 31.757 15.8636 32.082 15.6756L37.869 12.3265C38.1935 12.139 38.609 12.2501 38.7966 12.5758C38.9841 12.9015 38.8728 13.3176 38.5479 13.5055L32.7609 16.8542C32.6541 16.9159 32.5375 16.9453 32.4221 16.9453Z" fill="#212121"/>
<path d="M6.46545 16.9453C6.35022 16.9453 6.23353 16.9159 6.12658 16.8542L0.339608 13.5055C0.014848 13.3176 -0.0964235 12.9015 0.0910935 12.5758C0.278529 12.2501 0.693765 12.1385 1.01861 12.3265L6.80558 15.6756C7.13034 15.8636 7.24157 16.2796 7.05409 16.6053C6.92835 16.8235 6.7001 16.9453 6.46545 16.9453Z" fill="#212121"/>
<path d="M26.9379 11.4485C26.8185 11.4485 26.6978 11.417 26.5877 11.3504C26.268 11.1571 26.1742 10.7337 26.361 10.4092L26.9518 9.38389C27.1442 9.0496 27.5777 8.94089 27.9059 9.15095C28.2149 9.34875 28.3006 9.76436 28.1175 10.0823L27.5263 11.1081C27.4007 11.3267 27.1724 11.4485 26.9379 11.4485Z" fill="#212121"/>
<path d="M29.2486 7.44482C29.1336 7.44482 29.017 7.4154 28.9097 7.35328C28.5852 7.1657 28.4739 6.74927 28.6614 6.42396L30.3833 3.43414C30.5709 3.10843 30.9863 2.99686 31.3109 3.18485C31.6359 3.37284 31.7472 3.78927 31.5596 4.11457L29.8373 7.1044C29.7118 7.32263 29.4834 7.44482 29.2486 7.44482Z" fill="#212121"/>
<path d="M11.939 11.4485C11.7043 11.4485 11.4762 11.3267 11.3504 11.1081L10.7596 10.0827C10.5763 9.76436 10.6621 9.34874 10.9709 9.15136C11.2992 8.94089 11.7325 9.0496 11.9252 9.38389L12.5159 10.4092C12.7025 10.7333 12.6091 11.1571 12.2897 11.3504C12.1796 11.417 12.0584 11.4485 11.939 11.4485Z" fill="#212121"/>
<path d="M9.65189 7.44482C9.4172 7.44482 9.18899 7.32263 9.06324 7.1044L7.34109 4.11458C7.15358 3.78927 7.26485 3.37284 7.58961 3.18485C7.91437 2.99727 8.32965 3.10843 8.51712 3.43414L10.2393 6.42396C10.4268 6.74927 10.3155 7.1657 9.99076 7.35328C9.88385 7.4154 9.76707 7.44482 9.65189 7.44482Z" fill="#212121"/>
<path d="M18.4143 27.0913C18.2406 27.0913 18.0668 27.0251 17.9342 26.8923L15.2145 24.1661C14.9493 23.9004 14.9493 23.4693 15.2145 23.2036C15.4797 22.938 15.9096 22.938 16.1747 23.2036L18.4143 25.4485L23.2141 20.6376C23.4791 20.372 23.9093 20.372 24.1743 20.6376C24.4394 20.9036 24.4394 21.3344 24.1743 21.6L18.8945 26.8923C18.7619 27.0251 18.5881 27.0913 18.4143 27.0913Z" fill="#212121"/>
</svg>
