<svg width="21" height="21" viewBox="0 0 21 21" fill="none" xmlns="http://www.w3.org/2000/svg">
<path d="M10.5 0.482422C4.94316 0.482422 0.4375 4.98809 0.4375 10.5449C0.4375 16.1018 4.94316 20.6074 10.5 20.6074C16.0568 20.6074 20.5625 16.1018 20.5625 10.5449C20.5625 4.98809 16.0568 0.482422 10.5 0.482422ZM15.365 13.9365C15.4324 14.0039 15.4684 14.0938 15.4684 14.1881C15.4684 14.2824 15.4324 14.3768 15.365 14.4396L14.3947 15.4145C14.3229 15.4863 14.233 15.5178 14.1432 15.5178C14.0533 15.5178 13.959 15.4818 13.8916 15.4145L10.5 12.0184L7.11289 15.4189C7.04551 15.4908 6.95117 15.5223 6.86133 15.5223C6.77148 15.5223 6.67715 15.4863 6.60977 15.4189L5.63945 14.4441C5.57207 14.3768 5.53613 14.2869 5.53613 14.1926C5.53613 14.0982 5.57207 14.0039 5.63945 13.941L9.04004 10.527L5.63047 7.15781C5.49121 7.01856 5.49121 6.78945 5.63047 6.6502L6.60078 5.67539C6.66816 5.60801 6.75801 5.57207 6.85234 5.57207C6.94668 5.57207 7.03652 5.60801 7.10391 5.67539L10.5045 9.03105L13.9051 5.67539C13.9725 5.60801 14.0623 5.57207 14.1566 5.57207C14.251 5.57207 14.3408 5.60801 14.4082 5.67539L15.3785 6.6502C15.5178 6.78945 15.5178 7.01856 15.3785 7.15781L11.9689 10.527L15.365 13.9365Z" fill="#D22030"/>
</svg>
