<svg width="22" height="22" viewBox="0 0 22 22" fill="none" xmlns="http://www.w3.org/2000/svg">
<path d="M19.6429 15.2232C19.6429 15.4442 19.6019 15.7327 19.5201 16.0887C19.4382 16.4447 19.3523 16.7251 19.2623 16.9297C19.0904 17.3389 18.5911 17.7727 17.7645 18.231C16.9952 18.6484 16.234 18.8571 15.481 18.8571C15.26 18.8571 15.0452 18.8428 14.8365 18.8142C14.6278 18.7855 14.3925 18.7344 14.1306 18.6607C13.8687 18.587 13.6743 18.5277 13.5474 18.4827C13.4206 18.4377 13.1935 18.3538 12.8661 18.231C12.5387 18.1082 12.3382 18.0346 12.2645 18.01C11.4624 17.7236 10.7463 17.3839 10.1161 16.991C9.06846 16.3445 7.98605 15.4626 6.86887 14.3454C5.75168 13.2282 4.8698 12.1458 4.22322 11.0982C3.83036 10.468 3.4907 9.75184 3.20425 8.94976C3.17969 8.8761 3.10603 8.67558 2.98326 8.3482C2.8605 8.02081 2.7766 7.79369 2.73159 7.66683C2.68657 7.53997 2.62724 7.34559 2.55358 7.08369C2.47992 6.82178 2.42876 6.58648 2.40012 6.37777C2.37147 6.16907 2.35715 5.95422 2.35715 5.73324C2.35715 4.98026 2.56585 4.2191 2.98326 3.44976C3.4416 2.62312 3.87538 2.12387 4.2846 1.95199C4.48922 1.86196 4.76954 1.77602 5.12556 1.69418C5.48159 1.61233 5.77009 1.57141 5.99107 1.57141C6.10566 1.57141 6.1916 1.58369 6.24889 1.60824C6.39621 1.65735 6.6131 1.96836 6.89956 2.54128C6.98959 2.69678 7.11235 2.91776 7.26786 3.20422C7.42337 3.49068 7.5666 3.75054 7.69755 3.9838C7.8285 4.21706 7.95536 4.43599 8.07813 4.64061C8.10268 4.67334 8.1743 4.77565 8.29297 4.94753C8.41165 5.1194 8.49963 5.26468 8.55692 5.38335C8.61421 5.50203 8.64286 5.61866 8.64286 5.73324C8.64286 5.89693 8.52623 6.10154 8.29297 6.34708C8.05971 6.59262 7.80599 6.81769 7.53181 7.0223C7.25763 7.22692 7.00391 7.44381 6.77065 7.67297C6.53739 7.90214 6.42076 8.09038 6.42076 8.2377C6.42076 8.31136 6.44122 8.40344 6.48215 8.51393C6.52307 8.62442 6.55785 8.70831 6.5865 8.76561C6.61514 8.8229 6.67244 8.92111 6.75837 9.06025C6.84431 9.19939 6.89137 9.27714 6.89956 9.29351C7.52158 10.4148 8.23363 11.3765 9.03572 12.1786C9.8378 12.9806 10.7995 13.6927 11.9208 14.3147C11.9371 14.3229 12.0149 14.37 12.154 14.4559C12.2932 14.5418 12.3914 14.5991 12.4487 14.6278C12.506 14.6564 12.5898 14.6912 12.7003 14.7321C12.8108 14.773 12.9029 14.7935 12.9766 14.7935C13.1239 14.7935 13.3121 14.6769 13.5413 14.4436C13.7705 14.2104 13.9874 13.9566 14.192 13.6825C14.3966 13.4083 14.6217 13.1546 14.8672 12.9213C15.1127 12.688 15.3173 12.5714 15.481 12.5714C15.5956 12.5714 15.7122 12.6001 15.8309 12.6573C15.9496 12.7146 16.0949 12.8026 16.2667 12.9213C16.4386 13.04 16.5409 13.1116 16.5737 13.1361C16.7783 13.2589 16.9972 13.3858 17.2305 13.5167C17.4637 13.6477 17.7236 13.7909 18.01 13.9464C18.2965 14.1019 18.5175 14.2247 18.673 14.3147C19.2459 14.6012 19.5569 14.8181 19.606 14.9654C19.6306 15.0227 19.6429 15.1086 19.6429 15.2232Z" fill="#D22030"/>
</svg>
