<svg width="23" height="18" viewBox="0 0 23 18" fill="none" xmlns="http://www.w3.org/2000/svg">
<path d="M11.5 12.915C10.7574 12.915 10.0149 12.6719 9.38148 12.1791L0 4.89694V15.0675C0 16.2559 0.965371 17.22 2.15625 17.22H20.8438C22.0346 17.22 23 16.2563 23 15.0675V4.89694L13.6203 12.184C12.9869 12.6728 12.2412 12.915 11.5 12.915ZM0.731777 3.6458L10.2642 11.0495C10.9915 11.6145 12.0103 11.6145 12.7376 11.0495L22.27 3.6458C22.69 3.28705 23 2.73547 23 2.1525C23 0.963692 22.0342 0 20.8438 0H2.15625C0.965371 0 0 0.963692 0 2.1525C0 2.73547 0.269981 3.28705 0.731777 3.6458Z" fill="#D22030"/>
</svg>
