<svg width="20" height="20" viewBox="0 0 20 20" fill="none" xmlns="http://www.w3.org/2000/svg">
<g clip-path="url(#clip0_2290_3020)">
<path d="M10.034 0.0680237C9.0925 0.0680237 8.18271 0.201357 7.31931 0.445303L10.0101 1.4634L9.29291 2.32381L10.5837 3.61442L10.7271 2.18027L13.0215 3.47088L10.8705 7.77292L10.0101 7.05537L8.57604 7.62789L7.8589 7.91238L9.86665 8.65877L11.014 10.4762H12.7348L14.4554 10.8457L16.1759 11.5192L16.4626 12.2276L17.7522 12.08L18.4673 12.9384L16.7424 16.0924L13.2928 18.6732L13.1471 19.5019C17.1261 18.1943 20.0001 14.4509 20.0001 10.0343C20 4.53006 15.5381 0.0680237 10.034 0.0680237Z" fill="#D22030"/>
<path d="M12.2449 18.5291L12.9201 16.8083L13.2914 15.6611L11.1486 13.3667L11.7261 11.3592L10.2936 11.2163L9.71986 10.3571L6.56326 8.20816L5.12503 4.77088L5.68979 2.3419L3.85292 2.21945C1.54816 4.04476 0.0680237 6.86571 0.0680237 10.034C0.0680237 15.5381 4.49591 20 9.99999 20C10.7845 20 11.5646 19.9064 12.2449 19.7351V18.5291Z" fill="#D22030"/>
</g>
<defs>
<clipPath id="clip0_2290_3020">
<rect width="20" height="20" fill="white"/>
</clipPath>
</defs>
</svg>
