<svg width="223" height="60" viewBox="0 0 223 60" fill="none" xmlns="http://www.w3.org/2000/svg">
<path d="M214.256 59.5376H208.682L174.587 14.5539L174.277 14.543V43.0227C174.277 51.0185 175.297 53.9114 183.465 54.9325V58.0802H161.432V54.9325C169.003 53.8271 170.107 51.1028 170.107 43.0227V13.0001C170.107 8.85611 166.992 5.37831 162.019 5.37831C157.044 5.37831 153.93 8.85611 153.93 13.0001V40.2152C153.93 51.19 146.526 59.4404 132.238 59.4404C117.947 59.4404 109.272 53.0588 109.272 40.5543V38.4952V22.7031V13.0001C109.272 8.85611 106.131 5.40902 101.158 5.40902C96.1838 5.40902 93.044 8.85611 93.044 13.0001V14.5519H89.47C86.6892 6.64527 81.4833 4.50093 75.2731 4.50093C70.0821 4.50093 66.2554 7.90437 66.2554 13.4316C66.2554 19.2164 70.4253 21.0882 79.7831 24.0663C87.6072 26.6172 95.9429 29.9343 95.9429 40.483C95.9429 49.923 90.3276 59.5376 75.9532 59.5376C71.36 59.5376 66.0858 58.5978 62.7677 56.9867L59.9155 59.5376H56.3047V41.9522H60.4845C64.8237 51.5618 70.0821 55.8793 77.1458 55.8793C84.5438 55.8793 87.6072 50.8599 87.6072 46.349C87.6072 40.483 83.8636 38.2721 74.0825 35.0372C65.4919 32.3157 56.9849 28.9996 56.9849 18.5352C56.9849 7.81731 64.3856 6.48499e-05 75.3385 6.48499e-05C77.3134 6.48499e-05 79.3011 0.10717 81.2454 0.469849C82.9961 0.796993 85.0821 1.5764 86.8516 1.85C88.4637 2.09771 91.6966 2.10684 93.5466 2.10684C93.6844 2.10684 93.8143 2.10684 93.9354 2.10684C94.996 2.10583 95.798 2.10583 96.514 2.10583C97.9464 2.10583 99.0339 2.10684 101.158 2.10684H113.581H124.023H128.411V5.33973C122.541 5.59454 121.01 6.19021 121.01 8.99798V40.1309C121.01 50.0816 126.624 54.3377 135.725 54.3377C139.895 54.3377 143.127 53.0588 145.507 50.6794C148.313 47.7865 149.59 44.6388 149.59 38.2571V17.0779C149.59 9.16854 147.805 6.19021 139.723 5.25446V2.10684H161.432H179.381L209.666 41.9522H210.088V17.0779C210.088 9.16854 208.302 6.19021 200.22 5.25446V2.10684H222.423V5.25446C214.851 6.36076 214.256 9.16854 214.256 17.0779V59.5376Z" fill="#F7F7F7"/>
<path d="M28.1914 59.5347C10.37 59.5347 0 47.3682 0 30.4846C0 13.1778 12.8555 0.410503 29.6507 0.410503C35.05 0.410503 40.3618 2.12567 43.8733 4.09261L46.3578 0.410503H49.7871V20.7195H45.9316C42.5043 10.3513 36.8474 4.09261 29.3931 4.09261C20.6538 4.09261 12.9407 12.5771 12.9407 29.1174C12.9407 46.0843 22.2807 54.2237 31.2776 54.2237C39.2476 54.2237 44.8152 50.0945 48.8473 41.9522L52.0999 43.4938C48.077 52.7416 40.4481 59.5347 28.1914 59.5347Z" fill="#F7F7F7"/>
</svg>
