<svg width="257" height="35" viewBox="0 0 257 35" fill="none" xmlns="http://www.w3.org/2000/svg">
<g clip-path="url(#clip0_1500_506)">
<path d="M94.5802 30.3259H92.12L77.0703 10.4498L76.9338 10.4449V23.0288C76.9338 26.5617 77.3837 27.84 80.989 28.2912V29.682H71.2638V28.2912C74.6057 27.8027 75.0928 26.599 75.0928 23.0288V9.76324C75.0928 7.93219 73.7183 6.39552 71.5228 6.39552C69.3269 6.39552 67.9524 7.93219 67.9524 9.76324V21.7883C67.9524 26.6375 64.6843 30.283 58.3776 30.283C52.0696 30.283 48.2405 27.4632 48.2405 21.9381V21.0283V14.0505V9.76324C48.2405 7.93219 46.8542 6.40909 44.6588 6.40909C42.4633 6.40909 41.0774 7.93219 41.0774 9.76324V10.4489H39.4999C38.2724 6.95533 35.9745 6.00785 33.2334 6.00785C30.9421 6.00785 29.2529 7.51166 29.2529 9.95388C29.2529 12.5099 31.0935 13.337 35.2241 14.6528C38.6776 15.78 42.357 17.2457 42.357 21.9066C42.357 26.0777 39.8784 30.3259 33.5336 30.3259C31.5061 30.3259 29.1781 29.9107 27.7135 29.1988L26.4545 30.3259H24.8607V22.5558H26.7057C28.621 26.8018 30.9421 28.7095 34.06 28.7095C37.3255 28.7095 38.6776 26.4917 38.6776 24.4985C38.6776 21.9066 37.0252 20.9297 32.7078 19.5004C28.916 18.2979 25.1609 16.8326 25.1609 12.2089C25.1609 7.4732 28.4276 4.01913 33.2623 4.01913C34.1339 4.01913 35.0113 4.06646 35.8696 4.22671C36.6423 4.37126 37.5631 4.71564 38.3441 4.83653C39.0557 4.94598 40.4827 4.95002 41.2993 4.95002C41.3601 4.95002 41.4174 4.95002 41.4709 4.95002C41.939 4.94957 42.293 4.94957 42.6091 4.94957C43.2414 4.94957 43.7214 4.95002 44.6588 4.95002H50.1424H54.7516H56.6885V6.37847C54.0974 6.49106 53.4218 6.75426 53.4218 7.99488V21.7511C53.4218 26.1478 55.8995 28.0283 59.9167 28.0283C61.7577 28.0283 63.1839 27.4632 64.2346 26.4119C65.4734 25.1337 66.0366 23.7429 66.0366 20.9231V11.565C66.0366 8.07024 65.2488 6.75426 61.6816 6.3408V4.95002H71.2638H79.1865L92.5545 22.5558H92.7405V11.565C92.7405 8.07024 91.9524 6.75426 88.385 6.3408V4.95002H98.1851V6.3408C94.8431 6.82962 94.5802 8.07024 94.5802 11.565V30.3259Z" fill="#D21C2E"/>
<path d="M12.4437 30.3246C4.57734 30.3246 0 24.9488 0 17.4888C0 9.84175 5.6744 4.20048 13.0878 4.20048C15.4711 4.20048 17.8157 4.95833 19.3657 5.82743L20.4623 4.20048H21.976V13.174H20.2742C18.7614 8.59283 16.2645 5.82743 12.9741 5.82743C9.11659 5.82743 5.71204 9.57631 5.71204 16.8847C5.71204 24.3816 9.8347 27.978 13.8059 27.978C17.3239 27.978 19.7814 26.1535 21.5612 22.5558L22.9969 23.2369C21.2212 27.3231 17.8538 30.3246 12.4437 30.3246Z" fill="#D21C2E"/>
<path d="M107.704 34.6517H108.448V-0.000888838H107.704V34.6517Z" fill="#231F20"/>
<path d="M118.86 9.9714H119.727V5.79548H119.515C118.834 5.79548 118.692 6.02324 118.381 7.39563H117.716V5.16468H123.116V7.39563H122.451C122.14 6.02324 121.997 5.79548 121.317 5.79548H121.105V9.9714H121.972V10.7038H118.86V9.9714Z" fill="#231F20"/>
<path d="M124.548 8.76769H125.288C125.65 9.7108 126.113 10.1401 127.004 10.1401C127.6 10.1401 127.938 9.84525 127.938 9.40723C127.938 8.89385 127.374 8.76769 126.533 8.55742C125.624 8.3383 124.598 8.02643 124.598 6.78895C124.598 5.76174 125.465 5.03013 126.542 5.03013C127.147 5.03013 127.669 5.25665 127.953 5.64433L128.131 5.04639H128.871V7.01671H128.131C127.777 6.09906 127.365 5.72888 126.65 5.72888C126.087 5.72888 125.784 6.05745 125.784 6.43503C125.784 6.99137 126.398 7.11753 127.231 7.31983C128.131 7.53806 129.123 7.83366 129.123 9.03705C129.123 10.0897 128.29 10.8387 127.088 10.8387C126.398 10.8387 125.793 10.5528 125.481 10.1651L125.28 10.8221H124.548V8.76769Z" fill="#231F20"/>
<path d="M130.429 9.9714H131.185V5.89618H130.429V5.16468H135.694V7.13501H134.962C134.752 6.08234 134.626 5.88003 133.92 5.88003H132.556V7.55554H133.011C133.482 7.55554 133.524 7.46224 133.642 6.78109H134.298V9.02829H133.642C133.541 8.33829 133.473 8.23758 133.011 8.23758H132.556V9.9889H133.885C134.735 9.9889 134.836 9.68533 135.038 8.51491H135.769V10.7038H130.429V9.9714Z" fill="#231F20"/>
<path d="M138.766 6.48672H138.69V9.9714H139.446V10.7038H137.218V9.9714H137.94V5.89618H137.218V5.16468H139.574L141.921 9.03704H141.996V5.89618H141.239V5.16468H143.468V5.89618H142.744V10.7796H141.365L138.766 6.48672Z" fill="#231F20"/>
<path d="M147.362 10.8387C145.823 10.8387 144.705 9.66045 144.705 7.94322C144.705 6.26772 145.975 5.03013 147.403 5.03013C148.102 5.03013 148.606 5.28211 148.943 5.72013L149.12 5.04639H149.885V7.20163H148.952C148.632 6.19101 148.194 5.72013 147.547 5.72013C146.774 5.72013 146.201 6.35967 146.201 7.88412C146.201 9.27266 146.664 10.081 147.589 10.081C147.959 10.081 148.194 9.92106 148.363 9.7108C148.548 9.49178 148.632 9.12161 148.632 8.71722V8.56527H147.707V7.83366H150.625V8.56527H149.987V10.7709H149.229L148.91 9.93721C148.641 10.451 148.179 10.8387 147.362 10.8387Z" fill="#231F20"/>
<path d="M154.165 7.96823C154.165 6.24226 155.393 5.03013 156.839 5.03013C157.546 5.03013 158.076 5.27415 158.412 5.68593L158.589 5.04639H159.345V7.25198H158.513C158.177 6.23352 157.706 5.72013 157.007 5.72013C156.218 5.72013 155.662 6.30058 155.662 7.88412C155.662 9.39848 156.243 10.0468 157.193 10.0468C158.026 10.0468 158.504 9.41598 158.647 8.48947H159.455C159.312 9.92106 158.497 10.8387 157 10.8387C155.275 10.8387 154.165 9.67659 154.165 7.96823Z" fill="#231F20"/>
<path d="M165.034 7.93448C165.034 6.41003 164.555 5.72013 163.663 5.72013C162.771 5.72013 162.342 6.41003 162.342 7.93448C162.342 9.46633 162.822 10.1488 163.713 10.1488C164.605 10.1488 165.034 9.46633 165.034 7.93448ZM160.845 7.94322C160.845 6.20851 162.082 5.03013 163.688 5.03013C165.337 5.03013 166.53 6.16556 166.53 7.92573C166.53 9.66785 165.294 10.8387 163.688 10.8387C162.04 10.8387 160.845 9.70205 160.845 7.94322Z" fill="#231F20"/>
<path d="M170.856 5.16468V5.88003H170.023V9.9889H170.965C171.629 9.9889 171.773 9.82023 172.133 8.41409H172.798V10.7038H167.895V9.9714H168.651V5.89618H167.895V5.16468H170.856Z" fill="#231F20"/>
<path d="M177.048 5.16468V5.88003H176.214V9.9889H177.158C177.822 9.9889 177.965 9.82023 178.326 8.41409H178.99V10.7038H174.088V9.9714H174.843V5.89618H174.088V5.16468H177.048Z" fill="#231F20"/>
<path d="M180.28 9.9714H181.036V5.89618H180.28V5.16468H185.544V7.13501H184.812C184.602 6.08234 184.476 5.88003 183.769 5.88003H182.406V7.55554H182.862C183.332 7.55554 183.375 7.46224 183.492 6.78109H184.148V9.02829H183.492C183.391 8.33829 183.323 8.23758 182.862 8.23758H182.406V9.9889H183.736C184.586 9.9889 184.687 9.68533 184.887 8.51491H185.62V10.7038H180.28V9.9714Z" fill="#231F20"/>
<path d="M189.793 10.8387C188.254 10.8387 187.136 9.66045 187.136 7.94322C187.136 6.26772 188.406 5.03013 189.834 5.03013C190.532 5.03013 191.038 5.28211 191.374 5.72013L191.551 5.04639H192.316V7.20163H191.383C191.063 6.19101 190.625 5.72013 189.978 5.72013C189.205 5.72013 188.632 6.35967 188.632 7.88412C188.632 9.27266 189.095 10.081 190.02 10.081C190.39 10.081 190.625 9.92106 190.795 9.7108C190.979 9.49178 191.063 9.12161 191.063 8.71722V8.56527H190.138V7.83366H193.056V8.56527H192.417V10.7709H191.66L191.34 9.93721C191.071 10.451 190.61 10.8387 189.793 10.8387Z" fill="#231F20"/>
<path d="M194.21 9.9714H194.966V5.89618H194.21V5.16468H199.476V7.13501H198.743C198.533 6.08234 198.408 5.88003 197.701 5.88003H196.338V7.55554H196.792C197.263 7.55554 197.306 7.46224 197.423 6.78109H198.08V9.02829H197.423C197.322 8.33829 197.254 8.23758 196.792 8.23758H196.338V9.9889H197.666C198.517 9.9889 198.617 9.68533 198.819 8.51491H199.551V10.7038H194.21V9.9714Z" fill="#231F20"/>
<path d="M120.399 20.3712C118.86 20.3712 117.877 19.0921 117.877 17.4757C117.877 15.9167 118.961 14.6126 120.399 14.6126C121.03 14.6126 121.594 14.8732 121.946 15.277L122.107 14.6375H122.544V16.692H122.157C121.821 15.6897 121.249 15.0756 120.433 15.0756C119.356 15.0756 118.684 15.9167 118.684 17.424C118.684 18.965 119.356 19.8828 120.491 19.8828C121.004 19.8828 121.349 19.6471 121.559 19.3689C121.795 19.0833 121.896 18.6364 121.896 18.1906V17.9716H120.87V17.5335H123.36V17.9716H122.611V20.2953H122.2L121.955 19.5039C121.627 20.0602 121.064 20.3712 120.399 20.3712Z" fill="#231F20"/>
<path d="M127.196 17.3661C128.112 17.3661 128.441 16.9023 128.441 16.1786C128.441 15.5302 128.112 15.1763 127.305 15.1763H126.203V17.3661H127.196ZM126.203 19.7982H127.129V20.2363H124.563V19.7982H125.497V15.1763H124.563V14.7471H127.246C128.685 14.7471 129.248 15.3866 129.248 16.1698C129.248 16.7424 128.903 17.3399 127.927 17.5173V17.5676C128.709 17.7526 128.97 18.1315 129.021 18.7635L129.071 19.4535C129.097 19.7229 129.189 19.8412 129.366 19.8412C129.526 19.8412 129.635 19.7141 129.761 19.4448L130.047 19.5792C129.87 20.0427 129.609 20.3296 129.164 20.3296C128.694 20.3296 128.315 20.1105 128.297 19.3439L128.28 18.679C128.264 18.0474 128.071 17.77 127.246 17.77H126.203V19.7982Z" fill="#231F20"/>
<path d="M132.621 17.862H134.362L133.539 15.5302H133.513L132.621 17.862ZM134.506 18.2576H132.471L131.89 19.7982H132.63V20.2362H130.789V19.7982H131.377L133.379 14.7041H133.968L135.835 19.7982H136.54V20.2362H134.186V19.7982H135.052L134.506 18.2576Z" fill="#231F20"/>
<path d="M139.916 19.7982C141.396 19.7982 142.044 19.0491 142.044 17.4077C142.044 15.9595 141.388 15.1763 139.856 15.1763H139.218V19.7982H139.916ZM137.578 19.7982H138.511V15.1763H137.578V14.747H139.849C141.859 14.747 142.852 15.8158 142.852 17.4077C142.852 18.9737 141.952 20.2362 139.9 20.2362H137.578V19.7982Z" fill="#231F20"/>
<path d="M145.058 18.5782V15.1763H144.25V14.747H146.612V15.1763H145.763V18.3921C145.763 19.4535 146.319 19.874 147.345 19.874C147.799 19.874 148.169 19.7229 148.413 19.4784C148.7 19.1928 148.799 18.8227 148.799 18.1906V15.1763H147.951V14.747H150.061V15.1763H149.288V18.5015C149.288 19.5376 148.564 20.3712 147.134 20.3712C145.739 20.3712 145.058 19.6309 145.058 18.5782Z" fill="#231F20"/>
<path d="M152.595 17.862H154.336L153.511 15.5302H153.486L152.595 17.862ZM154.479 18.2576H152.443L151.863 19.7982H152.604V20.2362H150.761V19.7982H151.35L153.352 14.7041H153.94L155.808 19.7982H156.513V20.2362H154.16V19.7982H155.026L154.479 18.2576Z" fill="#231F20"/>
<path d="M158.358 19.7982H159.325V15.1425H158.577C157.938 15.1425 157.853 15.3866 157.568 16.6495H157.248V14.747H162.109V16.6495H161.79C161.504 15.3866 161.42 15.1425 160.773 15.1425H160.032V19.7982H160.999V20.2362H158.358V19.7982Z" fill="#231F20"/>
<path d="M163.6 19.7982H164.533V15.1763H163.6V14.747H168.294V16.4641H167.966C167.738 15.3866 167.662 15.1763 167.133 15.1763H165.24V17.2224H166.073C166.577 17.2224 166.636 17.1383 166.763 16.38H167.108V18.4766H166.763C166.654 17.6859 166.577 17.6014 166.073 17.6014H165.24V19.7982H167.116C167.731 19.7982 167.806 19.5879 168.041 18.3505H168.369V20.2362H163.6V19.7982Z" fill="#231F20"/>
<path d="M169.836 21.1628C170.441 20.8758 170.668 20.5989 170.727 20.2617L170.693 20.245L170.499 20.2954C170.289 20.2954 170.121 20.118 170.121 19.8828C170.121 19.6309 170.306 19.4119 170.575 19.4119C170.903 19.4119 171.105 19.6725 171.105 20.0339C171.105 20.5989 170.784 21.0532 169.961 21.4234L169.836 21.1628Z" fill="#231F20"/>
<path d="M174.993 19.7982H175.918V15.1763H174.993V14.747H177.567V15.1763H176.633V19.7982H177.567V20.2362H174.993V19.7982Z" fill="#231F20"/>
<path d="M180.422 15.6398H180.381V19.7982H181.221V20.2362H179.017V19.7982H179.892V15.1763H179.017V14.747H180.666L183.61 19.0075H183.652V15.1763H182.803V14.747H184.98V15.1763H184.148V20.3712H183.685L180.422 15.6398Z" fill="#231F20"/>
<path d="M187.513 19.7982H188.48V15.1425H187.732C187.093 15.1425 187.009 15.3866 186.724 16.6495H186.404V14.747H191.265V16.6495H190.945C190.66 15.3866 190.575 15.1425 189.927 15.1425H189.187V19.7982H190.154V20.2362H187.513V19.7982Z" fill="#231F20"/>
<path d="M192.756 19.7982H193.689V15.1763H192.756V14.747H197.449V16.4641H197.121C196.893 15.3866 196.818 15.1763 196.288 15.1763H194.396V17.2224H195.229C195.733 17.2224 195.792 17.1383 195.918 16.38H196.264V18.4766H195.918C195.809 17.6859 195.733 17.6014 195.229 17.6014H194.396V19.7982H196.27C196.885 19.7982 196.962 19.5879 197.197 18.3505H197.524V20.2362H192.756V19.7982Z" fill="#231F20"/>
<path d="M201.749 17.3661C202.665 17.3661 202.993 16.9023 202.993 16.1786C202.993 15.5302 202.665 15.1763 201.858 15.1763H200.756V17.3661H201.749ZM200.756 19.7982H201.681V20.2363H199.116V19.7982H200.049V15.1763H199.116V14.7471H201.799C203.237 14.7471 203.801 15.3866 203.801 16.1698C203.801 16.7424 203.456 17.3399 202.48 17.5173V17.5676C203.263 17.7526 203.523 18.1315 203.574 18.7635L203.624 19.4535C203.65 19.7229 203.742 19.8412 203.919 19.8412C204.079 19.8412 204.189 19.7141 204.314 19.4448L204.6 19.5792C204.424 20.0427 204.162 20.3296 203.717 20.3296C203.246 20.3296 202.868 20.1105 202.85 19.3439L202.834 18.679C202.816 18.0474 202.624 17.77 201.799 17.77H200.756V19.7982Z" fill="#231F20"/>
<path d="M207.065 15.6398H207.024V19.7982H207.864V20.2362H205.66V19.7982H206.535V15.1763H205.66V14.747H207.31L210.254 19.0075H210.295V15.1763H209.446V14.747H211.624V15.1763H210.791V20.3712H210.329L207.065 15.6398Z" fill="#231F20"/>
<path d="M214.46 17.862H216.2L215.376 15.5302H215.352L214.46 17.862ZM216.343 18.2576H214.309L213.727 19.7982H214.468V20.2362H212.626V19.7982H213.214L215.216 14.7041H215.806L217.673 19.7982H218.38V20.2362H216.024V19.7982H216.891L216.343 18.2576Z" fill="#231F20"/>
<path d="M220.223 19.7982H221.189V15.1425H220.442C219.802 15.1425 219.718 15.3866 219.433 16.6495H219.114V14.747H223.974V16.6495H223.655C223.368 15.3866 223.285 15.1425 222.637 15.1425H221.896V19.7982H222.864V20.2362H220.223V19.7982Z" fill="#231F20"/>
<path d="M225.525 19.7982H226.449V15.1763H225.525V14.747H228.098V15.1763H227.164V19.7982H228.098V20.2362H225.525V19.7982Z" fill="#231F20"/>
<path d="M234.048 17.4918C234.048 16.01 233.375 15.0668 232.257 15.0668C231.131 15.0668 230.465 16.01 230.465 17.4918C230.465 18.9738 231.131 19.9253 232.257 19.9253C233.375 19.9253 234.048 18.99 234.048 17.4918ZM229.658 17.4918C229.658 15.8413 230.844 14.62 232.257 14.62C233.712 14.62 234.847 15.7909 234.847 17.4918C234.847 19.1499 233.669 20.3712 232.257 20.3712C230.803 20.3712 229.658 19.184 229.658 17.4918Z" fill="#231F20"/>
<path d="M237.766 15.6398H237.725V19.7982H238.566V20.2362H236.362V19.7982H237.238V15.1763H236.362V14.747H238.011L240.955 19.0075H240.996V15.1763H240.147V14.747H242.326V15.1763H241.493V20.3712H241.03L237.766 15.6398Z" fill="#231F20"/>
<path d="M245.161 17.862H246.902L246.078 15.5302H246.053L245.161 17.862ZM247.045 18.2576H245.01L244.43 19.7982H245.17V20.2362H243.327V19.7982H243.917L245.918 14.7041H246.507L248.374 19.7982H249.08V20.2362H246.725V19.7982H247.592L247.045 18.2576Z" fill="#231F20"/>
<path d="M252.741 14.747V15.1763H251.757V19.7982H253.414C253.91 19.7982 253.994 19.5376 254.305 18.1743H254.633V20.2362H250.117V19.7982H251.05V15.1763H250.117V14.747H252.741Z" fill="#231F20"/>
<path d="M119.28 27.394H121.021L120.198 25.0627H120.172L119.28 27.394ZM121.165 27.7896H119.129L118.549 29.3302H119.289V29.7683H117.448V29.3302H118.036L120.038 24.237H120.626L122.493 29.3302H123.2V29.7683H120.845V29.3302H121.711L121.165 27.7896Z" fill="#231F20"/>
<path d="M125.658 25.1722H125.616V29.3302H126.457V29.7683H124.253V29.3302H125.128V24.7088H124.253V24.2795H125.901L128.845 28.5395H128.886V24.7088H128.038V24.2795H130.216V24.7088H129.384V29.9032H128.921L125.658 25.1722Z" fill="#231F20"/>
<path d="M133.859 29.3302C135.339 29.3302 135.987 28.5812 135.987 26.9398C135.987 25.492 135.33 24.7088 133.8 24.7088H133.161V29.3302H133.859ZM131.521 29.3302H132.454V24.7088H131.521V24.2795H133.792C135.802 24.2795 136.794 25.3483 136.794 26.9398C136.794 28.5058 135.895 29.7683 133.842 29.7683H131.521V29.3302Z" fill="#231F20"/>
<path d="M140.629 29.3302H141.505V24.7088H140.629V24.2795H142.681L144.238 28.565H144.263L145.852 24.2795H147.863V24.7088H146.954V29.3302H147.863V29.7683H145.499V29.3302H146.239V24.7429H146.189L144.263 29.777H143.961L142.043 24.7429H141.993V29.3302H142.782V29.7683H140.629V29.3302Z" fill="#231F20"/>
<path d="M149.318 29.3302H150.242V24.7088H149.318V24.2795H151.891V24.7088H150.958V29.3302H151.891V29.7683H149.318V29.3302Z" fill="#231F20"/>
<path d="M155.663 29.3302C157.144 29.3302 157.792 28.5812 157.792 26.9398C157.792 25.492 157.135 24.7088 155.605 24.7088H154.965V29.3302H155.663ZM153.325 29.3302H154.258V24.7088H153.325V24.2795H155.597C157.607 24.2795 158.598 25.3483 158.598 26.9398C158.598 28.5058 157.7 29.7683 155.647 29.7683H153.325V29.3302Z" fill="#231F20"/>
<path d="M160.207 27.0151C160.207 25.3987 161.343 24.145 162.763 24.145C163.479 24.145 164 24.4219 164.336 24.8095L164.496 24.17H164.934V26.2498H164.547C164.202 25.2226 163.655 24.608 162.772 24.608C161.746 24.608 161.015 25.4329 161.015 26.9647C161.015 28.5474 161.755 29.4235 162.865 29.4235C163.849 29.4235 164.472 28.6745 164.622 27.6218H165.093C164.934 29.0784 164.043 29.9032 162.748 29.9032C161.233 29.9032 160.207 28.6994 160.207 27.0151Z" fill="#231F20"/>
<path d="M168.014 27.394H169.754L168.93 25.0627H168.906L168.014 27.394ZM169.897 27.7896H167.863L167.281 29.3302H168.023V29.7683H166.18V29.3302H166.768L168.77 24.237H169.359L171.227 29.3302H171.933V29.7683H169.578V29.3302H170.445L169.897 27.7896Z" fill="#231F20"/>
<path d="M175.602 26.8982C176.519 26.8982 176.846 26.4347 176.846 25.711C176.846 25.0627 176.519 24.7088 175.711 24.7088H174.609V26.8982H175.602ZM174.609 29.3302H175.535V29.7683H172.97V29.3302H173.903V24.7088H172.97V24.2795H175.652C177.09 24.2795 177.654 24.919 177.654 25.7023C177.654 26.2748 177.31 26.8719 176.333 27.0493V27.0997C177.116 27.2845 177.376 27.6635 177.426 28.2956L177.477 28.9855C177.503 29.2549 177.594 29.3732 177.773 29.3732C177.932 29.3732 178.041 29.2461 178.167 28.9767L178.453 29.1112C178.277 29.5747 178.015 29.8616 177.57 29.8616C177.099 29.8616 176.721 29.6426 176.704 28.876L176.687 28.211C176.669 27.5793 176.476 27.3021 175.652 27.3021H174.609V29.3302Z" fill="#231F20"/>
<path d="M179.498 29.3302H180.431V24.7088H179.498V24.2795H184.191V25.9967H183.862C183.635 24.919 183.56 24.7088 183.03 24.7088H181.138V26.7545H181.97C182.474 26.7545 182.534 26.6704 182.66 25.9125H183.005V28.0086H182.66C182.551 27.2179 182.474 27.1334 181.97 27.1334H181.138V29.3302H183.012C183.627 29.3302 183.703 29.12 183.939 27.8825H184.267V29.7683H179.498V29.3302Z" fill="#231F20"/>
<path d="M185.858 29.3302H186.791V24.7088H185.858V24.2795H190.551V25.9967H190.223C189.996 24.919 189.92 24.7088 189.391 24.7088H187.498V26.7545H188.33C188.835 26.7545 188.893 26.6704 189.021 25.9125H189.365V28.0086H189.021C188.911 27.2179 188.835 27.1334 188.33 27.1334H187.498V29.3302H189.373C189.988 29.3302 190.063 29.12 190.298 27.8825H190.627V29.7683H185.858V29.3302Z" fill="#231F20"/>
<path d="M194.851 26.8982C195.767 26.8982 196.096 26.4347 196.096 25.711C196.096 25.0627 195.767 24.7088 194.96 24.7088H193.858V26.8982H194.851ZM193.858 29.3302H194.784V29.7683H192.218V29.3302H193.152V24.7088H192.218V24.2795H194.901C196.34 24.2795 196.903 24.919 196.903 25.7023C196.903 26.2748 196.558 26.8719 195.583 27.0493V27.0997C196.364 27.2845 196.626 27.6635 196.676 28.2956L196.727 28.9855C196.752 29.2549 196.844 29.3732 197.021 29.3732C197.181 29.3732 197.291 29.2461 197.416 28.9767L197.702 29.1112C197.525 29.5747 197.265 29.8616 196.819 29.8616C196.349 29.8616 195.97 29.6426 195.952 28.876L195.937 28.211C195.92 27.5793 195.726 27.3021 194.901 27.3021H193.858V29.3302Z" fill="#231F20"/>
<path d="M201.082 29.3302H202.015V24.7088H201.082V24.2795H205.776V25.9967H205.448C205.22 24.919 205.144 24.7088 204.615 24.7088H202.722V26.7545H203.554C204.058 26.7545 204.118 26.6704 204.245 25.9125H204.589V28.0086H204.245C204.136 27.2179 204.058 27.1334 203.554 27.1334H202.722V29.3302H204.597C205.212 29.3302 205.287 29.12 205.523 27.8825H205.851V29.7683H201.082V29.3302Z" fill="#231F20"/>
<path d="M209.781 29.3302C211.261 29.3302 211.908 28.5812 211.908 26.9398C211.908 25.492 211.252 24.7088 209.721 24.7088H209.083V29.3302H209.781ZM207.443 29.3302H208.376V24.7088H207.443V24.2795H209.714C211.723 24.2795 212.716 25.3483 212.716 26.9398C212.716 28.5058 211.815 29.7683 209.764 29.7683H207.443V29.3302Z" fill="#231F20"/>
<path d="M214.922 28.1103V24.7088H214.114V24.2795H216.477V24.7088H215.629V27.9241C215.629 28.9855 216.183 29.406 217.209 29.406C217.663 29.406 218.034 29.2549 218.277 29.0105C218.564 28.7248 218.665 28.3547 218.665 27.7226V24.7088H217.815V24.2795H219.926V24.7088H219.152V28.0336C219.152 29.0696 218.429 29.9032 216.999 29.9032C215.603 29.9032 214.922 29.1629 214.922 28.1103Z" fill="#231F20"/>
<path d="M221.331 27.0151C221.331 25.3987 222.467 24.145 223.888 24.145C224.603 24.145 225.124 24.4219 225.461 24.8095L225.621 24.17H226.058V26.2498H225.671C225.327 25.2226 224.78 24.608 223.897 24.608C222.87 24.608 222.138 25.4329 222.138 26.9647C222.138 28.5474 222.879 29.4235 223.99 29.4235C224.973 29.4235 225.596 28.6745 225.747 27.6218H226.218C226.058 29.0784 225.166 29.9032 223.871 29.9032C222.357 29.9032 221.331 28.6994 221.331 27.0151Z" fill="#231F20"/>
<path d="M229.139 27.394H230.88L230.056 25.0627H230.031L229.139 27.394ZM231.023 27.7896H228.988L228.407 29.3302H229.148V29.7683H227.305V29.3302H227.894L229.896 24.237H230.484L232.352 29.3302H233.059V29.7683H230.704V29.3302H231.57L231.023 27.7896Z" fill="#231F20"/>
<path d="M234.903 29.3302H235.87V24.6751H235.121C234.483 24.6751 234.399 24.919 234.113 26.182H233.793V24.2795H238.653V26.182H238.334C238.047 24.919 237.964 24.6751 237.317 24.6751H236.576V29.3302H237.543V29.7683H234.903V29.3302Z" fill="#231F20"/>
<path d="M240.204 29.3302H241.128V24.7088H240.204V24.2795H242.777V24.7088H241.844V29.3302H242.777V29.7683H240.204V29.3302Z" fill="#231F20"/>
<path d="M248.728 27.0239C248.728 25.5424 248.055 24.5993 246.937 24.5993C245.81 24.5993 245.144 25.5424 245.144 27.0239C245.144 28.5058 245.81 29.4573 246.937 29.4573C248.055 29.4573 248.728 28.522 248.728 27.0239ZM244.338 27.0239C244.338 25.3737 245.523 24.1524 246.937 24.1524C248.392 24.1524 249.526 25.3234 249.526 27.0239C249.526 28.6819 248.349 29.9032 246.937 29.9032C245.482 29.9032 244.338 28.7161 244.338 27.0239Z" fill="#231F20"/>
<path d="M252.446 25.1722H252.405V29.3302H253.246V29.7683H251.041V29.3302H251.916V24.7088H251.041V24.2795H252.69L255.634 28.5395H255.676V24.7088H254.827V24.2795H257.004V24.7088H256.172V29.9032H255.709L252.446 25.1722Z" fill="#231F20"/>
<path d="M100.812 28.5571C101.086 28.5571 101.223 28.4292 101.223 28.1891C101.223 27.9657 101.103 27.8553 100.838 27.8553H100.504V28.5571H100.812ZM100.504 29.406H100.812V29.6032H99.8533V29.406H100.161V27.8553H99.8533V27.6494H100.846C101.437 27.6494 101.608 27.9145 101.608 28.1628C101.608 28.3687 101.454 28.5834 101.051 28.6351V28.6613C101.377 28.7117 101.488 28.8659 101.514 29.0806L101.531 29.2777C101.539 29.3894 101.565 29.4235 101.617 29.4235C101.668 29.4235 101.711 29.3894 101.754 29.2689L101.891 29.3206C101.831 29.509 101.72 29.647 101.531 29.647C101.317 29.647 101.189 29.5353 101.171 29.2439L101.163 29.0556C101.154 28.8497 101.077 28.7468 100.82 28.7468H100.504V29.406ZM102.379 28.6526C102.379 27.6744 101.745 27.0064 100.76 27.0064C99.7929 27.0064 99.1509 27.6744 99.1509 28.6526C99.1509 29.6382 99.7929 30.315 100.76 30.315C101.745 30.315 102.379 29.6382 102.379 28.6526ZM98.8678 28.6526C98.8678 27.564 99.6901 26.7668 100.76 26.7668C101.839 26.7668 102.661 27.564 102.661 28.6526C102.661 29.7411 101.839 30.5546 100.76 30.5546C99.6901 30.5546 98.8678 29.7411 98.8678 28.6526Z" fill="#D21C2E"/>
</g>
<defs>
<clipPath id="clip0_1500_506">
<rect width="257" height="34.6517" fill="white"/>
</clipPath>
</defs>
</svg>
