<svg width="352" height="48" viewBox="0 0 352 48" fill="none" xmlns="http://www.w3.org/2000/svg">
<g clip-path="url(#clip0_100_1903)">
<path d="M129.498 41.4795H126.129L105.523 14.2933L105.336 14.2867V31.4986C105.336 36.3309 105.952 38.0793 110.889 38.6964V40.5987H97.5731V38.6964C102.149 38.0283 102.816 36.3818 102.816 31.4986V13.3543C102.816 10.8498 100.934 8.74797 97.9277 8.74797C94.9212 8.74797 93.0392 10.8498 93.0392 13.3543V29.8019C93.0392 36.4346 88.5646 41.4208 79.9295 41.4208C71.2928 41.4208 66.0501 37.564 66.0501 30.0068V28.7624V19.2183V13.3543C66.0501 10.8498 64.1519 8.76653 61.146 8.76653C58.14 8.76653 56.2425 10.8498 56.2425 13.3543V14.2921H54.0825C52.4019 9.51367 49.2557 8.21772 45.5025 8.21772C42.3653 8.21772 40.0526 10.2746 40.0526 13.615C40.0526 17.1111 42.5727 18.2423 48.2281 20.0422C52.9567 21.5838 57.9945 23.5886 57.9945 29.9637C57.9945 35.6688 54.6008 41.4795 45.9136 41.4795C43.1376 41.4795 39.9501 40.9115 37.9448 39.9379L36.221 41.4795H34.0388V30.8516H36.5649C39.1873 36.6593 42.3653 39.2686 46.6343 39.2686C51.1053 39.2686 52.9567 36.2351 52.9567 33.5089C52.9567 29.9637 50.6943 28.6276 44.783 26.6725C39.5912 25.0278 34.4499 23.0237 34.4499 16.6994C34.4499 10.222 38.9226 5.4976 45.5421 5.4976C46.7355 5.4976 47.9369 5.56232 49.1119 5.78151C50.17 5.97923 51.4307 6.45027 52.5001 6.61562C53.4744 6.76532 55.4282 6.77084 56.5462 6.77084C56.6295 6.77084 56.708 6.77084 56.7812 6.77084C57.4222 6.77023 57.9069 6.77023 58.3396 6.77023C59.2053 6.77023 59.8625 6.77084 61.146 6.77084H68.6541H74.9649H77.6168V8.72466C74.0692 8.87866 73.1441 9.23865 73.1441 10.9355V29.751C73.1441 35.7647 76.5365 38.3369 82.0369 38.3369C84.5575 38.3369 86.5102 37.564 87.9488 36.126C89.6449 34.3777 90.4162 32.4753 90.4162 28.6185V15.8187C90.4162 11.0386 89.3376 9.23865 84.4533 8.67312V6.77084H97.5731H108.421L126.724 30.8516H126.979V15.8187C126.979 11.0386 125.9 9.23865 121.015 8.67312V6.77084H134.433V8.67312C129.858 9.34172 129.498 11.0386 129.498 15.8187V41.4795Z" fill="#D21C2E"/>
<path d="M17.0377 41.4775C6.26721 41.4775 0 34.1247 0 23.9209C0 13.4615 7.76929 5.74547 17.9196 5.74547C21.1827 5.74547 24.3929 6.78204 26.5152 7.97077L28.0166 5.74547H30.0892V18.0193H27.7591C25.6878 11.7532 22.269 7.97077 17.7639 7.97077C12.4823 7.97077 7.82083 13.0984 7.82083 23.0947C7.82083 33.3487 13.4655 38.2678 18.9028 38.2678C23.7196 38.2678 27.0844 35.7723 29.5212 30.8515L31.487 31.7831C29.0557 37.3721 24.4451 41.4775 17.0377 41.4775Z" fill="#D21C2E"/>
<path d="M147.466 47.396H148.485V-0.00111771H147.466V47.396Z" fill="#231F20"/>
<path d="M162.741 13.6389H163.928V7.92713H163.639C162.706 7.92713 162.511 8.23866 162.085 10.1158H161.175V7.06434H168.568V10.1158H167.657C167.232 8.23866 167.036 7.92713 166.105 7.92713H165.815V13.6389H167.002V14.6406H162.741V13.6389Z" fill="#231F20"/>
<path d="M170.529 11.9925H171.542C172.038 13.2825 172.671 13.8696 173.892 13.8696C174.708 13.8696 175.17 13.4664 175.17 12.8672C175.17 12.165 174.398 11.9925 173.247 11.7049C172.003 11.4052 170.598 10.9786 170.598 9.28602C170.598 7.88101 171.785 6.88033 173.259 6.88033C174.087 6.88033 174.802 7.19017 175.191 7.72042L175.435 6.90257H176.448V9.59754H175.435C174.951 8.34239 174.386 7.83607 173.408 7.83607C172.636 7.83607 172.222 8.28549 172.222 8.80193C172.222 9.56287 173.062 9.73543 174.202 10.0121C175.435 10.3106 176.793 10.7149 176.793 12.3609C176.793 13.8007 175.653 14.8252 174.007 14.8252C173.062 14.8252 172.234 14.4341 171.806 13.9038L171.532 14.8025H170.529V11.9925Z" fill="#231F20"/>
<path d="M178.581 13.6389H179.617V8.06487H178.581V7.06434H185.79V9.75931H184.787C184.5 8.31949 184.327 8.04278 183.361 8.04278H181.494V10.3345H182.117C182.761 10.3345 182.819 10.2069 182.98 9.27523H183.879V12.3489H182.98C182.842 11.4051 182.749 11.2674 182.117 11.2674H181.494V13.6628H183.313C184.477 13.6628 184.615 13.2476 184.892 11.6467H185.893V14.6406H178.581V13.6389Z" fill="#231F20"/>
<path d="M189.996 8.87242H189.892V13.6387H190.927V14.6405H187.876V13.6387H188.866V8.0647H187.876V7.06417H191.102L194.315 12.3607H194.418V8.0647H193.381V7.06417H196.434V8.0647H195.443V14.7441H193.555L189.996 8.87242Z" fill="#231F20"/>
<path d="M201.765 14.8252C199.658 14.8252 198.127 13.2136 198.127 10.8648C198.127 8.57308 199.866 6.88033 201.822 6.88033C202.779 6.88033 203.469 7.22498 203.93 7.8241L204.172 6.90257H205.219V9.85047H203.942C203.505 8.46817 202.905 7.8241 202.018 7.8241C200.96 7.8241 200.176 8.69886 200.176 10.784C200.176 12.6832 200.81 13.7888 202.077 13.7888C202.583 13.7888 202.905 13.57 203.137 13.2825C203.39 12.9829 203.505 12.4766 203.505 11.9235V11.7156H202.238V10.7149H206.233V11.7156H205.359V14.7324H204.322L203.885 13.5921C203.517 14.2949 202.883 14.8252 201.765 14.8252Z" fill="#231F20"/>
<path d="M211.08 10.899C211.08 8.53826 212.762 6.88033 214.742 6.88033C215.71 6.88033 216.435 7.21409 216.895 7.77732L217.138 6.90257H218.173V9.91934H217.033C216.573 8.5263 215.929 7.8241 214.972 7.8241C213.89 7.8241 213.13 8.61802 213.13 10.784C213.13 12.8553 213.926 13.742 215.226 13.742C216.366 13.742 217.021 12.8792 217.217 11.6119H218.323C218.127 13.57 217.012 14.8252 214.961 14.8252C212.6 14.8252 211.08 13.2357 211.08 10.899Z" fill="#231F20"/>
<path d="M225.962 10.8528C225.962 8.76773 225.305 7.8241 224.084 7.8241C222.863 7.8241 222.276 8.76773 222.276 10.8528C222.276 12.9481 222.932 13.8816 224.153 13.8816C225.374 13.8816 225.962 12.9481 225.962 10.8528ZM220.227 10.8648C220.227 8.4921 221.92 6.88033 224.118 6.88033C226.376 6.88033 228.009 8.43335 228.009 10.8409C228.009 13.2237 226.318 14.8252 224.118 14.8252C221.862 14.8252 220.227 13.2705 220.227 10.8648Z" fill="#231F20"/>
<path d="M233.933 7.06434V8.04278H232.792V13.6628H234.082C234.992 13.6628 235.188 13.4321 235.682 11.5088H236.591V14.6406H229.879V13.6389H230.915V8.06487H229.879V7.06434H233.933Z" fill="#231F20"/>
<path d="M242.411 7.06434V8.04278H241.27V13.6628H242.561C243.471 13.6628 243.667 13.4321 244.161 11.5088H245.071V14.6406H238.358V13.6389H239.392V8.06487H238.358V7.06434H242.411Z" fill="#231F20"/>
<path d="M246.836 13.6389H247.871V8.06487H246.836V7.06434H254.043V9.75931H253.042C252.754 8.31949 252.582 8.04278 251.614 8.04278H249.747V10.3345H250.371C251.016 10.3345 251.074 10.2069 251.233 9.27523H252.132V12.3489H251.233C251.095 11.4051 251.003 11.2674 250.371 11.2674H249.747V13.6628H251.568C252.732 13.6628 252.87 13.2476 253.145 11.6467H254.148V14.6406H246.836V13.6389Z" fill="#231F20"/>
<path d="M259.861 14.8252C257.754 14.8252 256.223 13.2136 256.223 10.8648C256.223 8.57308 257.962 6.88033 259.918 6.88033C260.874 6.88033 261.565 7.22498 262.026 7.8241L262.268 6.90257H263.316V9.85047H262.038C261.601 8.46817 261.001 7.8241 260.114 7.8241C259.056 7.8241 258.272 8.69886 258.272 10.784C258.272 12.6832 258.906 13.7888 260.173 13.7888C260.679 13.7888 261.001 13.57 261.233 13.2825C261.486 12.9829 261.601 12.4766 261.601 11.9235V11.7156H260.334V10.7149H264.329V11.7156H263.454V14.7324H262.418L261.98 13.5921C261.611 14.2949 260.979 14.8252 259.861 14.8252Z" fill="#231F20"/>
<path d="M265.909 13.6389H266.945V8.06487H265.909V7.06434H273.118V9.75931H272.115C271.828 8.31949 271.657 8.04278 270.689 8.04278H268.822V10.3345H269.445C270.089 10.3345 270.147 10.2069 270.308 9.27523H271.207V12.3489H270.308C270.17 11.4051 270.077 11.2674 269.445 11.2674H268.822V13.6628H270.641C271.805 13.6628 271.943 13.2476 272.22 11.6467H273.221V14.6406H265.909V13.6389Z" fill="#231F20"/>
<path d="M164.849 27.8633C162.741 27.8633 161.395 26.1138 161.395 23.9029C161.395 21.7705 162.879 19.9868 164.849 19.9868C165.712 19.9868 166.484 20.3433 166.967 20.8956L167.186 20.0209H167.785V22.831H167.255C166.795 21.4601 166.011 20.6202 164.895 20.6202C163.421 20.6202 162.5 21.7705 162.5 23.8322C162.5 25.94 163.421 27.1953 164.975 27.1953C165.677 27.1953 166.149 26.8729 166.436 26.4925C166.76 26.1018 166.898 25.4906 166.898 24.8807V24.5812H165.493V23.982H168.903V24.5812H167.877V27.7596H167.314L166.979 26.677C166.53 27.4379 165.758 27.8633 164.849 27.8633Z" fill="#231F20"/>
<path d="M174.155 23.7533C175.409 23.7533 175.859 23.1189 175.859 22.1291C175.859 21.2422 175.409 20.7582 174.303 20.7582H172.796V23.7533H174.155ZM172.796 27.0799H174.063V27.679H170.55V27.0799H171.828V20.7582H170.55V20.171H174.224C176.193 20.171 176.965 21.0457 176.965 22.117C176.965 22.9002 176.492 23.7174 175.156 23.9601V24.0289C176.227 24.2819 176.584 24.8001 176.653 25.6646L176.722 26.6084C176.758 26.9768 176.883 27.1386 177.126 27.1386C177.345 27.1386 177.494 26.9649 177.667 26.5964L178.058 26.7803C177.816 27.4143 177.458 27.8066 176.85 27.8066C176.205 27.8066 175.687 27.5071 175.662 26.4585L175.639 25.549C175.616 24.6851 175.353 24.3058 174.224 24.3058H172.796V27.0799Z" fill="#231F20"/>
<path d="M181.583 24.4312H183.967L182.839 21.2419H182.804L181.583 24.4312ZM184.163 24.9724H181.378L180.582 27.0796H181.595V27.6787H179.074V27.0796H179.879L182.62 20.1119H183.427L185.984 27.0796H186.948V27.6787H183.726V27.0796H184.912L184.163 24.9724Z" fill="#231F20"/>
<path d="M191.57 27.0796C193.598 27.0796 194.484 26.055 194.484 23.8099C194.484 21.8291 193.585 20.7578 191.489 20.7578H190.614V27.0796H191.57ZM188.369 27.0796H189.646V20.7578H188.369V20.1707H191.479C194.231 20.1707 195.59 21.6326 195.59 23.8099C195.59 25.9519 194.358 27.6787 191.548 27.6787H188.369V27.0796Z" fill="#231F20"/>
<path d="M198.61 25.411V20.7579H197.504V20.1707H200.739V20.7579H199.577V25.1563C199.577 26.6081 200.337 27.1833 201.742 27.1833C202.364 27.1833 202.87 26.9766 203.204 26.6422C203.597 26.2515 203.733 25.7453 203.733 24.8807V20.7579H202.572V20.1707H205.46V20.7579H204.402V25.3061C204.402 26.7232 203.411 27.8633 201.454 27.8633C199.543 27.8633 198.61 26.8508 198.61 25.411Z" fill="#231F20"/>
<path d="M208.93 24.4312H211.314L210.185 21.2419H210.151L208.93 24.4312ZM211.51 24.9724H208.723L207.928 27.0796H208.942V27.6787H206.419V27.0796H207.226L209.967 20.1119H210.772L213.329 27.0796H214.295V27.6787H211.073V27.0796H212.259L211.51 24.9724Z" fill="#231F20"/>
<path d="M216.822 27.0796H218.145V20.7117H217.121C216.246 20.7117 216.13 21.0454 215.739 22.7729H215.302V20.1707H221.957V22.7729H221.52C221.129 21.0454 221.014 20.7117 220.127 20.7117H219.113V27.0796H220.437V27.6787H216.822V27.0796Z" fill="#231F20"/>
<path d="M223.999 27.0796H225.276V20.7578H223.999V20.1707H230.425V22.5193H229.976C229.665 21.0454 229.56 20.7578 228.836 20.7578H226.244V23.5565H227.384C228.074 23.5565 228.155 23.4415 228.329 22.4043H228.801V25.2719H228.329C228.18 24.1904 228.074 24.0748 227.384 24.0748H226.244V27.0796H228.812C229.654 27.0796 229.757 26.792 230.079 25.0994H230.528V27.6787H223.999V27.0796Z" fill="#231F20"/>
<path d="M232.536 28.9463C233.364 28.5538 233.676 28.175 233.757 27.7138L233.709 27.691L233.444 27.7598C233.157 27.7598 232.927 27.5172 232.927 27.1955C232.927 26.851 233.18 26.5515 233.548 26.5515C233.998 26.5515 234.274 26.9079 234.274 27.4021C234.274 28.175 233.835 28.7964 232.708 29.3027L232.536 28.9463Z" fill="#231F20"/>
<path d="M239.598 27.0796H240.863V20.7578H239.598V20.1707H243.121V20.7578H241.843V27.0796H243.121V27.6787H239.598V27.0796Z" fill="#231F20"/>
<path d="M247.031 21.3918H246.974V27.0796H248.124V27.6788H245.107V27.0796H246.305V20.7579H245.107V20.1707H247.365L251.396 25.9981H251.453V20.7579H250.29V20.1707H253.272V20.7579H252.132V27.8633H251.499L247.031 21.3918Z" fill="#231F20"/>
<path d="M256.74 27.0796H258.064V20.7117H257.039C256.165 20.7117 256.05 21.0454 255.659 22.7729H255.222V20.1707H261.877V22.7729H261.438C261.049 21.0454 260.932 20.7117 260.046 20.7117H259.032V27.0796H260.355V27.6787H256.74V27.0796Z" fill="#231F20"/>
<path d="M263.919 27.0796H265.196V20.7578H263.919V20.1707H270.344V22.5193H269.894C269.583 21.0454 269.48 20.7578 268.755 20.7578H266.164V23.5565H267.304C267.994 23.5565 268.075 23.4415 268.247 22.4043H268.721V25.2719H268.247C268.098 24.1904 267.994 24.0748 267.304 24.0748H266.164V27.0796H268.73C269.572 27.0796 269.677 26.792 269.999 25.0994H270.447V27.6787H263.919V27.0796Z" fill="#231F20"/>
<path d="M276.231 23.7533C277.485 23.7533 277.935 23.1189 277.935 22.1291C277.935 21.2422 277.485 20.7582 276.381 20.7582H274.872V23.7533H276.231ZM274.872 27.0799H276.139V27.679H272.626V27.0799H273.904V20.7582H272.626V20.171H276.3C278.269 20.171 279.041 21.0457 279.041 22.117C279.041 22.9002 278.568 23.7174 277.232 23.9601V24.0289C278.305 24.2819 278.66 24.8001 278.729 25.6646L278.798 26.6084C278.834 26.9768 278.959 27.1386 279.202 27.1386C279.421 27.1386 279.571 26.9649 279.743 26.5964L280.134 26.7803C279.894 27.4143 279.535 27.8066 278.926 27.8066C278.282 27.8066 277.763 27.5071 277.739 26.4585L277.717 25.549C277.693 24.6851 277.429 24.3058 276.3 24.3058H274.872V27.0799Z" fill="#231F20"/>
<path d="M283.51 21.3918H283.453V27.0796H284.604V27.6788H281.587V27.0796H282.785V20.7579H281.587V20.1707H283.845L287.876 25.9981H287.932V20.7579H286.77V20.1707H289.751V20.7579H288.612V27.8633H287.978L283.51 21.3918Z" fill="#231F20"/>
<path d="M293.635 24.4312H296.017L294.89 21.2419H294.856L293.635 24.4312ZM296.214 24.9724H293.428L292.632 27.0796H293.646V27.6787H291.124V27.0796H291.93L294.671 20.1119H295.477L298.034 27.0796H299.002V27.6787H295.776V27.0796H296.964L296.214 24.9724Z" fill="#231F20"/>
<path d="M301.525 27.0796H302.849V20.7117H301.826C300.95 20.7117 300.835 21.0454 300.444 22.7729H300.007V20.1707H306.662V22.7729H306.225C305.832 21.0454 305.719 20.7117 304.831 20.7117H303.817V27.0796H305.142V27.6787H301.525V27.0796Z" fill="#231F20"/>
<path d="M308.785 27.0796H310.05V20.7578H308.785V20.1707H312.308V20.7578H311.029V27.0796H312.308V27.6787H308.785V27.0796Z" fill="#231F20"/>
<path d="M320.455 23.925C320.455 21.8981 319.533 20.608 318.002 20.608C316.46 20.608 315.549 21.8981 315.549 23.925C315.549 25.952 316.46 27.2534 318.002 27.2534C319.533 27.2534 320.455 25.9742 320.455 23.925ZM314.443 23.925C314.443 21.6675 316.068 19.9969 318.002 19.9969C319.994 19.9969 321.548 21.5984 321.548 23.925C321.548 26.1929 319.936 27.8633 318.002 27.8633C316.011 27.8633 314.443 26.2396 314.443 23.925Z" fill="#231F20"/>
<path d="M325.545 21.3918H325.489V27.0796H326.641V27.6788H323.622V27.0796H324.822V20.7579H323.622V20.1707H325.88L329.911 25.9981H329.968V20.7579H328.805V20.1707H331.788V20.7579H330.649V27.8633H330.014L325.545 21.3918Z" fill="#231F20"/>
<path d="M335.67 24.4312H338.054L336.925 21.2419H336.891L335.67 24.4312ZM338.25 24.9724H335.463L334.669 27.0796H335.683V27.6787H333.16V27.0796H333.966L336.707 20.1119H337.513L340.07 27.0796H341.036V27.6787H337.812V27.0796H338.999L338.25 24.9724Z" fill="#231F20"/>
<path d="M346.048 20.1707V20.7578H344.701V27.0796H346.97C347.649 27.0796 347.764 26.7231 348.189 24.8584H348.639V27.6787H342.456V27.0796H343.734V20.7578H342.456V20.1707H346.048Z" fill="#231F20"/>
<path d="M163.317 37.4693H165.7L164.573 34.2806H164.537L163.317 37.4693ZM165.896 38.0104H163.109L162.315 40.1176H163.329V40.7168H160.807V40.1176H161.612L164.353 33.1512H165.159L167.716 40.1176H168.683V40.7168H165.459V40.1176H166.645L165.896 38.0104Z" fill="#231F20"/>
<path d="M172.049 34.43H171.992V40.1172H173.142V40.7163H170.125V40.1172H171.323V33.7961H170.125V33.2089H172.381L176.412 39.0357H176.469V33.7961H175.308V33.2089H178.29V33.7961H177.15V40.9009H176.517L172.049 34.43Z" fill="#231F20"/>
<path d="M183.278 40.1176C185.304 40.1176 186.191 39.0931 186.191 36.848C186.191 34.8678 185.292 33.7965 183.197 33.7965H182.322V40.1176H183.278ZM180.077 40.1176H181.354V33.7965H180.077V33.2093H183.186C185.937 33.2093 187.296 34.6713 187.296 36.848C187.296 38.99 186.065 40.7168 183.255 40.7168H180.077V40.1176Z" fill="#231F20"/>
<path d="M192.547 40.1174H193.746V33.7962H192.547V33.2091H195.357L197.488 39.0707H197.523L199.698 33.2091H202.451V33.7962H201.207V40.1174H202.451V40.7165H199.215V40.1174H200.229V33.843H200.159L197.523 40.7285H197.109L194.483 33.843H194.414V40.1174H195.495V40.7165H192.547V40.1174Z" fill="#231F20"/>
<path d="M204.444 40.1176H205.709V33.7965H204.444V33.2093H207.967V33.7965H206.689V40.1176H207.967V40.7168H204.444V40.1176Z" fill="#231F20"/>
<path d="M213.131 40.1176C215.159 40.1176 216.045 39.0931 216.045 36.848C216.045 34.8678 215.147 33.7965 213.051 33.7965H212.175V40.1176H213.131ZM209.93 40.1176H211.208V33.7965H209.93V33.2093H213.041C215.792 33.2093 217.15 34.6713 217.15 36.848C217.15 38.99 215.92 40.7168 213.11 40.7168H209.93V40.1176Z" fill="#231F20"/>
<path d="M219.352 36.9506C219.352 34.7397 220.908 33.0249 222.853 33.0249C223.833 33.0249 224.546 33.4036 225.006 33.9339L225.226 33.0591H225.825V35.9039H225.295C224.822 34.4989 224.074 33.6583 222.865 33.6583C221.46 33.6583 220.458 34.7865 220.458 36.8817C220.458 39.0465 221.472 40.2448 222.992 40.2448C224.339 40.2448 225.192 39.2202 225.397 37.7805H226.043C225.825 39.7727 224.604 40.9009 222.831 40.9009C220.757 40.9009 219.352 39.2544 219.352 36.9506Z" fill="#231F20"/>
<path d="M230.042 37.4693H232.424L231.297 34.2806H231.263L230.042 37.4693ZM232.62 38.0104H229.835L229.039 40.1176H230.054V40.7168H227.531V40.1176H228.336L231.077 33.1512H231.884L234.441 40.1176H235.407V40.7168H232.183V40.1176H233.37L232.62 38.0104Z" fill="#231F20"/>
<path d="M240.431 36.7909C241.687 36.7909 242.135 36.157 242.135 35.1672C242.135 34.2804 241.687 33.7963 240.581 33.7963H239.072V36.7909H240.431ZM239.072 40.1175H240.34V40.7166H236.828V40.1175H238.105V33.7963H236.828V33.2091H240.5C242.469 33.2091 243.241 34.0839 243.241 35.1552C243.241 35.9383 242.77 36.755 241.432 36.9976V37.0665C242.504 37.3194 242.86 37.8377 242.929 38.7022L242.998 39.6459C243.034 40.0144 243.159 40.1762 243.403 40.1762C243.621 40.1762 243.771 40.0024 243.943 39.6339L244.334 39.8179C244.093 40.4518 243.735 40.8442 243.126 40.8442C242.481 40.8442 241.963 40.5446 241.94 39.4961L241.917 38.5866C241.892 37.7226 241.629 37.3433 240.5 37.3433H239.072V40.1175Z" fill="#231F20"/>
<path d="M245.766 40.1176H247.043V33.7965H245.766V33.2093H252.191V35.558H251.741C251.43 34.0841 251.327 33.7965 250.602 33.7965H248.011V36.5946H249.151C249.841 36.5946 249.922 36.4795 250.096 35.443H250.568V38.31H250.096C249.945 37.2285 249.841 37.1129 249.151 37.1129H248.011V40.1176H250.577C251.419 40.1176 251.524 39.83 251.846 38.1374H252.295V40.7168H245.766V40.1176Z" fill="#231F20"/>
<path d="M254.473 40.1176H255.751V33.7965H254.473V33.2093H260.9V35.558H260.45C260.139 34.0841 260.035 33.7965 259.311 33.7965H256.718V36.5946H257.858C258.55 36.5946 258.63 36.4795 258.804 35.443H259.275V38.31H258.804C258.654 37.2285 258.55 37.1129 257.858 37.1129H256.718V40.1176H259.286C260.128 40.1176 260.231 39.83 260.553 38.1374H261.002V40.7168H254.473V40.1176Z" fill="#231F20"/>
<path d="M266.787 36.7909C268.041 36.7909 268.491 36.157 268.491 35.1672C268.491 34.2804 268.041 33.7963 266.935 33.7963H265.428V36.7909H266.787ZM265.428 40.1175H266.695V40.7166H263.182V40.1175H264.46V33.7963H263.182V33.2091H266.856C268.825 33.2091 269.597 34.0839 269.597 35.1552C269.597 35.9383 269.124 36.755 267.788 36.9976V37.0665C268.859 37.3194 269.216 37.8377 269.285 38.7022L269.356 39.6459C269.389 40.0144 269.515 40.1762 269.758 40.1762C269.977 40.1762 270.127 40.0024 270.299 39.6339L270.69 39.8179C270.448 40.4518 270.092 40.8442 269.482 40.8442C268.837 40.8442 268.319 40.5446 268.294 39.4961L268.273 38.5866C268.25 37.7226 267.984 37.3433 266.856 37.3433H265.428V40.1175Z" fill="#231F20"/>
<path d="M275.318 40.1176H276.596V33.7965H275.318V33.2093H281.745V35.558H281.295C280.984 34.0841 280.88 33.7965 280.156 33.7965H277.563V36.5946H278.703C279.393 36.5946 279.475 36.4795 279.649 35.443H280.12V38.31H279.649C279.499 37.2285 279.393 37.1129 278.703 37.1129H277.563V40.1176H280.131C280.973 40.1176 281.076 39.83 281.398 38.1374H281.847V40.7168H275.318V40.1176Z" fill="#231F20"/>
<path d="M287.228 40.1176C289.254 40.1176 290.141 39.0931 290.141 36.848C290.141 34.8678 289.242 33.7965 287.147 33.7965H286.273V40.1176H287.228ZM284.027 40.1176H285.305V33.7965H284.027V33.2093H287.136C289.888 33.2093 291.247 34.6713 291.247 36.848C291.247 38.99 290.014 40.7168 287.205 40.7168H284.027V40.1176Z" fill="#231F20"/>
<path d="M294.267 38.4485V33.7961H293.161V33.2089H296.396V33.7961H295.235V38.1939C295.235 39.6457 295.994 40.2208 297.399 40.2208C298.021 40.2208 298.528 40.0141 298.861 39.6798C299.254 39.2891 299.392 38.7829 299.392 37.9183V33.7961H298.229V33.2089H301.119V33.7961H300.059V38.3437C300.059 39.7607 299.07 40.9009 297.111 40.9009C295.2 40.9009 294.267 39.8883 294.267 38.4485Z" fill="#231F20"/>
<path d="M303.042 36.9506C303.042 34.7397 304.598 33.0249 306.544 33.0249C307.523 33.0249 308.236 33.4036 308.698 33.9339L308.917 33.0591H309.515V35.9039H308.984C308.513 34.4989 307.765 33.6583 306.556 33.6583C305.15 33.6583 304.148 34.7865 304.148 36.8817C304.148 39.0465 305.162 40.2448 306.684 40.2448C308.029 40.2448 308.882 39.2202 309.089 37.7805H309.734C309.515 39.7727 308.294 40.9009 306.521 40.9009C304.447 40.9009 303.042 39.2544 303.042 36.9506Z" fill="#231F20"/>
<path d="M313.733 37.4693H316.117L314.989 34.2806H314.954L313.733 37.4693ZM316.313 38.0104H313.526L312.732 40.1176H313.745V40.7168H311.222V40.1176H312.029L314.77 33.1512H315.575L318.132 40.1176H319.1V40.7168H315.876V40.1176H317.062L316.313 38.0104Z" fill="#231F20"/>
<path d="M321.625 40.1176H322.948V33.7504H321.924C321.05 33.7504 320.935 34.0841 320.543 35.8115H320.105V33.2093H326.76V35.8115H326.323C325.93 34.0841 325.817 33.7504 324.93 33.7504H323.916V40.1176H325.24V40.7168H321.625V40.1176Z" fill="#231F20"/>
<path d="M328.883 40.1176H330.148V33.7965H328.883V33.2093H332.406V33.7965H331.128V40.1176H332.406V40.7168H328.883V40.1176Z" fill="#231F20"/>
<path d="M340.554 36.9626C340.554 34.9363 339.632 33.6463 338.102 33.6463C336.559 33.6463 335.647 34.9363 335.647 36.9626C335.647 38.9896 336.559 40.2909 338.102 40.2909C339.632 40.2909 340.554 39.0117 340.554 36.9626ZM334.543 36.9626C334.543 34.7056 336.166 33.0351 338.102 33.0351C340.094 33.0351 341.646 34.6367 341.646 36.9626C341.646 39.2304 340.036 40.9009 338.102 40.9009C336.109 40.9009 334.543 39.2772 334.543 36.9626Z" fill="#231F20"/>
<path d="M345.645 34.43H345.588V40.1172H346.74V40.7163H343.721V40.1172H344.919V33.7961H343.721V33.2089H345.979L350.01 39.0357H350.067V33.7961H348.904V33.2089H351.886V33.7961H350.746V40.9009H350.113L345.645 34.43Z" fill="#231F20"/>
<path d="M138.03 39.0598C138.405 39.0598 138.593 38.8849 138.593 38.5565C138.593 38.251 138.429 38.1 138.065 38.1H137.608V39.0598H138.03ZM137.608 40.221H138.03V40.4906H136.717V40.221H137.139V38.1H136.717V37.8184H138.076C138.886 37.8184 139.12 38.1809 139.12 38.5206C139.12 38.8022 138.91 39.0958 138.358 39.1665V39.2024C138.804 39.2713 138.956 39.4822 138.992 39.7758L139.014 40.0454C139.026 40.1982 139.061 40.245 139.132 40.245C139.202 40.245 139.261 40.1982 139.32 40.0335L139.507 40.1042C139.426 40.3618 139.273 40.5505 139.014 40.5505C138.722 40.5505 138.546 40.3978 138.522 39.9993L138.511 39.7417C138.499 39.4601 138.393 39.3193 138.042 39.3193H137.608V40.221ZM140.176 39.1905C140.176 37.8525 139.308 36.9388 137.959 36.9388C136.635 36.9388 135.756 37.8525 135.756 39.1905C135.756 40.5386 136.635 41.4643 137.959 41.4643C139.308 41.4643 140.176 40.5386 140.176 39.1905ZM135.368 39.1905C135.368 37.7015 136.494 36.6111 137.959 36.6111C139.436 36.6111 140.562 37.7015 140.562 39.1905C140.562 40.6794 139.436 41.792 137.959 41.792C136.494 41.792 135.368 40.6794 135.368 39.1905Z" fill="#D21C2E"/>
</g>
<defs>
<clipPath id="clip0_100_1903">
<rect width="351.88" height="47.3959" fill="white"/>
</clipPath>
</defs>
</svg>
