<svg width="1555" height="383" viewBox="0 0 1555 383" fill="none" xmlns="http://www.w3.org/2000/svg">
<g clip-path="url(#clip0_1226_950)">
<g opacity="0.4">
<path d="M1195.39 361.588C1211.72 377.497 1224.93 391.901 1236.62 405.469C1248.26 419.067 1258.47 431.769 1268.11 444.901C1287.23 471.229 1305.34 498.584 1325.19 539.776C1325.91 541.243 1327.96 540.282 1327.23 538.805C1307.3 497.463 1289.14 470.007 1269.94 443.584C1260.27 430.405 1250.03 417.655 1238.34 404.007C1226.61 390.392 1213.35 375.932 1196.96 359.969C1195.78 358.834 1194.21 360.461 1195.39 361.588Z" fill="#F38828"/>
<path d="M1270.07 385.225C1268.66 400.205 1263.3 414.25 1256.24 428.677C1255.21 411.343 1254.5 396.087 1256.16 381.434C1257.11 372.523 1270.77 376.263 1270.07 385.225Z" fill="#F38828"/>
<path d="M1246.81 371.487C1246.74 383.007 1243.32 394.316 1239 406.931C1236.45 392.576 1234.74 380.926 1235.06 369.461C1235.17 361.907 1246.89 363.781 1246.81 371.487Z" fill="#F38828"/>
<path d="M1182.12 341.076C1189.93 348.2 1196.67 356.35 1201.19 365.283C1192.29 360.215 1184.02 353.967 1176.6 346.85C1172.49 342.851 1177.82 337.117 1182.12 341.076Z" fill="#F38828"/>
<path d="M1225.31 391.447C1223.43 381.11 1220.11 371.268 1218.91 361.433C1217.98 354.891 1227.99 354.785 1229.03 361.516C1229.96 367.426 1229.15 374.881 1227.96 380.906C1226.75 386.939 1225.31 391.447 1225.31 391.447Z" fill="#F38828"/>
<path d="M1208.61 374.796C1206.86 367.566 1204.45 360.449 1203.37 353.525C1202.62 348.868 1209.73 348.598 1210.61 353.332C1212.16 361.734 1208.61 374.796 1208.61 374.796Z" fill="#F38828"/>
<path d="M1225.39 391.37C1215.44 388.292 1205.8 384.704 1196.35 383.467C1189.95 382.75 1189.56 392.164 1195.76 393.299C1201.3 394.299 1208.74 393.695 1214.75 393C1220.74 392.302 1225.39 391.37 1225.39 391.37Z" fill="#F38828"/>
<path d="M1209.98 373.468C1202.63 371.645 1195.78 369.105 1188.88 368.436C1184.26 368.003 1184.17 374.826 1188.7 375.517C1196.72 376.75 1209.98 373.468 1209.98 373.468Z" fill="#F38828"/>
<path d="M1316.27 106.517L1321.04 108.021L1318.62 107.143L1316.27 106.517ZM1247.24 84.7744C1250.04 84.2583 1252.92 83.7404 1255.91 83.9724C1259.45 84.2383 1265.92 85.6253 1269.12 87.131C1277.48 91.1658 1277.33 95.0157 1289.92 98.9119L1297.74 101.019L1306.53 103.566L1308.1 104.03C1303.26 102.347 1298.77 100.058 1295.35 96.6696C1293.11 94.4386 1291.5 91.8136 1289.36 89.5006C1286.71 86.6811 1283.24 84.3272 1279.39 82.7971C1283 83.7954 1286.83 83.7806 1290.39 84.9724C1294.31 86.3272 1297.46 89.0699 1300.1 91.9007C1302.74 94.7751 1305.04 97.8596 1308.05 100.425C1312.13 103.99 1317.3 106.337 1322.49 108.481L1324.02 108.968L1328.11 110.31C1324.64 107.124 1322.11 103.272 1319.69 99.435C1317.09 95.3688 1314.51 91.151 1310.74 87.661C1306.08 83.3194 1299.88 80.3229 1293.51 78.214C1305.95 79.3909 1319.14 86.3472 1325.27 94.5572C1328.15 98.4237 1329.96 102.638 1332.44 106.665C1334.09 109.339 1336.18 111.934 1338.78 113.974L1341.34 114.887C1344.42 116.012 1347.52 117.107 1350.58 118.297C1349.5 117.42 1348.51 116.46 1347.61 115.473C1343.75 111.293 1341.39 106.253 1339.1 101.393C1336.83 96.5223 1334.6 91.4831 1330.87 87.1345C1326.26 81.6882 1319.63 77.5313 1312.65 74.3866C1326.79 77.3046 1340.79 86.818 1346.37 96.7542C1348.99 101.448 1350.31 106.345 1352.44 111.151C1354.27 115.288 1356.96 119.367 1360.84 122.278C1366.27 124.406 1371.64 126.687 1377 128.976C1375.9 127.943 1374.87 126.866 1373.94 125.738C1369.22 119.989 1366.36 113.454 1363.66 106.936C1360.93 100.503 1358.23 93.8275 1353.51 87.9967C1347.68 80.6629 1339.06 75.0457 1329.98 70.6648C1348.5 74.9629 1366.65 88.0551 1373.41 101.344C1376.62 107.529 1378.02 114.135 1380.52 120.415C1382.52 125.632 1385.5 130.799 1389.9 134.801L1392.12 135.838C1397.25 138.233 1402.31 140.794 1407.36 143.356C1404.52 140.721 1401.96 138.098 1400.1 135.631C1394.2 127.968 1390.61 119.334 1387.12 110.812C1383.62 102.313 1380.04 93.6426 1373.88 85.8816C1366.22 76.2654 1354.99 68.6666 1343.14 62.93C1355.08 65.8576 1367.07 71.6613 1377.08 79.0038C1387.12 86.301 1395.12 95.259 1399.53 103.957C1403.64 112.225 1405.43 120.735 1408.5 129.103C1411.11 136.064 1417.25 145.768 1423.67 152.074L1424.7 152.66C1428.3 154.77 1431.97 156.785 1435.52 158.983C1432.54 155.61 1429.9 152.019 1427.86 148.209C1422.41 138.32 1419.99 127.742 1417.63 117.289C1415.25 106.896 1412.81 96.2695 1406.86 86.2348C1399.5 73.7825 1387.06 63.1148 1373.39 54.6084C1387.8 59.8673 1401.61 68.6274 1412.49 78.8975C1423.41 89.1388 1431.33 100.953 1434.71 111.798C1437.87 122.055 1438 132.182 1439.76 142.351C1441.32 151.357 1444.39 160.85 1450.69 168.462C1455.96 171.959 1461.2 175.506 1466.34 179.206C1454.97 167.407 1447.65 152.434 1447.94 139.343C1448.13 132.215 1450.5 125.862 1451.46 119.017C1452.42 112.18 1451.74 104.243 1446.13 96.9922C1456.46 104.292 1463.44 110.241 1466.81 119.942C1468.54 124.981 1467.98 129.744 1467.16 134.19C1465.58 142.497 1463.22 149.603 1463.41 158.533C1463.6 165.929 1468.06 176.7 1473.79 184.69C1477.75 187.579 1481.54 190.697 1485.39 193.717L1486.81 194.9C1483.43 190.719 1480.48 186.218 1478.34 181.415C1475.47 174.964 1474.17 167.865 1475.51 161.574C1476.52 156.887 1478.98 152.801 1480.34 148.235C1481.71 143.647 1481.74 138.149 1478.25 133.583C1482.92 137.749 1487.18 142.61 1489.26 147.984C1493.98 160.537 1486.22 171.911 1487.85 184.312C1488.68 190.65 1491.76 196.773 1495.7 202.398C1510.79 215.45 1524.77 229.768 1537.43 245.122L1536.8 245.676C1529.78 238.039 1522.53 230.638 1515.02 223.51C1507.45 216.443 1499.69 209.603 1491.69 203.05C1486.22 200.881 1480.65 199.651 1475.25 200.492C1463.22 202.311 1454.53 213.07 1442.67 213.62C1437.53 213.911 1432.46 212.255 1427.68 210.251C1432.41 211.153 1437.15 208.77 1440.73 205.786C1444.34 202.785 1447.26 199.022 1451.18 196.37C1456.48 192.756 1463.36 191.512 1470.23 192.305C1474.34 192.742 1478.34 193.99 1482.31 195.602C1478.17 192.48 1474.07 189.329 1469.84 186.342C1461.02 183.824 1450.78 184.057 1444.69 186.746C1436.74 190.209 1431.41 195.489 1424.93 200.692C1421.46 203.498 1417.77 206.161 1413.15 207.322C1404.22 209.595 1397.51 207.227 1388.03 203.818C1395.62 203.701 1401.97 199.961 1407.1 195.496C1412.23 191.043 1416.5 185.767 1422.35 182.085C1432.38 175.714 1447.26 174.967 1461.31 180.334C1456.53 176.991 1451.63 173.832 1446.73 170.681C1437.91 168.887 1429.05 170.674 1421.45 173.694C1412.14 177.405 1403.91 182.86 1394.66 186.382C1384.75 190.191 1372.74 191.552 1360.35 191.021C1347.95 190.457 1335.19 187.896 1323.65 183.128C1336.74 184.97 1350.18 185.403 1362.63 182.135C1372.66 179.501 1381.63 174.52 1390.84 169.953C1400 165.438 1409.76 161.225 1420.83 160.635C1424.29 160.478 1427.92 160.694 1431.52 161.359L1422.66 156.273L1419.54 154.533C1411.23 153.002 1401.36 153.663 1395.12 155.727C1386.9 158.397 1379.49 162.542 1371.28 165.005C1353.71 170.238 1329.11 167.742 1309.75 158.565C1321.02 160.897 1332.7 162.058 1343.74 160.028C1352.62 158.401 1360.73 154.77 1368.96 151.485C1377.19 148.217 1385.87 145.222 1395.41 145.161C1397.73 145.15 1400.43 145.383 1403.27 145.834C1398.98 143.712 1394.73 141.504 1390.39 139.484L1386.32 137.523C1381.22 137.196 1376.18 138.436 1371.78 140.175C1365.55 142.73 1360.09 146.212 1353.78 148.512C1340.37 153.263 1320.74 151.826 1305.15 144.746C1314.09 146.5 1323.39 147.147 1331.92 145.328C1338.83 143.793 1344.94 140.746 1351.19 137.833C1357.39 134.999 1363.96 132.255 1371.3 131.8C1372.11 131.745 1372.93 131.727 1373.75 131.731C1368.34 129.314 1362.89 126.967 1357.42 124.675C1353.45 124.588 1349.57 125.723 1346.2 127.219C1341.5 129.297 1337.33 132.244 1332.51 134.11C1322.21 138.12 1306.8 137.291 1294.53 131.971C1301.53 133.215 1308.79 133.655 1315.41 132.094C1320.76 130.802 1325.44 128.333 1330.2 125.959C1334.96 123.577 1339.91 121.404 1345.58 120.768C1346.23 120.691 1346.9 120.662 1347.57 120.647L1340.25 117.78L1335.98 116.11C1333.39 116.27 1330.84 116.882 1328.51 117.693C1324.13 119.214 1320.15 121.51 1315.66 122.838C1306.09 125.68 1292.29 123.918 1281.73 118.409C1287.91 120.007 1294.4 120.884 1300.48 119.964C1305.39 119.214 1309.82 117.362 1314.3 115.593C1317.95 114.178 1321.73 112.854 1325.8 112.297L1323.19 111.358L1315.59 108.591C1312.24 107.985 1308.89 107.661 1305.64 107.968C1301.72 108.367 1298.12 109.605 1294.42 110.496C1290.7 111.428 1286.68 111.999 1282.78 111.045C1279.23 110.213 1276.11 108.164 1272.59 107.175C1276.57 107.833 1280.63 107.677 1284.34 106.669C1287.33 105.877 1290.07 104.567 1293.16 103.924C1295.89 103.344 1298.72 103.37 1301.58 103.753L1297.51 102.382C1294.23 102.355 1291.38 102.251 1288.35 101.932C1282.3 101.329 1276.18 99.3121 1271.17 96.0279C1268.17 94.0253 1265.59 91.5965 1262.53 89.6575C1258.08 86.7883 1252.61 85.0883 1247.24 84.7744Z" fill="#17638E"/>
<path d="M668.253 340.308C668.253 340.308 668.22 340.344 668.143 340.424C649.369 360.287 633.027 382.373 618.283 405.445C603.58 428.569 590.418 452.663 577.624 476.965L577.616 476.976L577.166 477.838C575.48 481.044 573.835 484.173 572.234 487.215C571.97 487.761 571.692 488.299 571.402 488.816C571.146 489.34 570.882 489.857 570.6 490.351C570.424 490.733 570.23 491.105 570.021 491.472C567.042 497.243 564.21 502.581 561.835 507.464C561.388 508.402 560.956 509.319 560.527 510.225C557.039 517.706 554.984 524.074 553.998 528.564C552.987 533.054 552.866 535.615 552.866 535.615C552.463 535.259 552.071 534.916 551.675 534.574C542.123 525.897 537.616 513.081 535.821 501.827C534.894 496.14 534.568 490.759 534.454 485.894C534.352 481.018 534.414 476.74 534.733 472.624C535.982 456.258 540.756 444.476 542.955 440.416C548.744 429.576 556.182 419.039 564.558 409.233C570.515 418.715 575.671 428.31 577.052 437.869C581.39 426.28 580.21 412.184 574.44 398.434C593.58 378.767 616.023 363.453 634.006 354.32C651.959 345.027 665.186 341.447 666.714 340.951C667.029 340.861 667.392 340.795 667.711 340.671C667.869 340.602 668.011 340.519 668.132 340.413C668.176 340.387 668.22 340.344 668.253 340.308Z" fill="#0CB4AF"/>
<path d="M656.891 394.011C644.888 395.266 629.635 399.949 622.35 406.527C631.119 401.459 643.268 400.476 655.121 400.847C651.806 413.622 648.116 425.943 643.972 437.644C636.321 437.917 629.232 439.784 623.479 443.197C627.989 442.003 633.277 442.247 638.567 443.28C639.593 443.48 640.645 443.71 641.675 443.972C630.913 472.953 616.774 498.037 600.762 511.755C598.849 513.403 595.662 515.553 591.928 517.569C588.191 519.603 583.86 521.579 579.467 523.475C575.066 525.378 570.534 527.284 566.221 529.289C562 531.312 557.9 533.28 554.236 535.038C553.771 535.238 553.328 535.427 552.884 535.62C553.863 525.228 557.974 515.288 562.708 505.715C567.533 496.134 572.633 486.539 577.616 476.977L577.624 476.966C590.419 452.664 603.58 428.57 618.283 405.447C633.027 382.374 649.369 360.288 668.143 340.425C668.22 340.345 668.253 340.309 668.253 340.309C664.923 358.833 661.182 376.796 656.891 394.011Z" fill="#1EB9C1"/>
<path d="M628.812 388.733C630.795 384.239 632.865 379.8 634.142 374.895C635.466 370.049 636.227 364.824 635.299 359.126C635.288 359.046 635.343 358.991 635.426 359.002C635.51 359.013 635.586 359.082 635.597 359.158C636.649 364.922 636.001 370.249 634.775 375.183C633.607 380.178 631.632 384.697 629.758 389.256C629.671 389.457 629.391 389.508 629.129 389.366C628.867 389.224 628.725 388.944 628.809 388.74L628.812 388.733Z" fill="#17638E"/>
<path d="M628.321 389.46C636.164 382.426 645.943 377.314 656.646 374.524C656.697 374.509 656.77 374.545 656.803 374.6C656.835 374.655 656.821 374.709 656.77 374.724C646.231 377.736 636.684 383.03 629.125 390.173C628.965 390.322 628.655 390.286 628.43 390.089C628.204 389.896 628.153 389.613 628.313 389.463L628.321 389.46Z" fill="#17638E"/>
<path d="M639.722 373.869C641.563 371.242 642.793 368.174 643.579 364.885C644.404 361.632 644.757 358.121 644.543 354.424C644.539 354.359 644.59 354.322 644.659 354.337C644.725 354.351 644.783 354.413 644.786 354.475C645.045 358.205 644.732 361.756 643.942 365.049C643.186 368.378 641.992 371.496 640.163 374.185C640.101 374.272 639.952 374.276 639.831 374.192C639.708 374.105 639.657 373.963 639.719 373.872L639.722 373.869Z" fill="#17638E"/>
<path d="M551.592 535.499C552.5 526.079 555.977 517.099 560.055 508.534C564.217 499.976 568.841 491.563 573.27 483.089C582.236 466.184 591.282 449.323 600.914 432.815C610.549 416.314 620.673 400.097 631.741 384.553C642.831 369.038 654.83 354.178 667.958 340.395C667.994 340.351 668.079 340.362 668.141 340.417C668.199 340.475 668.218 340.559 668.177 340.602C655.197 354.505 643.37 369.464 632.452 385.058C621.563 400.683 611.616 416.965 602.167 433.535C592.71 450.109 583.848 467.039 575.055 484.024C570.72 492.524 566.151 501.035 562.136 509.516C558.19 518.012 554.929 526.774 554.164 535.743C554.116 536.227 553.5 536.576 552.786 536.525C552.075 536.474 551.54 536.016 551.592 535.506V535.499Z" fill="#17638E"/>
<path d="M822.606 436.842C816.678 444.185 804.921 456.756 790.991 470.077C784.077 476.782 776.642 483.845 769.646 491.024C762.536 498.33 755.75 505.949 750.608 513.324L751.261 512.36C758.056 502.048 764.581 489.383 771.052 476.961C781.17 457.374 790.906 437.261 802.891 418.707C814.848 400.184 829.211 383.09 847.807 370.264C847.645 383.923 844.852 396.502 840.358 407.563C835.745 418.795 829.526 428.477 822.606 436.842Z" fill="#FE8629"/>
<path d="M757.63 503.435C761.411 498.229 765.231 493.08 769.093 487.979L780.657 472.711C788.353 462.556 795.959 452.372 803.423 442.063C810.772 431.665 818.084 421.226 824.931 410.382C828.333 404.943 831.693 399.456 835.004 393.925C838.198 388.296 841.424 382.686 844.39 376.85C844.433 376.762 844.352 376.598 844.205 376.482C844.062 376.384 843.911 376.365 843.863 376.438C840.229 381.718 836.774 387.128 833.206 392.448L822.687 408.563C815.622 419.268 808.637 430.016 801.387 440.539C794.255 451.156 786.958 461.628 779.632 472.085L768.609 487.749L757.568 503.428C757.511 503.504 757.502 503.566 757.502 503.566C757.502 503.566 757.573 503.508 757.63 503.435Z" fill="#EA6B15"/>
<path d="M800.577 419.78C796.57 428.745 787.979 444.777 777.557 462.031C772.4 470.69 766.912 479.732 761.978 488.614C759.516 493.057 757.194 497.456 755.14 501.724C753.064 506.05 751.206 510.387 749.761 514.426L750.175 513.254C752.378 506.92 754.241 500.075 755.885 493.399C757.553 486.649 759.111 479.75 760.629 472.859C765.376 451.25 769.542 429.396 776.371 408.206C779.783 397.625 783.854 387.251 788.969 377.231C794.099 367.148 800.2 357.673 807.737 348.664C809.577 354.922 810.718 361.126 811.217 367.232C811.563 373.697 811.281 380.028 810.504 386.094C808.95 398.243 805.329 409.468 800.577 419.78Z" fill="#FE8629"/>
<path d="M754.007 502.993C756.33 496.939 758.72 490.895 761.178 484.877L768.539 466.811C773.459 454.768 778.285 442.717 782.952 430.564C787.489 418.335 791.972 406.088 795.869 393.662C797.786 387.44 799.644 381.196 801.439 374.938C803.085 368.632 804.772 362.341 806.125 355.948C806.143 355.85 806.016 355.73 805.836 355.679C805.665 355.628 805.511 355.661 805.475 355.744C803.292 361.879 801.322 368.079 799.206 374.236L793.1 392.774C788.973 405.112 784.923 417.476 780.544 429.734C776.318 442.018 771.889 454.215 767.429 466.407L760.7 484.68L753.962 502.964C753.931 503.055 753.926 503.139 753.926 503.139C753.926 503.139 753.971 503.077 754.007 502.993Z" fill="#EA6B15"/>
<path d="M774.405 409.843C773.574 414.715 772.207 421.625 770.259 429.71C768.334 437.776 765.819 447.022 763.075 456.679C757.635 475.967 751.226 497.1 749.949 513.48L750.045 512.225C750.953 498.591 750.2 484.201 749.594 470.44C748.547 448.743 746.924 427.203 748.019 405.466C748.564 394.605 749.789 383.62 752.109 372.828C754.424 361.996 757.843 351.131 762.768 340.412C766.165 345.634 768.896 351.404 770.974 357.171C773.051 362.939 774.475 368.775 775.332 374.625C776.201 380.374 776.439 386.476 776.227 392.458C776.024 398.403 775.379 404.207 774.405 409.843Z" fill="#FE8629"/>
<path d="M751.074 501.529C751.745 495.165 752.476 488.793 753.274 482.426L755.675 463.276C757.293 450.494 758.827 437.682 760.17 424.845C761.368 411.983 762.506 399.125 763.033 386.233C763.263 379.771 763.428 373.364 763.53 366.952C763.479 360.537 763.467 354.13 763.105 347.726C763.101 347.631 762.944 347.555 762.757 347.562C762.579 347.566 762.438 347.642 762.43 347.733C761.916 354.141 761.631 360.548 761.194 366.956L760.127 386.179C759.354 398.99 758.67 411.808 757.633 424.62C756.754 437.439 755.649 450.25 754.515 463.062L752.777 482.273L751.027 501.492C751.018 501.587 751.035 501.678 751.035 501.678C751.035 501.678 751.061 501.619 751.074 501.529Z" fill="#EA6B15"/>
<path d="M746.552 407.607C747.562 417.107 748.149 434.936 747.737 454.486C747.592 464.241 747.346 474.429 747.429 483.966C747.504 493.47 747.999 502.806 749.114 509.971L748.86 508.719C747.454 502.068 745.64 495.635 743.698 489.136C741.755 482.674 739.712 476.278 737.666 469.95C731.238 450.124 724.482 430.829 720.231 410.656C715.996 390.546 714.178 369.278 718.005 346.515C722.519 350.504 726.487 354.972 729.882 359.687C733.281 364.428 736.101 369.399 738.419 374.758C743.053 385.372 745.52 396.597 746.552 407.607Z" fill="#FE8629"/>
<path d="M747.258 498.752L744.623 480.585L742.113 462.217C740.437 449.937 738.657 437.631 736.703 425.373C734.6 413.136 732.447 400.922 729.708 388.867C728.314 382.849 726.862 376.853 725.352 370.878C723.697 364.947 722.079 359.016 720.145 353.187C720.116 353.096 719.95 353.071 719.776 353.122C719.61 353.176 719.494 353.282 719.511 353.369C720.627 359.428 721.954 365.428 723.141 371.468L726.929 389.529C729.401 401.588 731.965 413.646 734.193 425.78C736.57 437.886 738.736 450.046 740.873 462.206L744.034 480.446L747.179 498.679C747.195 498.774 747.225 498.861 747.245 498.876C747.266 498.894 747.27 498.836 747.258 498.752Z" fill="#EA6B15"/>
<path d="M719.351 412.982C722.612 421.402 727.553 437.611 731.878 455.644C734.092 464.617 736.29 474.03 738.541 482.65C739.667 486.972 740.801 491.077 741.968 494.883C743.168 498.772 744.422 502.396 745.597 505.405L745.026 504.317C741.881 498.423 738.516 492.947 735.177 487.66C731.808 482.457 728.406 477.199 725.017 471.956C714.401 455.786 703.811 440.289 695.261 423.199C690.985 414.656 687.219 405.708 684.252 396.135C681.281 386.53 679.12 376.331 678.23 365.513C688.32 369.963 696.924 376.891 703.786 385.285C710.639 393.596 715.701 403.187 719.351 412.982Z" fill="#FE8629"/>
<path d="M741.303 495.765L734.637 479.992L727.979 463.972C723.513 453.256 718.931 442.537 714.198 431.916C709.329 421.361 704.423 410.842 699.032 400.646C696.309 395.567 693.541 390.52 690.737 385.528C687.805 380.609 684.914 375.682 681.764 370.952C681.714 370.883 681.558 370.909 681.41 371.01C681.274 371.109 681.196 371.243 681.229 371.316C683.688 376.516 686.328 381.591 688.849 386.747L696.618 402.098C701.75 412.363 706.977 422.605 711.907 433.019C716.978 443.367 721.868 453.824 726.72 464.288L733.966 479.999L741.188 495.707C741.225 495.787 741.278 495.86 741.311 495.874C741.34 495.885 741.336 495.838 741.303 495.765Z" fill="#EA6B15"/>
<path d="M468.048 526.536C461.787 520.816 454.009 513.707 446.293 506.928C438.388 500.109 430.877 493.647 425.266 488.64C420.551 484.46 416.003 480.348 412.061 476.244C408.083 472.14 404.454 468.035 401.996 463.829C399.596 459.619 397.884 455.275 397.815 450.894C397.756 448.704 398.12 446.499 398.819 444.297C399.472 442.096 400.551 439.891 402.105 437.693C408.37 429.07 421.082 420.465 422.779 410.877C423.611 404.703 419.807 399.43 414.63 394.678C409.313 389.937 403.156 385.604 399.023 380.804C391.908 372.283 392.243 361.385 399.689 349.604C404.959 341.115 414.304 331.804 415.455 323.108C416.036 319.007 414.984 315.325 413.389 311.843C411.744 308.375 409.726 305.039 408.636 301.367C406.758 294.927 407.246 287.763 409.298 279.834C411.148 272.019 414.153 263.636 417.095 255.14C461.372 337.52 479.424 433.709 468.048 526.536Z" fill="#FE8629"/>
<path d="M468.048 526.536C475.292 522.494 484.55 516.927 493.416 510.803C502.093 504.683 510.7 498.024 516.677 492.399C521.625 487.72 526.409 482.786 530.597 477.547C534.751 472.311 538.047 466.773 540.445 460.937C542.9 455.1 543.839 448.944 543.428 442.918C543.199 439.906 542.646 436.926 541.587 434.058C540.481 431.191 538.957 428.426 536.974 425.828C529.28 415.505 514.269 408.443 509.987 397.928C506.909 391.087 508.852 383.788 511.628 376.122C514.269 368.503 518.275 360.414 519.242 352.613C521.152 338.805 514.044 325.52 500.557 317.912C490.538 312.378 477.704 309.558 470.551 302.845C467.208 299.657 465.589 295.717 464.141 291.642C462.649 287.592 461.503 283.335 459.473 279.525C455.948 272.834 449.367 267.925 441.978 264.007C434.374 260.168 425.548 257.497 417.095 255.14C461.372 337.52 479.424 433.709 468.048 526.536Z" fill="#FF6C8C"/>
<path d="M465.302 404.012C455.952 384.608 435.976 368.965 409.72 361.186C409.628 361.157 409.622 361.084 409.705 361.015C409.789 360.95 409.929 360.92 410.021 360.946C436.609 368.529 457.094 384.062 466.921 403.59C467.052 403.837 466.793 404.132 466.346 404.248C465.898 404.365 465.433 404.259 465.302 404.016V404.012Z" fill="#EA6B15"/>
<path d="M460.943 379.822C459.612 376.325 457.858 372.956 455.461 369.848C453.031 366.745 450.131 363.859 446.817 361.258C440.301 356.018 431.555 352.07 421.826 349.556C421.691 349.52 421.672 349.41 421.784 349.312C421.894 349.214 422.092 349.159 422.226 349.192C442.175 353.962 457.062 365.147 462.58 379.392C462.679 379.643 462.395 379.942 461.944 380.062C461.493 380.182 461.045 380.076 460.947 379.829L460.943 379.822Z" fill="#EA6B15"/>
<path d="M446.686 325.64C443.681 320.437 440.046 315.499 435.455 311.206C430.943 306.908 424.967 303.397 417.235 301.807C417.129 301.785 417.111 301.698 417.196 301.607C417.28 301.52 417.433 301.465 417.539 301.487C425.454 302.972 431.67 306.414 436.39 310.667C441.189 314.913 445.041 319.818 448.239 324.981C448.385 325.21 448.159 325.545 447.73 325.731C447.304 325.913 446.839 325.876 446.693 325.651L446.686 325.64Z" fill="#EA6B15"/>
<path d="M447.024 326.658C447.046 320.061 447.534 313.33 448.833 306.315C450.23 299.267 452.019 292.095 454.628 284.64C454.653 284.567 454.755 284.501 454.853 284.49C454.952 284.483 455.01 284.534 454.988 284.603C452.594 292.026 451.004 299.154 449.826 306.147C448.749 313.1 448.465 319.766 448.662 326.283C448.676 326.556 448.32 326.861 447.865 326.967C447.414 327.073 447.039 326.938 447.028 326.665L447.024 326.658Z" fill="#EE3A65"/>
<path d="M455.504 355.415C456.574 349.383 459.364 343.172 463.122 336.873C466.931 330.553 471.152 324.277 475.506 317.796C475.604 317.651 475.837 317.553 476.03 317.578C476.219 317.6 476.299 317.731 476.208 317.873C471.992 324.371 467.892 330.655 464.25 336.939C460.652 343.197 458.069 349.324 457.153 355.23C457.109 355.506 456.701 355.779 456.247 355.83C455.792 355.885 455.457 355.703 455.504 355.426V355.415Z" fill="#EE3A65"/>
<path d="M460.889 375.484C465.698 360.81 477.147 345.226 493.416 330.759C493.594 330.602 493.896 330.544 494.089 330.624C494.278 330.708 494.293 330.901 494.118 331.057C478.147 345.466 467.037 360.934 462.529 375.44C462.442 375.717 462.002 375.953 461.551 375.968C461.096 375.983 460.801 375.768 460.889 375.491V375.484Z" fill="#EE3A65"/>
<path d="M465.527 403.026C469.944 394.199 476.161 385.161 483.197 376.119C486.78 371.589 490.713 367.03 494.962 362.474C499.102 357.937 503.552 353.403 508.314 348.892C508.397 348.815 508.547 348.782 508.648 348.822C508.747 348.862 508.765 348.957 508.681 349.033C504.006 353.563 499.666 358.108 495.603 362.653C491.452 367.219 487.624 371.774 484.15 376.304C477.329 385.339 471.315 394.355 467.142 403.146C467.011 403.415 466.546 403.608 466.098 403.579C465.651 403.546 465.396 403.303 465.523 403.033L465.527 403.026Z" fill="#EE3A65"/>
<path d="M439.334 304.332C437.726 300.745 434.899 297.674 431.493 295.09C428.036 292.525 423.973 290.437 419.03 289.181C418.946 289.16 418.938 289.083 419.012 289.01C419.085 288.938 419.211 288.898 419.294 288.916C424.313 290.138 428.467 292.198 432.005 294.748C435.499 297.321 438.413 300.392 440.119 304.009C440.174 304.129 440.043 304.3 439.825 304.391C439.61 304.482 439.392 304.456 439.334 304.336V304.332Z" fill="#EA6B15"/>
<path d="M466.044 526.292C477.944 434.073 460.678 338.095 417.038 255.551C417.005 255.485 417.071 255.38 417.187 255.318C417.302 255.256 417.422 255.26 417.456 255.325C462.191 337.396 480.876 433.571 470.056 526.784C469.995 527.42 469.045 527.82 467.935 527.686C466.829 527.548 465.982 526.929 466.044 526.3V526.292Z" fill="#EA6B15"/>
<path d="M7.87773 194.524C3.79079 186.578 1.74987 174.327 0.741051 162.589C-0.265587 150.854 -0.15863 138.891 0.535866 130.089C1.72804 115.247 4.31685 100.642 10.5375 88.9918C16.7494 77.363 26.9296 68.8014 40.3216 67.87C53.5554 66.9785 69.282 73.3896 80.3997 69.3217C94.8547 64.0567 97.1796 42.8003 106.704 29.7451C115.035 18.2509 129.401 13.4662 145.086 17.1193C156.518 19.7536 168.66 26.6778 178.949 26.092C188.637 25.5389 195.483 18.3164 204.221 14.9798C219.487 9.15813 239.188 15.7621 255.942 24.32C231.976 32.5832 209.336 44.1902 187.18 56.4048C165.082 68.7796 143.504 82.0749 122.456 96.1598C101.399 110.23 80.8131 125.024 61.0217 140.827C51.1406 148.744 41.4552 156.92 32.2389 165.605C27.6089 169.924 23.177 174.454 18.9322 179.151C14.7547 183.889 10.731 188.866 7.87773 194.524Z" fill="#FE8629"/>
<path d="M7.87793 194.524C16.6033 192.883 27.0888 194.033 37.4566 195.329C47.9143 196.678 57.8571 198.501 65.6533 199.513C78.4938 201.234 91.0294 202.711 101.659 200.586C112.315 198.461 121.017 192.461 124.367 180.909C127.679 169.564 125.847 153.103 132.764 144.629C141.819 133.571 161.515 140.186 175.718 138.101C188.312 136.202 197.178 126.825 200.526 112.126C202.945 101.388 202.687 87.7358 208.128 79.7455C213.264 72.1991 222.463 71.0748 229.505 66.694C241.897 59.0385 247.715 41.3623 255.942 24.3193C231.977 32.5825 209.336 44.1895 187.18 56.4041C165.082 68.7789 143.504 82.0742 122.456 96.1591C101.399 110.23 80.8133 125.024 61.0219 140.827C51.1408 148.744 41.4554 156.92 32.2391 165.605C27.609 169.924 23.1772 174.454 18.9324 179.152C14.7549 183.889 10.7312 188.866 7.87793 194.524Z" fill="#FF6C8C"/>
<path d="M106.473 105.776C120.963 87.5903 129.892 62.2586 133.09 31.9676C133.101 31.8621 133.19 31.8257 133.288 31.8876C133.386 31.9458 133.456 32.0804 133.446 32.1859C130.552 62.728 121.918 88.4708 107.617 107.093C107.437 107.33 107.034 107.228 106.716 106.867C106.399 106.504 106.289 106.02 106.469 105.78L106.473 105.776Z" fill="#EA6B15"/>
<path d="M128.609 90.8108C140.699 80.0043 147.86 62.2081 149.349 40.2057C149.359 40.0529 149.478 39.9947 149.615 40.0784C149.751 40.1584 149.854 40.344 149.846 40.4932C148.615 62.7757 141.677 80.9903 129.656 92.2262C129.442 92.4227 129.034 92.2663 128.743 91.8769C128.452 91.4876 128.39 91.0146 128.603 90.8145L128.609 90.8108Z" fill="#EA6B15"/>
<path d="M180.683 59.209C185.555 54.8281 190.371 50.3199 194.491 44.7602C198.601 39.2296 202.101 32.6329 203.757 24.2205C203.779 24.1041 203.881 24.0714 203.984 24.1514C204.087 24.2278 204.152 24.3843 204.132 24.5007C202.607 33.1059 199.199 39.9173 195.184 45.648C191.156 51.4043 186.431 56.1053 181.67 60.6607C181.456 60.8609 181.061 60.7044 180.786 60.3042C180.512 59.9076 180.461 59.42 180.675 59.2163L180.683 59.209Z" fill="#EA6B15"/>
<path d="M179.673 59.7877C193.502 56.644 208.797 57.2153 224.082 61.8799C224.156 61.9017 224.229 62.0036 224.246 62.1055C224.263 62.2074 224.219 62.2692 224.146 62.251C208.964 58.0048 193.894 57.8702 180.383 61.3851C180.097 61.4578 179.704 61.1631 179.505 60.7228C179.306 60.2826 179.376 59.8642 179.663 59.7914L179.673 59.7877Z" fill="#EE3A65"/>
<path d="M151.63 76.3648C158.152 75.397 165.425 76.5358 172.677 78.6134C179.979 80.7565 187.305 83.7984 194.548 87.0221C194.709 87.0949 194.856 87.3132 194.876 87.5133C194.897 87.7098 194.785 87.8117 194.626 87.7462C187.406 84.6607 180.11 81.7535 172.904 79.7705C165.738 77.8421 158.621 76.8706 152.315 77.9549C152.016 78.0058 151.618 77.6892 151.426 77.2526C151.234 76.816 151.322 76.4194 151.621 76.3684L151.63 76.3648Z" fill="#EE3A65"/>
<path d="M132.948 89.0049C149.545 87.8587 168.742 94.3827 186.789 107.528C186.985 107.67 187.127 107.954 187.106 108.165C187.085 108.373 186.911 108.427 186.716 108.289C168.793 95.4378 149.843 89.2414 133.594 90.5876C133.283 90.6131 132.885 90.282 132.705 89.8454C132.525 89.4088 132.632 89.034 132.943 89.0049H132.948Z" fill="#EE3A65"/>
<path d="M107.539 105.523C128.876 105.526 152.327 112.792 175.045 126.543C175.144 126.601 175.224 126.739 175.224 126.848C175.225 126.957 175.146 126.997 175.049 126.939C152.388 113.557 129.135 106.723 108.151 107.091C107.829 107.098 107.429 106.752 107.258 106.319C107.087 105.886 107.209 105.53 107.531 105.523H107.539Z" fill="#EE3A65"/>
<path d="M80.6337 149.891C75.7653 147.897 70.8998 146.361 66.1894 145.412C62.4343 144.658 58.7161 144.222 55.1853 144.287C54.964 144.6 54.7214 144.891 54.4642 145.168L54.0127 145.641L53.7832 145.895C57.7691 145.492 62.1426 145.881 66.5761 146.711C71.1965 147.584 75.9758 149.025 80.7818 150.935C90.3459 154.755 100.23 160.552 109.361 168.713C109.52 168.855 109.692 168.869 109.742 168.742C109.792 168.611 109.702 168.389 109.541 168.244C100.336 159.882 90.3293 153.882 80.6337 149.891Z" fill="#EE3A65"/>
<path d="M67.9128 134.662C71.9029 135.296 75.9891 136.682 80.1029 138.37C84.2125 140.069 88.3199 142.063 92.4025 144.29C96.4785 146.52 100.554 148.991 104.593 151.724C108.621 154.471 112.631 157.447 116.466 160.995C116.594 161.115 116.664 161.297 116.622 161.399C116.581 161.504 116.446 161.493 116.319 161.38L116.312 161.373C112.519 157.938 108.53 155.046 104.527 152.389C100.51 149.741 96.4699 147.368 92.4244 145.225C88.3747 143.086 84.307 141.186 80.2603 139.582C76.2225 137.995 72.2058 136.715 68.4168 136.183H68.4005C68.0503 136.132 67.6544 135.754 67.5167 135.336C67.3788 134.913 67.5515 134.611 67.9018 134.659L67.9128 134.662Z" fill="#EE3A65"/>
<path d="M29.9275 165.464C33.6229 163.51 38.3408 163.135 43.2795 163.779C48.1945 164.379 53.3592 165.918 58.4774 167.763C68.6719 171.46 78.9593 176.277 89.0434 181.957C89.1826 182.037 89.2992 182.208 89.3036 182.343C89.3083 182.478 89.2007 182.521 89.0631 182.448C79.0157 176.918 68.7834 172.264 58.6714 168.735C53.5935 166.966 48.529 165.54 43.7547 165.023C38.9538 164.467 34.4699 164.922 31.009 166.839C30.7504 166.981 30.2963 166.788 29.9948 166.41C29.6935 166.035 29.6604 165.613 29.9202 165.467L29.9275 165.464Z" fill="#EE3A65"/>
<path d="M75.9475 128.453C84.2235 129.446 93.3389 133.51 101.873 139.856C101.974 139.929 102.042 140.067 102.024 140.161C102.007 140.252 101.914 140.267 101.815 140.198C93.2969 134.194 84.385 130.596 76.4792 129.988C76.1386 129.963 75.7376 129.595 75.5841 129.169C75.4308 128.747 75.5831 128.423 75.9241 128.449L75.9475 128.453Z" fill="#EE3A65"/>
<path d="M84.5684 120.333C87.7389 116.142 90.6352 111.615 93.3372 106.841C96.0459 102.079 98.5811 97.1044 100.915 91.8867C103.266 86.7017 105.393 81.2257 107.203 75.4695C108.986 69.6842 110.466 63.5605 111.13 56.8619C111.136 56.7819 111.204 56.7528 111.282 56.8001C111.359 56.8474 111.416 56.9529 111.41 57.0329C110.832 63.8152 109.428 70.0226 107.725 75.8989C105.995 81.7461 103.943 87.3058 101.67 92.5853C99.4092 97.8867 96.954 102.966 94.3152 107.817C91.6871 112.692 88.8617 117.313 85.7432 121.625C85.5679 121.865 85.161 121.774 84.8341 121.417C84.5072 121.065 84.3847 120.584 84.5606 120.344L84.563 120.34L84.5684 120.333Z" fill="#EA6B15"/>
<path d="M202.304 47.735C205.956 45.5301 209.117 42.4227 211.744 38.5404C214.387 34.6871 216.583 30.1571 218.145 24.914C218.172 24.8266 218.26 24.8121 218.341 24.8885C218.422 24.9613 218.466 25.0923 218.44 25.1796C216.913 30.4992 214.757 35.1129 212.137 39.0425C209.536 43.0158 206.392 46.2068 202.728 48.51C202.605 48.5828 202.41 48.4737 202.292 48.259C202.173 48.048 202.177 47.8115 202.301 47.7387L202.304 47.735Z" fill="#EA6B15"/>
<path d="M6.0269 193.532C9.00462 187.714 13.1927 182.594 17.4317 177.85C21.7525 173.123 26.2447 168.589 30.921 164.278C40.2332 155.607 49.9851 147.475 59.9271 139.605C79.8365 123.897 100.513 109.23 121.653 95.2834C142.782 81.3259 164.435 68.1616 186.596 55.9142C208.82 43.8342 231.516 32.3545 255.523 24.2078C255.599 24.1823 255.695 24.2624 255.738 24.3934C255.781 24.5207 255.755 24.648 255.679 24.6772C231.834 33.0968 209.321 44.8311 187.288 57.1586C165.318 69.6498 143.868 83.0542 122.958 97.2373C102.04 111.406 81.5951 126.291 61.9754 142.166C52.181 150.113 42.5877 158.314 33.4913 166.996C28.9209 171.315 24.5589 175.83 20.4032 180.488C16.2955 185.207 12.4527 190.031 9.72749 195.522C9.4259 196.115 8.34431 196.17 7.31221 195.642C6.27829 195.115 5.70057 194.172 6.0229 193.539L6.0269 193.532Z" fill="#EA6B15"/>
<path d="M887.909 344.716C900.883 373.774 912.184 413.918 914.642 455.14C916.003 475.708 915.156 496.415 912.564 515.707C909.992 535.01 905.731 552.89 900.873 568.128C900.551 569.223 902.39 569.835 902.723 568.725C907.612 553.388 911.899 535.396 914.486 515.973C917.094 496.561 917.952 475.73 916.58 455.038C914.112 413.569 902.743 373.18 889.686 343.938C889.239 342.882 887.467 343.668 887.909 344.716Z" fill="#EAA7AC"/>
<path d="M863.758 346.973C866.441 349.316 868.95 351.859 871.749 354.29C874.513 356.739 877.541 359.1 880.6 361.385C886.505 366.043 893.376 370.089 900.654 372.967C898.822 369.575 896.313 366.512 893.758 363.641C891.101 360.806 888.423 358.147 885.12 355.978C878.6 351.605 871.673 348.352 863.758 346.973Z" fill="#EAA7AC"/>
<path d="M903.584 381.999C898.287 379.318 891.642 377.236 884.869 375.97C877.922 374.751 870.858 374.34 864.841 374.667C874.776 379.652 891.09 382.818 903.584 381.999Z" fill="#EAA7AC"/>
<path d="M939.537 381.721C937.822 390.265 935.232 397.833 930.666 404.917C926.206 411.976 920.584 418.398 912.72 424.551C914.665 420.122 916.268 416.08 917.995 412.282C919.737 408.479 921.586 404.924 923.685 401.504C927.724 394.693 932.557 388.485 939.537 381.721Z" fill="#EAA7AC"/>
<path d="M908.341 325.982C908.943 329.944 909.061 334.139 909.087 338.276C909.076 342.424 908.938 346.529 908.357 350.578C906.989 358.765 904.711 366.424 900.382 373.054C900.074 369.175 899.739 365.347 899.93 361.396C900.022 357.481 900.67 353.42 901.194 349.509C902.336 341.657 905.071 333.539 908.341 325.982Z" fill="#EAA7AC"/>
<path d="M902.948 382.184C905.883 377.111 907.933 371.875 910.815 366.854C913.551 361.88 917.208 357.063 923.663 352.711C920.278 364.656 913.787 376.354 902.948 382.184Z" fill="#EAA7AC"/>
<path d="M908.689 400.2C911.408 393.713 914.357 387.316 917.56 381.222C920.731 375.138 924.555 369.24 929.628 363.56C928.411 371.354 926.388 379.195 922.648 385.802C918.993 392.399 914.284 397.58 908.689 400.2Z" fill="#EAA7AC"/>
<path d="M870.776 310.756C872.137 318.666 875.914 326.486 879.847 333.978C883.902 340.84 888.158 347.378 892.963 353.422C890.78 345.734 888.591 338.508 884.955 331.601C881.658 324.535 876.827 317.866 870.776 310.756Z" fill="#EAA7AC"/>
<path d="M1019.92 489.832C1014.49 489.992 1009.05 489.613 1003.65 488.842L990.086 542.726L984.802 541.335L1001.11 480.597C1001.78 478.138 1002.46 475.681 1003.13 473.222C996.615 470.169 990.354 466.581 984.566 462.335C979.473 458.584 974.622 454.367 971.055 449.178C966.268 442.159 963.836 433.834 961.775 425.451C971.808 434.049 982.083 442.483 990.527 452.453C995.69 458.591 1000.23 465.388 1003.3 472.614C1004.75 467.331 1006.23 462.051 1007.73 456.783C1000.27 452.7 993.163 447.985 986.672 442.505C980.973 437.717 975.784 432.313 972.057 425.884C970.806 423.716 969.74 421.456 968.821 419.127C967.927 416.791 967.193 414.379 966.555 411.923C965.311 407.004 964.328 401.953 963.651 396.819C968.993 402.485 974.546 408.019 979.785 413.724C985.051 419.426 989.997 425.266 994.541 431.458C997.426 435.428 1000.07 439.576 1002.36 443.848C1004.54 447.872 1006.41 452.02 1007.88 456.244C1009.88 449.247 1011.91 442.258 1014.06 435.301C1005.68 430.065 997.905 424.105 990.878 417.206C987.833 414.212 984.917 411.042 982.281 407.644C979.677 404.245 977.424 400.6 975.618 396.674C973.173 391.372 971.642 385.693 970.793 379.762C969.893 373.842 969.446 367.744 969.344 361.569C972.069 365.215 974.775 368.828 977.539 372.412C980.322 375.992 983.085 379.566 985.785 383.157C988.478 386.748 991.095 390.354 993.597 394.003C996.143 397.653 998.613 401.349 1000.89 405.119C1006.57 414.576 1011.4 424.622 1014.2 434.86C1015.7 429.967 1017.26 425.087 1018.86 420.226C1019.64 417.894 1020.42 415.565 1021.22 413.24C1012.18 406.72 1003.6 399.323 996.354 390.852C990.074 383.51 984.259 375.359 981.158 365.902C980.085 362.715 979.281 359.422 978.688 356.056C978.101 352.691 977.896 349.224 977.75 345.716C977.635 342.205 977.628 338.642 977.788 335.047C978.024 331.445 978.356 327.811 978.707 324.169C981.234 328.782 983.806 333.327 986.378 337.824C988.918 342.321 991.682 346.771 994.248 351.21C996.845 355.649 999.36 360.077 1001.76 364.513C1004.26 368.955 1006.64 373.416 1008.82 377.921C1010.23 380.81 1011.5 383.709 1012.79 386.65C1014.08 389.586 1015.27 392.544 1016.35 395.509C1017.43 398.479 1018.36 401.444 1019.22 404.427C1020.05 407.251 1020.75 410.075 1021.34 412.895C1023.78 405.814 1026.36 398.784 1029.1 391.82C1021.5 385.573 1014.54 378.547 1008.56 370.574C1005.95 367.136 1003.58 363.53 1001.6 359.706C999.602 355.882 997.943 351.843 996.807 347.557C995.996 344.661 995.601 341.699 995.364 338.679C995.128 335.659 995.09 332.581 995.186 329.47C995.243 327.912 995.281 326.344 995.447 324.776C995.607 323.204 995.805 321.629 996.015 320.046C996.449 316.884 996.954 313.7 997.477 310.513C999.404 314.759 1001.38 318.94 1003.35 323.08C1005.35 327.225 1007.22 331.304 1009.28 335.4C1011.3 339.494 1013.25 343.566 1015.09 347.637C1016.92 351.705 1018.64 355.769 1020.35 359.895C1022.51 365.175 1024.31 370.501 1025.82 375.851C1027.38 381.13 1028.53 386.406 1029.17 391.631C1031.9 384.71 1034.81 377.859 1037.9 371.095C1031.91 365.247 1026.4 358.76 1022.07 351.607C1020.13 348.452 1018.35 345.148 1016.88 341.681C1016.14 339.948 1015.49 338.173 1014.93 336.354C1014.37 334.542 1013.99 332.697 1013.7 330.805C1012.94 325.701 1012.96 320.388 1013.64 315.036C1014.42 309.705 1015.68 304.288 1017 298.88C1019.73 306.507 1022.64 313.94 1025.34 321.265C1028.1 328.6 1030.93 335.935 1033.01 343.227C1034.38 347.906 1035.73 352.713 1036.59 357.429C1037.05 359.794 1037.38 362.137 1037.68 364.487C1037.95 366.437 1038.13 368.369 1038.25 370.294C1039.56 367.453 1040.89 364.625 1042.26 361.817C1050.89 344.232 1061.05 327.349 1073.14 311.932C1073.77 309.869 1074.68 307.54 1075.71 305.23C1076.39 303.578 1077.32 302.09 1078.16 300.659C1079.02 299.24 1079.86 297.945 1080.63 296.879C1081.84 295.213 1083.01 293.808 1084.19 292.557C1085.35 291.301 1086.67 290.33 1087.94 289.325C1090.51 287.35 1093.22 285.534 1096.39 282.987C1094.91 288.208 1093.55 293.379 1090.73 297.633C1088.81 300.965 1086.13 303.705 1083.22 306.183C1081.48 307.588 1079.82 309.054 1078.05 310.419C1076.83 311.361 1075.55 312.249 1074.25 313.118C1071.98 316.123 1069.75 319.173 1067.62 322.28C1070.9 319.991 1074.52 318.22 1078.42 317.142C1082.27 316.003 1086.16 315.312 1090.05 314.93C1094.07 314.657 1098.04 314.665 1101.92 314.752C1100.05 316.164 1098.15 317.593 1096.11 318.856C1094.08 320.126 1092.09 321.414 1089.76 322.254C1086.35 323.553 1082.42 323.987 1078.58 324.307C1074.54 324.663 1070.38 324.674 1066.16 324.441C1063.43 328.52 1060.8 332.672 1058.29 336.896C1062.86 333.825 1067.85 331.511 1073.26 330.259C1075.72 329.644 1078.2 329.183 1080.67 328.844C1083.15 328.513 1085.58 328.258 1088.16 328.237C1093.23 328.131 1098.25 328.396 1103.12 328.793C1100.76 330.376 1098.35 331.991 1095.75 333.41C1095.11 333.767 1094.44 334.105 1093.77 334.437C1093.13 334.797 1092.48 335.139 1091.81 335.462C1090.47 336.114 1089.06 336.682 1087.57 337.151C1083.2 338.544 1078.16 338.901 1073.32 339.192C1068.06 339.447 1062.65 339.279 1057.18 338.81C1054.66 343.143 1052.24 347.542 1049.94 352C1052.34 350.373 1054.91 348.958 1057.51 347.714C1059.3 346.866 1061.12 346.113 1062.96 345.439C1064.86 344.81 1066.79 344.275 1068.71 343.82C1071.71 343.107 1074.73 342.59 1077.75 342.223C1079.26 342.041 1080.77 341.895 1082.28 341.783C1083.82 341.703 1085.37 341.67 1086.91 341.655C1093.07 341.615 1099.15 342.045 1105.07 342.652C1102.24 344.442 1099.34 346.291 1096.2 347.913C1095.42 348.317 1094.62 348.711 1093.8 349.085C1093.01 349.486 1092.22 349.886 1091.4 350.253C1089.76 350.996 1088.05 351.651 1086.23 352.182C1083.55 352.971 1080.69 353.481 1077.73 353.815C1074.84 354.205 1071.86 354.423 1068.85 354.543C1062.35 354.812 1055.6 354.561 1048.91 353.997C1047.32 357.145 1045.75 360.306 1044.25 363.501C1043.39 365.324 1042.57 367.154 1041.74 368.988C1042.48 368.464 1043.23 367.94 1044 367.449C1045.98 366.205 1048.08 365.099 1050.2 364.083C1054.46 362.075 1058.78 360.408 1063.35 359.288C1070.5 357.567 1077.61 356.65 1084.87 356.486C1092.18 356.366 1099.41 356.817 1106.44 357.494C1103.13 359.553 1099.73 361.686 1096.04 363.585C1092.42 365.564 1088.65 367.445 1084.33 368.712C1082.74 369.192 1081.06 369.566 1079.41 369.93C1077.76 370.302 1076.07 370.607 1074.36 370.858C1070.92 371.364 1067.36 371.655 1063.76 371.848C1056.06 372.223 1048.36 372.19 1040.54 371.677C1037.86 377.771 1035.35 383.939 1032.97 390.161C1036.37 387.621 1039.98 385.365 1043.72 383.415C1048.56 380.959 1053.71 379.052 1058.85 377.568C1062.84 376.385 1067 375.559 1071.17 374.952C1075.33 374.337 1079.5 373.933 1083.66 373.689C1087.79 373.409 1092.07 373.478 1096.25 373.58C1100.43 373.7 1104.59 373.937 1108.69 374.242C1106.8 375.432 1104.88 376.643 1102.9 377.834C1101.9 378.427 1100.89 379.02 1099.89 379.606C1098.88 380.22 1097.87 380.828 1096.87 381.436C1094.82 382.64 1092.69 383.782 1090.45 384.816C1088.2 385.853 1085.82 386.763 1083.41 387.643C1079.79 388.898 1075.93 389.797 1071.93 390.459C1067.9 391.111 1063.77 391.554 1059.68 391.933C1050.69 392.715 1041.42 392.81 1032.11 392.377C1029.75 398.668 1027.52 405.021 1025.4 411.41C1026.82 410.282 1028.26 409.187 1029.74 408.153C1032.27 406.418 1034.94 404.842 1037.65 403.384C1040.36 401.928 1043.14 400.603 1045.96 399.41C1048.78 398.213 1051.73 397.212 1054.66 396.306C1059.24 394.898 1063.87 393.785 1068.54 392.897C1073.27 392.078 1078.03 391.507 1082.79 391.111C1087.56 390.739 1092.25 390.444 1097.06 390.467C1101.85 390.467 1106.61 390.605 1111.32 390.823C1109.14 392.213 1106.95 393.61 1104.78 394.997C1102.59 396.452 1100.38 397.962 1098.05 399.363C1095.74 400.789 1093.28 402.073 1090.78 403.384C1088.3 404.694 1085.67 405.883 1082.89 406.905C1074.58 409.875 1065.4 411.57 1055.96 412.56C1045.61 413.648 1035.18 414.092 1024.59 413.811C1023.74 416.446 1022.89 419.087 1022.07 421.733C1020.87 425.546 1019.74 429.377 1018.61 433.209C1026.11 427.372 1034.76 422.886 1043.86 419.801C1047.92 418.414 1052.01 417.246 1056.17 416.289C1060.37 415.361 1064.6 414.619 1068.85 414.019C1073.09 413.422 1077.35 412.96 1081.61 412.589C1085.88 412.247 1090.19 412.05 1094.44 411.879C1090.54 414.739 1086.72 417.941 1082.56 420.838C1078.36 423.69 1073.98 426.448 1069.02 428.558C1065.36 430.123 1061.42 431.287 1057.39 432.233C1053.38 433.198 1049.24 433.893 1045.07 434.442C1036.13 435.621 1026.94 436.047 1017.8 435.876C1015.98 442.116 1014.24 448.381 1012.53 454.661C1015.21 452.678 1018.03 450.867 1020.98 449.247C1025.22 446.944 1029.68 445.005 1034.21 443.411C1041.28 440.897 1048.69 439.249 1056.14 438.001C1063.59 436.767 1071.1 435.912 1078.64 435.304C1075.17 438.091 1071.79 441.177 1068.08 443.884C1066.23 445.252 1064.31 446.547 1062.31 447.756C1060.33 448.985 1058.26 450.11 1056.07 451.085C1049.6 453.985 1042.28 455.415 1035 456.383C1027.37 457.369 1019.59 457.645 1011.8 457.387C1010.57 462.001 1009.34 466.621 1008.15 471.25C1013.78 467.513 1020.06 464.606 1026.61 462.546C1038.95 458.62 1052.01 457.216 1064.99 456.117C1058.85 461.124 1052.67 466.552 1044.97 469.722C1039.28 472.094 1033.03 473.229 1026.74 473.807C1020.36 474.408 1013.89 474.397 1007.45 473.942C1006.76 476.617 1006.07 479.287 1005.39 481.962L1004.14 486.925C1009.21 483.966 1014.82 481.794 1020.55 480.313C1031.09 477.621 1042.09 477.039 1052.98 476.515C1047.56 480.684 1041.98 484.909 1035.38 487.31C1030.49 489.068 1025.18 489.672 1019.92 489.832Z" fill="#17638E"/>
<path d="M1067.13 308.43C1066.65 313.665 1065.93 319.058 1064.19 323.908C1062.24 319.702 1060.73 315.241 1059.82 310.558C1059.07 306.567 1058.9 302.488 1059.68 298.38C1060.25 295.637 1061.15 292.897 1062.49 290.372C1063.84 287.846 1065.41 285.386 1066.98 282.952C1067.06 287.297 1067.21 291.579 1067.23 295.771C1067.39 300.061 1067.45 304.296 1067.13 308.43Z" fill="#17638E"/>
<path d="M1054.77 310.273C1055.15 312.944 1055.45 315.596 1055.66 318.234C1056.05 324.929 1056.24 331.883 1054.97 338.225C1051.71 333.316 1048.96 328.015 1046.94 322.313C1045.13 317.39 1044.14 312.303 1044.39 306.969C1044.48 305.172 1044.72 303.378 1045.06 301.592C1045.24 300.696 1045.45 299.805 1045.68 298.914C1045.93 298.04 1046.24 297.174 1046.54 296.304C1047.79 292.834 1049.35 289.392 1050.93 285.968C1051.79 291.335 1052.65 296.72 1053.54 302.246C1053.94 304.881 1054.35 307.548 1054.77 310.273Z" fill="#17638E"/>
<path d="M1042.32 319.59C1043.13 322.784 1043.87 325.968 1044.46 329.141C1044.86 331.175 1045.18 333.205 1045.46 335.236C1045.79 337.295 1046.06 339.347 1046.25 341.388C1046.67 345.478 1046.7 349.469 1046.48 353.425C1041.75 347.898 1037.75 341.916 1034.51 335.301C1033.13 332.47 1031.88 329.523 1030.93 326.467C1030.05 323.439 1029.44 320.296 1029.25 317.05C1029.12 314.856 1029.17 312.644 1029.37 310.421C1029.48 309.311 1029.6 308.19 1029.78 307.08C1029.99 305.978 1030.23 304.875 1030.49 303.773C1031.56 299.352 1033.02 294.913 1034.52 290.489C1036.24 297.129 1038.11 303.623 1039.8 310.009C1040.63 313.153 1041.46 316.337 1042.32 319.59Z" fill="#17638E"/>
<path d="M1223.84 502.739C1213.33 521.401 1195.88 534.86 1171.44 536.043C1144.41 537.356 1124.42 521.649 1114.41 496.499C1098.11 525.582 1051.25 514.994 1038.08 488.028C1031.37 474.282 1030.58 458.352 1031.97 443.11C1032.44 437.914 1033.17 432.708 1034.29 427.606C1037.08 445.072 1046.11 459.848 1064.12 470.174C1065.93 471.211 1067.96 471.888 1070.05 471.873C1077.61 471.818 1078.61 464.672 1075.98 460.248C1074.18 457.21 1071.07 455.198 1067.99 453.48C1058.77 448.353 1048.24 444.486 1041.94 436.026C1038.52 431.423 1036.83 425.722 1036.49 419.445C1037.56 416.156 1038.83 412.939 1040.36 409.832C1044.59 401.282 1050.65 393.797 1056.66 386.389C1062.34 379.377 1068.04 372.363 1074.2 365.769C1073.46 375.896 1076 385.221 1078.31 389.758C1081.11 395.22 1084.61 400.91 1089.16 404.847C1094.04 409.053 1101.04 402.868 1097.3 397.625C1097.28 397.592 1097.25 397.555 1097.23 397.519C1091.34 389.464 1083.04 385.959 1082.44 374.92C1082.17 370.15 1082.22 365.274 1083.65 360.715C1086.7 350.968 1097.74 343.541 1104.21 336.027C1112.38 326.531 1118.98 315.015 1119.64 302.506C1119.54 304.456 1123.77 309.117 1124.9 310.758C1126.96 313.781 1129.13 316.732 1131.39 319.614C1135.87 325.349 1140.71 330.803 1145.75 336.053C1154.62 345.291 1166.46 353.802 1172.94 364.976C1174.76 368.112 1176.32 371.485 1176.72 375.087C1177.91 385.898 1164.3 391.458 1158.88 399.476C1157.12 402.082 1155.72 405.415 1157.87 408.304C1158.9 409.683 1160.53 410.491 1162.24 410.691C1165.85 411.12 1169.05 409.206 1171.74 406.972C1181.01 399.247 1185.91 387.251 1187.45 375.273C1187.47 375.102 1187.48 374.935 1187.5 374.767C1192.4 379.21 1197.25 383.707 1201.96 388.336C1209.8 396.042 1217.04 403.876 1221.46 413.98C1226.7 425.947 1226.78 439.333 1221.24 451.283C1218.23 457.792 1209.66 461.958 1203.4 464.687C1199.06 466.575 1194.33 468.133 1191.72 472.419C1190.54 474.369 1190.14 476.763 1190.98 478.885C1192.66 483.105 1197.41 483.433 1201.21 482.392C1207.53 480.657 1212.61 476.054 1217.16 471.335C1224.42 463.803 1231.05 455.412 1235.19 445.85C1235.24 446.258 1235.32 446.658 1235.37 447.069C1237.54 466.171 1233.29 485.951 1223.84 502.739Z" fill="#E83888"/>
<path d="M366.453 519.077C372.715 518.633 378.931 517.567 385.045 516.057L406.895 576.468L412.812 574.256L387.017 506.276C385.965 503.522 384.895 500.775 383.835 498.024C390.981 493.752 397.765 488.902 403.931 483.346C409.357 478.441 414.452 473.027 417.954 466.645C422.65 458.014 424.474 448.157 425.882 438.272C415.332 449.325 404.488 460.223 395.932 472.671C390.701 480.33 386.257 488.676 383.573 497.344C381.294 491.431 378.983 485.533 376.645 479.642C384.757 474.082 392.384 467.835 399.21 460.776C405.213 454.612 410.555 447.794 414.1 439.967C415.29 437.322 416.253 434.6 417.044 431.817C417.801 429.022 418.361 426.162 418.813 423.266C419.674 417.463 420.215 411.539 420.402 405.554C414.92 412.689 409.168 419.7 403.796 426.868C398.406 434.036 393.39 441.332 388.883 448.98C386.022 453.885 383.46 458.96 381.324 464.142C379.282 469.021 377.603 474.013 376.407 479.042C373.299 471.222 370.148 463.421 366.876 455.664C375.899 448.671 384.163 440.913 391.44 432.162C394.598 428.364 397.591 424.38 400.223 420.166C402.826 415.953 404.993 411.499 406.619 406.773C408.815 400.391 409.926 393.677 410.207 386.757C410.556 379.847 410.364 372.777 409.769 365.66C407.06 370.172 404.359 374.64 401.604 379.083C398.81 383.526 396.043 387.958 393.361 392.4C390.679 396.843 388.083 401.297 385.628 405.783C383.124 410.276 380.712 414.814 378.526 419.417C373.091 430.954 368.701 443.067 366.664 455.173C364.36 449.722 362.01 444.286 359.596 438.883C358.44 436.285 357.266 433.698 356.077 431.115C365.721 422.568 374.729 413.064 382.09 402.479C388.468 393.303 394.209 383.253 396.682 372.013C397.55 368.222 398.091 364.343 398.382 360.403C398.668 356.462 398.503 352.449 398.264 348.395C397.988 344.342 397.586 340.249 396.985 336.13C396.291 332.011 395.491 327.867 394.666 323.719C392.295 329.322 389.858 334.849 387.427 340.318C385.021 345.787 382.357 351.223 379.922 356.63C377.45 362.04 375.068 367.422 372.819 372.803C370.458 378.206 368.247 383.613 366.254 389.045C364.959 392.535 363.834 396.021 362.692 399.55C361.55 403.079 360.524 406.62 359.632 410.153C358.731 413.693 358.005 417.215 357.36 420.748C356.726 424.088 356.244 427.418 355.904 430.732C352.281 422.87 348.494 415.083 344.53 407.384C352.547 399.321 359.741 390.428 365.706 380.564C368.309 376.307 370.609 371.886 372.447 367.258C374.305 362.626 375.743 357.783 376.554 352.722C377.146 349.301 377.262 345.845 377.183 342.345C377.102 338.841 376.793 335.297 376.325 331.727C376.077 329.944 375.851 328.143 375.481 326.357C375.108 324.57 374.702 322.78 374.273 320.986C373.416 317.395 372.465 313.793 371.493 310.187C369.766 315.292 367.976 320.335 366.188 325.323C364.372 330.323 362.692 335.235 360.79 340.187C358.947 345.128 357.173 350.036 355.529 354.934C353.9 359.828 352.389 364.7 350.897 369.648C349.028 375.972 347.577 382.307 346.454 388.638C345.276 394.893 344.566 401.093 344.425 407.176C340.484 399.532 336.35 391.989 332.013 384.563C338.22 377.144 343.81 369.044 347.966 360.312C349.824 356.459 351.487 352.452 352.778 348.29C353.424 346.212 353.976 344.095 354.414 341.937C354.839 339.787 355.058 337.622 355.183 335.409C355.461 329.45 354.824 323.34 353.425 317.26C351.907 311.217 349.832 305.137 347.686 299.064C345.429 308.157 342.94 317.046 340.681 325.785C338.356 334.544 335.959 343.309 334.397 351.939C333.368 357.481 332.372 363.164 331.923 368.691C331.672 371.468 331.562 374.2 331.496 376.94C331.411 379.21 331.425 381.455 331.504 383.686C329.674 380.568 327.819 377.468 325.911 374.397C313.952 355.163 300.305 336.923 284.615 320.586C283.643 318.286 282.335 315.714 280.88 313.174C279.9 311.351 278.666 309.747 277.533 308.2C276.384 306.668 275.26 305.275 274.249 304.136C272.671 302.36 271.157 300.88 269.661 299.577C268.167 298.271 266.543 297.306 264.969 296.295C261.781 294.319 258.46 292.547 254.515 289.986C256.813 295.822 258.974 301.611 262.719 306.177C265.311 309.787 268.71 312.628 272.35 315.143C274.517 316.558 276.596 318.05 278.788 319.414C280.303 320.357 281.874 321.23 283.468 322.081C286.438 325.276 289.347 328.522 292.161 331.851C288.124 329.599 283.749 327.983 279.14 327.194C274.578 326.331 270.028 325.986 265.504 325.997C260.856 326.149 256.28 326.615 251.827 327.168C254.141 328.576 256.496 329.999 258.987 331.214C261.473 332.44 263.906 333.692 266.692 334.391C270.762 335.49 275.33 335.533 279.79 335.453C284.472 335.399 289.265 334.926 294.085 334.172C297.706 338.546 301.208 343.018 304.583 347.584C298.98 344.582 292.963 342.501 286.599 341.682C283.695 341.264 280.796 341.02 277.91 340.915C275.017 340.824 272.188 340.813 269.227 341.086C263.378 341.551 257.64 342.439 252.073 343.458C254.971 345.008 257.938 346.583 261.088 347.915C261.874 348.25 262.677 348.563 263.484 348.868C264.264 349.207 265.057 349.527 265.867 349.822C267.486 350.411 269.167 350.906 270.929 351.27C276.127 352.369 281.959 352.194 287.56 351.969C293.638 351.652 299.852 350.833 306.082 349.658C309.491 354.352 312.779 359.133 315.949 363.99C312.99 362.4 309.872 361.069 306.735 359.937C304.581 359.173 302.398 358.514 300.202 357.958C297.945 357.452 295.666 357.059 293.4 356.757C289.86 356.288 286.327 356.04 282.813 355.967C281.056 355.935 279.303 355.942 277.556 355.989C275.774 356.076 273.987 356.215 272.215 356.378C265.122 357.048 258.172 358.241 251.431 359.631C254.896 361.363 258.45 363.15 262.247 364.653C263.197 365.027 264.161 365.388 265.143 365.722C266.102 366.09 267.057 366.461 268.044 366.792C270.013 367.454 272.061 368.007 274.211 368.411C277.395 369.008 280.742 369.263 284.183 369.303C287.555 369.415 291.005 369.321 294.484 369.11C301.988 368.666 309.726 367.593 317.358 366.17C319.563 369.605 321.733 373.065 323.827 376.565C325.02 378.559 326.182 380.575 327.341 382.587C326.425 382.07 325.507 381.554 324.572 381.077C322.145 379.876 319.595 378.847 317.047 377.922C311.904 376.107 306.741 374.691 301.361 373.931C292.937 372.781 284.649 372.548 276.273 373.203C267.857 373.913 259.597 375.266 251.585 376.86C255.624 378.847 259.784 380.91 264.246 382.663C268.639 384.519 273.198 386.251 278.321 387.201C280.204 387.572 282.171 387.808 284.117 388.038C286.056 388.274 288.034 388.427 290.042 388.518C294.057 388.7 298.187 388.623 302.338 388.427C311.242 387.968 320.11 387.033 329.031 385.538C332.819 392.24 336.427 399.044 339.887 405.925C335.68 403.4 331.269 401.224 326.736 399.412C320.89 397.149 314.74 395.551 308.653 394.438C303.925 393.543 299.047 393.073 294.181 392.859C289.324 392.633 284.48 392.651 279.666 392.855C274.888 393.008 269.959 393.586 265.172 394.187C260.366 394.809 255.614 395.562 250.93 396.392C253.242 397.538 255.592 398.71 258.005 399.852C259.233 400.416 260.458 400.98 261.676 401.54C262.916 402.126 264.149 402.712 265.371 403.294C267.865 404.444 270.448 405.51 273.15 406.441C275.85 407.373 278.691 408.144 281.569 408.876C285.872 409.902 290.422 410.488 295.107 410.786C299.805 411.07 304.614 411.099 309.37 411.059C319.805 410.917 330.472 409.956 341.127 408.377C344.584 415.341 347.877 422.393 351.057 429.495C349.296 428.364 347.512 427.269 345.684 426.25C342.578 424.547 339.318 423.044 336.039 421.68C332.75 420.319 329.403 419.118 326.02 418.07C322.639 417.022 319.118 416.215 315.649 415.509C310.215 414.424 304.755 413.675 299.29 413.198C293.749 412.805 288.204 412.696 282.689 412.791C277.155 412.918 271.721 413.125 266.193 413.704C260.68 414.264 255.22 414.974 249.834 415.767C252.499 417.113 255.177 418.467 257.838 419.813C260.527 421.236 263.24 422.713 266.083 424.056C268.906 425.427 271.889 426.621 274.908 427.836C277.923 429.055 281.074 430.121 284.396 430.976C294.299 433.429 305.06 434.316 316.031 434.36C328.064 434.411 340.117 433.712 352.257 432.162C353.554 435.095 354.833 438.035 356.091 440.982C357.905 445.232 359.653 449.507 361.4 453.783C352.091 447.943 341.617 443.78 330.789 441.288C325.969 440.16 321.125 439.29 316.223 438.672C311.287 438.093 306.333 437.733 301.379 437.533C296.426 437.336 291.472 437.3 286.535 437.366C281.576 437.464 276.597 437.74 271.682 438.035C276.502 440.873 281.27 444.115 286.389 446.968C291.546 449.762 296.914 452.422 302.856 454.281C307.259 455.653 311.92 456.537 316.664 457.159C321.39 457.803 326.24 458.124 331.101 458.269C341.519 458.589 352.137 458.014 362.634 456.759C365.453 463.727 368.186 470.735 370.87 477.761C367.56 475.792 364.109 474.031 360.53 472.51C355.383 470.353 350.033 468.639 344.624 467.329C336.208 465.259 327.49 464.218 318.781 463.647C310.062 463.094 301.326 462.977 292.577 463.152C296.898 465.954 301.14 469.116 305.726 471.797C308.01 473.158 310.367 474.428 312.806 475.585C315.226 476.771 317.74 477.826 320.37 478.692C328.152 481.276 336.737 482.076 345.218 482.345C354.117 482.597 363.095 482.011 372.023 480.81C373.984 485.977 375.926 491.147 377.841 496.336C370.917 492.69 363.361 490.074 355.597 488.462C340.945 485.373 325.75 485.274 310.693 485.515C318.338 490.561 326.073 496.092 335.294 498.846C342.119 500.913 349.445 501.495 356.745 501.433C364.162 501.386 371.592 500.626 378.951 499.356C380.052 502.35 381.162 505.341 382.254 508.339L384.266 513.903C378.09 511.086 371.384 509.238 364.614 508.201C352.18 506.324 339.461 506.931 326.865 507.586C333.586 511.756 340.496 515.969 348.369 517.967C354.206 519.422 360.374 519.502 366.453 519.077Z" fill="#1EB9C1"/>
<path d="M291.115 315.859C292.281 321.826 293.731 327.946 296.299 333.324C298.05 328.259 299.269 322.954 299.778 317.46C300.181 312.781 299.898 308.073 298.524 303.433C297.552 300.344 296.197 297.299 294.364 294.544C292.521 291.797 290.427 289.152 288.334 286.532C288.755 291.543 289.074 296.484 289.535 301.309C289.856 306.261 290.28 311.14 291.115 315.859Z" fill="#1EB9C1"/>
<path d="M305.553 316.548C305.426 319.666 305.379 322.755 305.454 325.812C305.776 333.558 306.359 341.581 308.562 348.728C311.748 342.702 314.298 336.287 315.961 329.494C317.47 323.621 318.014 317.654 317.116 311.545C316.805 309.489 316.322 307.455 315.71 305.44C315.403 304.432 315.065 303.427 314.699 302.427C314.298 301.452 313.854 300.491 313.397 299.527C311.557 295.681 309.362 291.9 307.149 288.145C306.784 294.418 306.418 300.709 306.042 307.175C305.881 310.25 305.719 313.368 305.553 316.548Z" fill="#1EB9C1"/>
<path d="M320.957 325.822C320.389 329.591 319.916 333.336 319.587 337.058C319.374 339.441 319.235 341.817 319.155 344.182C319.008 346.591 318.936 348.985 318.948 351.357C318.952 356.109 319.38 360.705 320.087 365.228C324.884 358.325 328.801 350.975 331.756 342.992C333.012 339.579 334.109 336.039 334.861 332.411C335.522 328.827 335.85 325.145 335.696 321.387C335.591 318.847 335.271 316.311 334.787 313.775C334.54 312.508 334.271 311.235 333.935 309.976C333.565 308.735 333.159 307.494 332.725 306.254C330.986 301.294 328.794 296.357 326.55 291.441C325.349 299.279 323.946 306.967 322.742 314.51C322.156 318.221 321.563 321.98 320.957 325.822Z" fill="#1EB9C1"/>
<path d="M168.571 371.115L167.184 372.501L170.02 369.969C169.535 370.351 169.051 370.733 168.571 371.115ZM201.143 340.642C199.95 343.254 199.36 346.162 198.198 348.792C196.263 353.144 192.778 356.597 188.58 358.733C186.494 359.806 184.422 360.643 181.988 361.509L179.646 363.787C181.591 362.717 183.699 361.975 186.043 361.786C188.677 361.567 191.412 362.048 194.062 361.982C197.342 361.906 200.455 360.974 203.058 359.297C200.976 361.149 199.719 363.831 197.523 365.537C195.109 367.433 191.804 367.953 188.539 368.077C185.293 368.208 181.947 368 178.801 368.633C176.186 369.172 173.828 370.293 171.618 371.675L167.29 376.034L165.799 377.519C169.175 377.024 172.739 377.3 176.238 377.683C180.533 378.163 184.842 378.756 188.921 378.196C193.976 377.497 198.38 375.03 202.167 371.948C197.171 379.76 187.687 384.789 178.968 384.552C174.881 384.443 170.673 383.351 166.534 383.031C164.338 382.86 162.082 382.922 160.013 383.406L157.607 385.92L153.48 390.225C154.007 390.079 154.533 389.948 155.078 389.861C159.762 389.075 164.694 389.864 169.557 390.861C174.412 391.847 179.259 392.975 183.974 392.837C189.792 392.648 195.03 390.476 199.653 387.561C193.199 395.515 181.985 399.889 172.046 398.71C167.401 398.157 162.673 396.523 157.97 395.759C154.592 395.213 151.014 395.126 147.985 396.134L143.455 401.126L139.004 406.187C139.644 405.991 140.292 405.812 140.947 405.674C146.923 404.36 153.446 405.252 159.713 406.347C166.044 407.482 172.315 408.825 178.367 408.592C185.805 408.276 192.484 405.499 198.307 401.763C190.243 411.954 176.182 417.55 163.365 416.36C157.311 415.756 151.235 413.915 145.031 413.126C140.679 412.609 136.074 412.707 132.233 414.192L130.083 416.844C127.751 419.621 125.575 422.521 123.327 425.359C125.337 424.293 127.346 423.456 129.193 422.913C136.762 420.723 145.163 421.331 153.271 422.346C161.401 423.361 169.537 424.78 177.147 424.274C186.606 423.648 194.784 420.054 202.046 415.309C197.18 421.746 190.427 426.712 182.885 430.005C175.306 433.276 167.039 434.964 158.797 434.542C151.147 434.171 143.12 432.265 135.191 431.872C132.145 431.704 128.633 432.068 125.095 432.883C121.526 433.676 118.067 435.008 115.139 436.656C114.629 437.399 114.09 438.123 113.603 438.883L109.335 445.312C111.872 443.85 114.674 442.758 117.526 442.045C122.128 440.935 126.958 440.706 131.796 440.964C136.693 441.259 141.59 442.034 146.399 442.951C151.259 443.875 156.094 444.93 160.814 445.778C165.598 446.644 170.248 447.299 174.759 447.423C185.968 447.728 195.745 444.734 204.548 440.32C198.455 446.99 190.37 451.676 181.378 454.536C172.358 457.382 162.512 458.48 152.715 457.363C148.163 456.865 143.478 455.955 138.725 455.053C134.016 454.172 129.257 453.31 124.463 452.895C116.689 452.237 108.498 453.034 102.343 456.839C101.203 458.724 100.199 460.682 99.1345 462.61L97.5542 465.51L96.0705 468.457C98.1177 466.405 100.515 464.684 103.053 463.272C104.323 462.567 105.614 461.926 106.961 461.388C108.326 460.856 109.718 460.405 111.128 460.038C116.728 458.542 122.788 458.51 128.595 459.874C135.369 461.475 141.791 464.768 148.374 467.253C154.96 469.745 162.017 471.51 167.818 470.233C162.629 474.705 158.945 477.725 150.681 477.747C146.397 477.768 141.922 476.491 137.511 475.087C129.301 472.503 121.902 469.647 113.438 468.967C106.926 468.414 98.4162 471.008 92.6249 475.542C91.8224 477.324 90.941 479.071 90.1972 480.879L87.916 486.279C90.231 483.848 92.7718 481.698 95.9077 480.173C98.5211 478.882 101.409 477.987 104.434 477.594C107.515 477.215 110.73 477.335 113.949 478.012C118.718 479.016 123.349 481.13 128.052 482.528C132.724 483.918 137.951 484.634 141.104 482.957C139.873 484.23 138.434 485.431 136.846 486.446C135.274 487.465 133.457 488.284 131.311 488.771C126.359 489.899 120.567 489.161 114.502 488.32C108.426 487.487 102.325 486.603 96.7691 487.731C91.7796 488.721 87.9157 491.366 84.6852 494.728C82.0935 502.096 79.9099 509.598 78.1076 517.214C76.4138 524.848 75.1763 532.591 74.3825 540.406L73.4773 540.355C73.7292 532.805 74.3603 525.233 75.6393 517.753C76.9794 510.29 78.603 502.845 80.9243 495.601C80.7581 492.883 80.5106 490.19 79.7804 487.491C79.424 486.144 78.964 484.802 78.3935 483.477C77.8551 482.167 77.1984 480.869 76.4069 479.599C73.3414 474.657 68.4623 470.502 64.0008 466.231C59.536 461.955 55.2771 457.411 53.7156 451.545C53.0511 449.024 52.9289 446.4 53.155 443.77C53.394 441.15 54.0523 438.588 54.8232 436.074C54.4446 441.008 57.6093 445.491 61.4183 448.765C65.2052 452.022 69.6439 454.529 73.2237 457.946C75.6423 460.249 77.6073 462.898 79.1405 465.678C80.7243 468.49 81.8836 471.441 82.6071 474.355C83.1179 476.506 83.5151 478.696 83.6849 480.836C83.8831 482.99 83.7899 485.075 83.7188 487.192L84.178 485.857C85.5557 482.389 86.81 478.86 88.3617 475.462C88.3773 473.511 88.1718 471.426 87.8424 469.316C87.5446 467.22 87.0813 465.077 86.4816 462.981C85.2447 458.768 83.6458 454.82 81.5556 451.811C76.5524 444.548 70.5509 439.429 64.5371 433.025C61.3355 429.594 58.1991 425.781 56.8731 420.985C54.3426 411.729 57.0437 404.386 61.8046 394.951C60.9759 402.941 64.7212 409.96 69.2759 415.484C73.8419 421.007 79.3265 425.672 83.478 431.566C87.2943 436.977 89.7677 443.264 91.0771 449.722C91.68 452.924 92.0767 456.225 92.0963 459.452C92.0795 462.665 91.8827 465.918 91.2538 469.029C92.3153 466.867 93.3091 464.666 94.4335 462.534L97.8163 456.141C98.553 448.333 95.6491 439.735 91.9024 431.781C89.7982 427.313 87.3686 422.892 85.0955 418.376C82.8602 413.897 80.7641 409.309 79.2978 404.419C76.2505 394.092 76.5988 381.481 80.1813 369.441C83.732 357.372 90.4198 345.838 99.0963 337.4C92.6763 348.57 88.0911 361.429 88.609 374.419C88.8172 379.651 89.8349 384.778 91.2312 389.748C92.6628 394.776 94.4825 399.667 96.3007 404.462C98.1437 409.305 100.027 414.159 101.549 418.973C103.122 423.827 104.339 428.651 104.889 433.487C105.36 437.202 105.246 440.859 104.739 444.403C106.382 441.674 108.204 439.061 109.932 436.387L110.44 435.638C112.073 428.772 111.707 418.977 110.05 412.307C107.998 404.324 104.896 396.447 103.858 388.122C102.795 379.349 104.597 369.321 108.762 360.247C112.899 351.132 119.292 342.887 126.955 337.258C120.82 345.398 115.916 355.069 114.864 365.584C114.018 374.069 115.695 382.671 117.398 391.021C119.109 399.394 120.864 407.813 120.305 415.847C120.149 418.427 119.537 421.302 118.71 424.238C119.981 422.495 121.359 420.836 122.682 419.133C124.006 417.434 125.359 415.756 126.747 414.108L127.948 412.678C129.284 408.163 128.864 402.927 127.691 397.858C126.335 391.731 123.983 385.549 123.281 379.254C121.679 365.777 129.174 349.466 141.018 340.962C136.362 347.188 132.651 354.399 131.901 362.422C131.273 368.826 132.602 375.456 133.846 381.849C135.128 388.307 136.339 394.787 135.678 400.966C135.545 402.177 135.312 403.371 135.002 404.535C137.986 401.257 140.974 397.982 144.065 394.809C145.569 391.316 145.496 387.034 144.764 382.904C143.917 378.108 142.377 373.385 141.976 368.535C141.126 358.253 146.967 346.198 156.026 339.987C152.439 344.597 149.565 350.011 148.87 356.066C148.297 360.92 149.173 365.999 149.968 370.937C150.753 375.867 151.535 380.943 150.752 385.611C150.573 386.71 150.305 387.801 149.935 388.835C151.684 387.055 153.487 385.331 155.272 383.588L156.759 382.158C157.688 379.709 157.931 376.864 157.808 374.059C157.621 369.838 156.8 365.584 156.988 361.382C157.39 352.456 163.729 342.862 172.294 338.575C168.687 342.127 165.627 346.424 164.382 351.529C163.377 355.636 163.603 360.086 163.755 364.416C163.911 368.473 163.989 372.574 163.005 376.293L165.423 374.08L166.328 373.269C169.162 370.074 171.831 366.65 173.061 362.408C173.978 359.322 174.092 355.946 174.568 352.675C175.053 349.425 175.967 346.133 178.167 343.888C180.161 341.872 183.009 340.886 185.133 339.019C183.114 341.432 181.786 344.466 181.312 347.723C180.932 350.379 181.109 353.17 180.611 355.771C179.842 359.741 177.65 362.935 174.895 365.686L175.834 364.871L181.096 360.338L185.829 356.404C193.151 349.567 190.975 346.093 194.983 340.173C196.514 337.924 200.501 334.897 202.91 333.645C204.95 332.583 207.318 332.23 209.642 331.891C205.905 333.711 202.88 336.818 201.143 340.642Z" fill="#FF9734"/>
<path d="M1396.58 291.538C1403.14 310.989 1410.64 330.121 1419.05 348.842C1427.53 367.533 1436.86 385.82 1446.92 403.671C1467.01 439.416 1490.4 473.167 1515.86 505.193C1516.76 506.348 1519.41 504.225 1518.51 503.076C1493.18 471.205 1469.89 437.622 1449.89 402.048C1439.87 384.282 1430.59 366.081 1422.15 347.481C1413.79 328.852 1406.32 309.811 1399.79 290.451C1399.33 289.064 1396.12 290.137 1396.58 291.538Z" fill="#30BEC6"/>
<path d="M1366.21 373.973C1384.17 391.773 1406.08 387.811 1438.22 385.664C1425.84 380.232 1415.79 376.928 1404.76 375.29C1393.85 373.576 1382.04 373.512 1366.21 373.973Z" fill="#30BEC6"/>
<path d="M1379.26 279.72C1382.71 288.281 1390.43 302.312 1402.06 305.041C1403.21 299.689 1402.57 294.016 1401.24 288.5C1399.86 282.998 1397.61 277.708 1395.78 273.113C1393.73 268.04 1390.94 263.212 1387.93 258.493C1386.39 256.164 1377.12 248.272 1377.84 245.787C1376.14 251.572 1375.43 257.43 1375.63 263.168C1375.84 268.903 1377.19 274.452 1379.26 279.72Z" fill="#30BEC6"/>
<path d="M1355.09 293.708C1369.54 309.303 1388.85 323.839 1413.35 327.623C1400.87 311.875 1380.59 299.883 1355.09 293.708Z" fill="#30BEC6"/>
<path d="M1418.29 338.677C1400.37 335.126 1373.24 334.304 1352.31 336.381C1360.71 339.99 1372.01 341.951 1383.76 342.275C1395.56 342.596 1407.9 341.257 1418.29 338.677Z" fill="#30BEC6"/>
<path d="M1426.43 361.422C1406.84 354.511 1384.45 346.384 1357.73 354.05C1366.64 360.031 1378.58 363.51 1391 364.555C1403.44 365.606 1416.13 364.351 1426.43 361.422Z" fill="#30BEC6"/>
<path d="M1480.39 454.995C1478.5 444.454 1482.42 428.943 1488.93 414.764C1495.6 400.424 1504.8 387.402 1512.91 380.408C1510.6 403.12 1497.45 429.35 1480.39 454.995Z" fill="#30BEC6"/>
<path d="M1501.95 360.221C1501.48 371.362 1497.44 382.233 1490.53 393.804C1483.86 405.244 1474.6 417.204 1464.35 430.073C1467.31 416.487 1470.92 404.625 1476.88 393.222C1482.73 381.888 1490.64 371.191 1501.95 360.221Z" fill="#30BEC6"/>
<path d="M1500.11 337.565C1498.58 343.256 1496.1 348.826 1492.92 354.313C1489.79 359.771 1485.9 365.174 1481.4 370.595C1472.37 381.46 1460.99 392.332 1448.59 403.819C1460.16 376.876 1473.95 356.893 1500.11 337.565Z" fill="#30BEC6"/>
<path d="M1478.15 324.562C1478.11 335.417 1474.02 345.398 1467.55 355.665C1460.99 365.988 1451.82 376.682 1441.56 389.057C1444.26 375.917 1448.02 364.999 1453.5 354.85C1459.17 344.634 1466.89 335.038 1478.15 324.562Z" fill="#30BEC6"/>
<path d="M1437 267.365C1433.68 286.289 1427.87 308.048 1412.89 327.809C1410.72 307.778 1419.59 285.557 1437 267.365Z" fill="#30BEC6"/>
<path d="M1417.23 339.128C1426.87 323.839 1431.44 309.886 1454.53 296.794C1450.45 304.158 1445.62 311.886 1439.55 319.229C1433.51 326.557 1426.33 333.456 1417.23 339.128Z" fill="#30BEC6"/>
<path d="M1428.54 360.443C1435.84 341.065 1439.14 323.134 1462.7 307.768C1460.04 316.981 1455.98 327.049 1450.24 336.469C1444.65 345.805 1437.45 354.468 1428.54 360.443Z" fill="#30BEC6"/>
<path d="M247.87 402.093C246.96 400.791 245.548 400.216 244.719 400.802C243.888 401.391 243.958 402.916 244.873 404.215C245.789 405.51 247.2 406.089 248.025 405.506C248.85 404.921 248.781 403.392 247.87 402.093ZM224.752 428.251C224.091 427.363 223.1 426.985 222.537 427.407C221.974 427.829 222.056 428.891 222.72 429.776C223.383 430.66 224.375 431.038 224.935 430.616C225.495 430.198 225.413 429.139 224.752 428.251ZM213.355 423.652C212.282 422.229 210.281 421.924 208.885 422.971C207.484 424.012 207.254 426.042 208.332 427.451C209.418 428.873 211.394 429.146 212.785 428.113C214.172 427.072 214.427 425.075 213.355 423.652ZM218.575 463.763C217.73 462.686 216.503 462.239 215.834 462.77C215.166 463.301 215.311 464.604 216.16 465.681C217.009 466.758 218.236 467.206 218.901 466.678C219.566 466.15 219.42 464.844 218.575 463.763ZM210.95 464.855C209.529 463.061 207.21 462.533 205.77 463.676C204.329 464.819 204.323 467.191 205.756 468.974C207.189 470.76 209.508 471.288 210.936 470.156C212.364 469.021 212.37 466.649 210.95 464.855ZM289.296 418.441C283.603 427.953 277.694 437.151 271.457 445.771C262.544 442.198 253.739 440.346 245.492 440.28C252.888 442.893 260.509 446.036 267.741 450.719C265.528 453.608 263.292 456.454 260.98 459.172C258.366 458.003 255.724 457.068 253.152 456.195C246.744 454.03 240.018 451.938 234.822 453.503C242.013 455.013 249.599 458.709 256.752 463.989C251.167 470.233 245.232 475.883 238.947 480.93C231.237 487.072 223.139 492.741 214.513 497.766C204.801 490.58 194.198 486.704 183.988 483.266C189.503 486.453 194.955 489.961 200.311 493.763C203.127 495.765 205.963 497.886 208.416 500.564L208.756 500.949C202.764 504.191 196.419 507.011 189.831 509.544C179.575 513.321 161.883 518.742 146.401 523.661C130.954 528.566 117.859 533.002 116.968 533.435C126.29 496.569 138.581 457.37 162.134 429.634C163.922 434.153 166.215 438.639 168.97 442.929C167.687 436.085 167.345 429.408 167.957 423.193C170.478 420.646 173.105 418.22 175.832 415.92C177.797 425.751 181.216 435.79 185.949 445.596C183.517 434.269 181.825 422.957 180.953 411.845C182.325 410.826 183.717 409.829 185.127 408.858C186.513 415.636 188.125 422.397 190.088 429.226C190.015 420.868 190.509 412.718 191.459 404.713C210.957 392.764 233.867 385.418 257.99 381.925C257.915 388.307 258.371 394.947 259.319 401.686C260.133 394.547 261.505 387.692 263.402 381.215C267.826 380.699 272.238 380.229 276.729 379.964C276.378 384.559 276.334 389.348 276.552 394.205C279.028 389.297 281.592 384.457 284.176 379.589C292.934 379.214 301.839 379.4 310.638 379.822C304.32 391.956 297.74 404.051 290.882 415.763L275.181 412.522C279.808 413.613 284.607 415.662 289.296 418.441Z" fill="#308CB5"/>
<path d="M127.583 194.456C126.142 193.132 124.18 192.924 123.2 193.99C122.221 195.057 122.61 196.974 124.07 198.277C125.529 199.579 127.491 199.79 128.452 198.742C129.413 197.698 129.024 195.781 127.583 194.456ZM104.723 237.57C103.61 236.784 102.263 236.809 101.713 237.631C101.164 238.454 101.628 239.745 102.75 240.52C103.872 241.292 105.219 241.266 105.759 240.459C106.299 239.651 105.835 238.355 104.723 237.57ZM89.04 237.711C87.2181 236.485 84.6025 237.195 83.2002 239.294C81.7977 241.397 82.1676 244.05 84.0244 245.221C85.8812 246.393 88.4942 245.684 89.8617 243.635C91.2294 241.587 90.862 238.934 89.04 237.711ZM111.182 283.943C109.709 283.113 108.052 283.23 107.481 284.201C106.89 285.158 107.692 286.639 109.177 287.447C110.66 288.255 112.256 288.098 112.836 287.163C113.396 286.213 112.655 284.773 111.182 283.943ZM102.818 289.397C100.328 288.073 97.4003 288.782 96.2782 290.984C95.1562 293.185 96.2934 295.983 98.8199 297.235C101.346 298.49 104.276 297.78 105.361 295.648C106.447 293.52 105.307 290.718 102.818 289.397ZM183.914 202.014C178.032 215.545 172.822 228.641 167.414 240.833C161.617 240.058 155.873 239.862 150.269 240.237C147.473 240.426 144.687 240.742 141.995 241.23C139.372 241.765 136.797 242.442 134.285 243.26C144.004 243.373 154.397 244.628 164.473 247.99C162.714 252.157 160.762 256.126 159.137 260.209C155.674 259.725 152.235 259.565 148.871 259.477C144.701 259.39 140.273 259.31 136.353 259.914C132.455 260.529 128.867 261.693 126.077 263.804C135.23 262.352 145.45 263.593 155.923 267.333C153.605 271.823 151.786 276.575 149.454 280.923C148.352 283.143 147.082 285.224 145.978 287.429C144.883 289.641 143.734 291.81 142.528 293.934C141.054 296.532 139.522 299.098 137.928 301.634C136.436 304.25 134.99 306.921 133.419 309.518C131.86 312.124 130.235 314.7 128.535 317.25C126.79 319.768 125.337 322.541 123.606 325.132C116.302 323.876 109.151 323.734 102.118 324.266C95.1061 324.8 88.0856 325.95 81.579 327.442C89.4072 327.391 97.4787 327.926 105.609 328.97C109.87 329.509 114.208 330.204 118.413 331.746L119.003 331.976C117.743 333.708 116.472 335.45 115.185 337.219C113.981 339.034 112.737 340.836 111.453 342.629C108.883 346.217 106.149 349.765 103.234 353.279C100.91 355.946 98.3667 359.192 95.5183 362.758C92.61 366.28 89.4124 370.159 86.0614 374.219C82.5748 378.218 79.2865 382.592 75.9224 386.98C72.5235 391.382 69.1108 395.803 65.8189 400.068C62.4116 404.325 59.5087 408.593 56.7307 412.504C53.9561 416.441 51.4241 420.036 49.2629 423.103C44.9284 429.285 42.0688 433.426 41.773 434.026C38.0615 421.979 34.3176 409.513 30.9434 396.746C29.4973 390.404 28.1308 383.971 26.8804 377.465C26.2809 374.172 25.6857 370.901 25.096 367.659C24.4954 364.366 24.0119 361.073 23.7172 357.784C22.4577 344.612 21.2197 331.128 22.2875 317.789C22.7244 311.108 23.1813 304.388 24.2702 297.759C25.4758 291.144 26.943 284.558 28.6925 278.049C32.9919 282.44 37.8933 286.37 43.2449 289.706C38.3122 282.167 34.5865 274.024 32.7904 265.732C34.7555 260.7 36.919 255.741 39.2696 250.879C45.7926 262.235 54.3698 272.529 64.5177 281.443C60.4582 275.301 56.6905 268.941 53.2285 262.37C51.5121 259.092 49.8105 255.737 48.2991 252.375C46.833 249.027 45.449 245.629 44.1483 242.183C45.4984 239.946 46.8861 237.733 48.3065 235.539C52.5089 243.475 57.1375 251.109 62.2316 258.404C58.9206 248.027 56.2833 237.107 54.8871 226.057C65.6002 212.245 78.174 199.685 92.3982 189.544C106.404 179.102 121.903 171.29 137.495 164.966C138.347 173.243 139.98 181.612 142.385 189.839C142.226 180.546 142.945 171.188 144.525 162.382C150.261 160.312 156.015 158.453 161.81 156.855C162.045 162.808 162.614 168.83 163.638 174.983C166.149 168.011 168.816 161.193 171.448 154.243C182.822 151.416 194.242 148.978 205.873 146.667C199.831 164.045 192.551 181.55 185.512 198.2C178.692 198.269 171.642 198.317 164.796 198.597C170.845 198.564 177.469 199.827 183.914 202.014Z" fill="#17638E"/>
<path d="M90.0008 278.478C77.0919 302.063 67.9909 326.689 60.3055 351.249C58.5078 357.435 56.7155 363.606 54.9263 369.762C53.3158 375.966 51.9496 382.228 50.4594 388.443C47.2875 400.821 45.2578 413.454 42.8584 426.011C43.3998 423.595 43.9393 421.186 44.4755 418.792C50.2049 391.645 58.2441 366.007 67.5105 340.119C69.7549 334.308 72.0109 328.468 74.2753 322.61C76.6353 316.792 79.3623 311.12 81.8773 305.334C84.304 299.505 87.2684 293.935 90.1564 288.32L94.4671 279.89C95.9337 277.095 97.6252 274.432 99.1886 271.696C111.973 249.38 127.211 228.612 144.211 209.68C161.149 190.661 179.797 173.506 197.844 156.204C177.664 173.702 157.129 191.011 138.52 211.012C119.807 230.864 103.428 253.554 90.0008 278.478Z" fill="#2B89B2"/>
<path d="M1320.69 404.028C1319.05 405.364 1318.24 407.11 1318.89 407.929C1319.53 408.751 1321.4 408.347 1323.05 407.03C1324.7 405.709 1325.52 403.967 1324.86 403.129C1324.2 402.293 1322.33 402.697 1320.69 404.028ZM1350.31 426.766C1349.09 427.599 1348.45 428.778 1348.87 429.396C1349.29 430.015 1350.62 429.848 1351.84 429.022C1353.06 428.196 1353.71 427.017 1353.28 426.391C1352.86 425.761 1351.53 425.932 1350.31 426.766ZM1342.43 440.141C1340.46 441.455 1339.66 443.71 1340.64 445.177C1341.65 446.629 1343.98 446.84 1346 445.548C1347.97 444.278 1348.88 441.957 1347.85 440.468C1346.83 438.969 1344.4 438.824 1342.43 440.141ZM1393.85 434.137C1392.27 435.076 1391.41 436.532 1391.9 437.39C1392.39 438.249 1394.07 438.198 1395.64 437.274C1397.22 436.35 1398.1 434.891 1397.6 434.017C1397.09 433.148 1395.41 433.199 1393.85 434.137ZM1393.24 443.489C1390.6 445.013 1389.3 447.72 1390.34 449.532C1391.38 451.344 1394.39 451.613 1397.06 450.14C1399.73 448.662 1401.03 445.959 1399.96 444.096C1398.89 442.233 1395.89 441.964 1393.24 443.489ZM1339.72 350.877C1342.91 352.015 1346.11 353.194 1349.25 354.471C1352.34 355.796 1355.43 357.178 1358.47 358.626C1361.52 360.081 1364.57 361.578 1367.53 363.171C1370.45 364.812 1373.33 366.514 1376.17 368.279C1373.96 374.159 1372.26 379.81 1370.9 385.337C1369.52 390.871 1368.61 396.176 1368.21 401.197C1372.15 392.036 1376.67 382.156 1382.73 372.533C1386.52 375.138 1390.09 377.965 1393.61 380.847C1392 384.246 1390.66 387.636 1389.37 390.897C1386.12 399.087 1382.51 407.532 1383.81 413.849C1386.78 405.076 1392.38 395.492 1399.8 386.21C1403.64 389.903 1407.29 393.749 1410.73 397.741C1414.17 401.729 1417.14 406.026 1419.97 410.367C1423.47 415.65 1426.41 421.293 1429.19 427.002C1432.04 432.675 1434.26 438.675 1436.26 444.729C1430.22 450.002 1425.15 455.619 1420.46 461.328C1415.74 467.055 1411.49 472.826 1407.34 478.353C1413.46 472.681 1419.9 467.008 1426.61 461.398C1430.13 458.45 1433.8 455.467 1438.02 453.098L1438.63 452.774C1440.63 461.277 1442.21 469.864 1442.44 478.822C1443.29 492.507 1440.93 515.667 1437.45 534.7C1433.99 553.871 1429.28 569.212 1429.33 570.285C1412 555.891 1393.72 543.12 1377.03 531.109C1360.38 519.029 1345.04 507.829 1333.47 495.338C1339.56 493.661 1345.87 491.532 1352.13 488.938C1343.35 489.793 1335.33 489.851 1328.23 489.189C1326.09 486.631 1324.16 483.978 1322.41 481.217C1334.75 478.822 1348.11 475.326 1361.77 470.676C1346.94 472.746 1332.85 474.478 1319.34 476.072C1318.55 474.726 1317.79 473.354 1317.06 471.96C1325.55 469.926 1334.23 467.845 1343.16 465.709C1333.01 465.858 1323.2 465.909 1314.06 465.669C1305.42 446.428 1300.64 423.822 1296.63 398.083C1304.31 396.085 1312.21 393.808 1320.53 390.988C1311.79 391.814 1303.58 392.196 1295.71 392.327C1295.05 387.608 1294.36 382.754 1293.67 377.772C1299.27 376.386 1304.93 374.92 1310.85 373.119C1304.79 371.693 1298.6 370.59 1292.52 369.531C1291.22 359.783 1289.87 349.614 1288.47 339.109C1296.28 340.15 1304.41 341.332 1312.37 343.09C1320.26 344.923 1328.43 346.899 1336.14 349.632C1335.39 356.363 1334.62 362.934 1333.62 369.513C1334.74 363.658 1336.76 357.4 1339.72 350.877Z" fill="#308CB5"/>
<path d="M1376.42 449.78C1398.23 486.985 1415.23 524.378 1427.01 564.122C1426.52 562.176 1426.04 560.237 1425.55 558.308C1419.93 536.578 1413.24 515.784 1404.56 495.037C1396.69 476.247 1387.18 457.665 1376.4 439.942C1354.48 403.713 1326.81 371.195 1296.82 344.651C1326.92 375.176 1353.42 410.561 1376.42 449.78Z" fill="#17638E"/>
<path d="M1332.37 4.40625C1332.37 4.40625 1332.42 4.43504 1332.53 4.49956C1360.93 20.3467 1389.35 36.3499 1416.72 54.1874C1430.39 63.1097 1443.86 72.3972 1456.75 82.4738C1463.31 87.3699 1469.51 92.7264 1475.82 97.9408L1484.96 106.152L1489.51 110.289L1493.89 114.611L1493.9 114.623L1494.74 115.441C1497.77 118.52 1500.9 121.358 1503.58 124.473C1504.1 124.989 1504.59 125.524 1505.05 126.062C1505.54 126.557 1506.01 127.07 1506.44 127.587C1506.8 127.94 1507.14 128.311 1507.46 128.697C1512.85 134.285 1517.29 140.005 1521.46 145.067C1522.27 146.031 1523.07 146.959 1523.79 147.937C1529.7 156.004 1534.6 162.561 1537.5 167.465C1540.56 172.261 1542.27 174.946 1542.27 174.946C1541.5 174.968 1540.76 174.986 1540.01 175.004C1504.26 175.532 1479.9 173.2 1462.86 168.844C1454.51 166.629 1447.54 164.18 1442.65 161.625C1437.61 159.155 1434.13 156.83 1432.55 155.341C1430.43 153.352 1428.23 151.325 1426.03 149.214C1423.87 147.09 1421.78 144.855 1419.74 142.523C1415.38 138.001 1411.45 132.972 1407.3 127.853C1420.42 118.833 1433.46 111.741 1445.75 110.049C1439.5 107.01 1432.12 105.831 1423.94 106.85C1415.7 107.891 1407.08 110.813 1398.18 115.776C1381.24 92.5791 1365.21 66.2264 1353.37 45.1056C1341.52 23.9918 1334.24 8.12897 1333.44 6.20311C1333.27 5.81689 1333.12 5.35654 1332.92 4.97817C1332.8 4.79596 1332.67 4.63644 1332.51 4.52135C1332.48 4.47079 1332.42 4.43502 1332.37 4.40625Z" fill="#17638E"/>
<path d="M1403.85 1.21912C1405.02 9.64095 1406.92 19.0584 1409.4 27.5796C1411.91 36.0206 1414.97 43.6003 1418.7 48.3212C1413.4 36.5359 1412.89 19.6059 1413.23 2.3272C1430.71 4.90693 1447.76 9.14052 1463.7 15.5842C1463.06 26.6851 1464.3 37.0869 1467.53 45.5052C1466.96 39.0093 1468.43 31.3424 1470.81 23.6817C1471.27 22.1953 1471.77 20.6739 1472.31 19.1796C1491.97 27.8761 1509.56 39.8506 1523.34 53.172C1526.76 56.5556 1529.97 59.9662 1532.94 63.3802C1535.85 66.9599 1538.5 70.5519 1540.9 74.1089C1545.77 81.08 1549.19 88.6788 1551.63 95.5723C1552.83 98.8469 1553.78 104.374 1554.39 110.828C1555.01 117.268 1555.27 124.694 1554.63 132.477C1553.76 147.769 1549.45 163.631 1543.46 173.171C1543.06 173.778 1542.67 174.357 1542.3 174.936C1528.9 152.769 1512.33 132.663 1493.9 114.623L1493.89 114.611L1489.51 110.289L1484.96 106.152L1475.82 97.9411C1469.51 92.7267 1463.31 87.3702 1456.75 82.4741C1443.86 72.3975 1430.39 63.11 1416.72 54.1877C1389.35 36.3502 1360.93 20.347 1332.53 4.49983C1332.42 4.43531 1332.37 4.40651 1332.37 4.40651C1356.26 -0.0424027 1380.34 -1.1566 1403.85 1.21912Z" fill="#308CB5"/>
<path d="M1521.77 148.594C1513.78 143.242 1504.13 139.923 1493.1 139.574C1482.33 138.988 1470.14 141.371 1458.11 146.025C1457.99 146.068 1457.92 146.014 1457.96 145.898C1457.99 145.785 1458.11 145.658 1458.22 145.611C1470.32 140.811 1482.66 138.25 1493.59 138.712C1499.08 138.933 1504.6 139.585 1509.4 141.164C1514.25 142.696 1518.81 144.824 1522.93 147.481C1523.15 147.626 1523.08 147.993 1522.75 148.306C1522.44 148.612 1522 148.74 1521.78 148.594H1521.77Z" fill="#308CB5"/>
<path d="M1506.49 129.153C1490.14 123.15 1469.52 124.682 1448.93 132.966C1448.79 133.021 1448.7 132.948 1448.74 132.803C1448.78 132.657 1448.92 132.497 1449.05 132.443C1469.78 123.877 1490.68 122.043 1507.45 127.898C1507.72 127.988 1507.72 128.345 1507.45 128.691C1507.19 129.036 1506.77 129.244 1506.5 129.157L1506.49 129.153Z" fill="#308CB5"/>
<path d="M1461.05 87.0252C1441.53 79.2992 1417.12 81.137 1392.57 91.7029C1392.49 91.7396 1392.43 91.6858 1392.44 91.5842C1392.46 91.4827 1392.54 91.37 1392.63 91.3333C1417.29 80.4166 1441.98 78.169 1461.91 85.6679C1462.16 85.7584 1462.18 86.1366 1461.94 86.5113C1461.71 86.8869 1461.31 87.1174 1461.05 87.0269V87.0252Z" fill="#308CB5"/>
<path d="M1441.88 72.601C1428.92 65.8748 1411.36 66.9313 1393.61 75.4262C1393.49 75.4843 1393.41 75.4144 1393.42 75.2713C1393.43 75.1291 1393.55 74.9666 1393.67 74.9068C1411.54 66.0912 1429.38 64.6769 1442.75 71.2356C1442.99 71.3501 1442.99 71.7491 1442.75 72.1271C1442.51 72.5042 1442.12 72.7181 1441.89 72.6036L1441.88 72.601Z" fill="#308CB5"/>
<path d="M1396.44 42.2373C1390.93 40.2701 1385.19 38.7009 1379.06 38.1865C1372.97 37.6721 1366.3 38.3867 1359.3 41.565C1359.21 41.609 1359.13 41.5487 1359.14 41.4307C1359.16 41.3143 1359.24 41.1849 1359.34 41.1385C1366.42 37.7698 1373.22 36.8688 1379.44 37.2204C1385.69 37.572 1391.55 38.985 1397.18 40.7959C1397.44 40.8757 1397.48 41.2631 1397.27 41.6619C1397.08 42.0599 1396.71 42.3187 1396.46 42.2397L1396.44 42.2373Z" fill="#308CB5"/>
<path d="M1397.34 42.7794C1388.98 33.1501 1382.38 21.0046 1377.9 6.76094C1377.88 6.69252 1377.92 6.58339 1377.98 6.51905C1378.06 6.4547 1378.13 6.45794 1378.15 6.52473C1382.91 20.4793 1389.76 32.2581 1398.32 41.4957C1398.5 41.6904 1398.43 42.1376 1398.16 42.4935C1397.9 42.8503 1397.53 42.9814 1397.35 42.7867L1397.34 42.7794Z" fill="#17638E"/>
<path d="M1438.98 69.5293C1432.66 55.92 1430.75 37.3741 1433.62 16.7724C1433.64 16.548 1433.82 16.3153 1434.01 16.2523C1434.2 16.1893 1434.33 16.3178 1434.3 16.5396C1431.63 36.9145 1433.7 55.153 1440.11 68.438C1440.23 68.6942 1440.08 69.1471 1439.76 69.4495C1439.45 69.7519 1439.1 69.7906 1438.98 69.5344V69.5293Z" fill="#17638E"/>
<path d="M1460.55 86.1747C1457.81 76.9605 1456.09 66.5429 1455.18 55.5357C1454.33 44.38 1454.38 32.5091 1455.47 20.0639C1455.48 19.9555 1455.56 19.8369 1455.66 19.7993C1455.76 19.7626 1455.83 19.8189 1455.82 19.9256C1455.35 26.1222 1455.14 32.1498 1455.18 37.9734C1455.21 43.8491 1455.46 49.5866 1455.97 55.0501C1457.03 65.9097 1458.87 76.1813 1461.77 85.2069C1461.86 85.4843 1461.66 85.9272 1461.32 86.196C1460.99 86.4649 1460.65 86.458 1460.55 86.1815V86.1747Z" fill="#17638E"/>
<path d="M1487.27 108.99C1486.93 101.463 1488.85 92.4617 1492.74 83.3389C1492.78 83.23 1492.9 83.1436 1492.98 83.1436C1493.07 83.1445 1493.11 83.2291 1493.06 83.3345C1489.49 92.3771 1487.92 101.109 1488.57 108.253C1488.6 108.561 1488.34 108.979 1487.97 109.188C1487.61 109.399 1487.29 109.319 1487.27 109.01V108.99Z" fill="#308CB5"/>
<path d="M1478.58 102.823C1474.39 100.749 1469.69 99.3928 1464.99 98.2103C1460.27 97.0476 1455.46 96.1668 1450.41 95.7908C1445.38 95.3811 1440.32 95.2428 1435.07 95.6802C1429.76 96.1884 1424.34 97.1375 1418.75 99.0902C1418.68 99.1153 1418.64 99.0703 1418.65 98.9899C1418.67 98.9104 1418.74 98.8266 1418.81 98.8006C1424.45 96.7494 1429.93 95.7052 1435.3 95.1053C1440.61 94.5677 1445.74 94.6221 1450.83 94.9445C1455.95 95.2358 1460.84 96.0224 1465.63 97.1125C1470.41 98.2241 1475.22 99.4913 1479.52 101.514C1479.77 101.624 1479.77 102.007 1479.51 102.369C1479.25 102.731 1478.84 102.937 1478.6 102.828L1478.59 102.827L1478.58 102.823Z" fill="#308CB5"/>
<path d="M1377.79 30.69C1374.39 28.9285 1370.45 28.1641 1366.27 28.1513C1362.08 28.1585 1357.65 28.9237 1353.04 30.6275C1352.96 30.6564 1352.91 30.6002 1352.93 30.5007C1352.94 30.4021 1353.02 30.2986 1353.09 30.2689C1357.73 28.4946 1362.22 27.6612 1366.46 27.593C1370.7 27.5457 1374.71 28.2531 1378.19 29.981C1378.3 30.0395 1378.31 30.2464 1378.19 30.443C1378.09 30.6387 1377.91 30.7502 1377.79 30.6916V30.69Z" fill="#308CB5"/>
<path d="M1540.62 175.943C1517.41 136.625 1484.12 104.222 1447.83 77.0365C1411.43 49.7266 1371.93 27.0591 1332.53 4.7727C1332.46 4.73695 1332.46 4.61925 1332.52 4.5094C1332.58 4.40042 1332.69 4.34027 1332.75 4.37514C1372.44 26.1673 1412.23 48.3395 1449.12 75.2955C1485.88 102.131 1519.88 134.346 1543.95 173.946C1544.29 174.473 1543.82 175.346 1542.9 175.896C1541.98 176.445 1540.96 176.467 1540.63 175.95L1540.62 175.943Z" fill="#308CB5"/>
<path d="M1537.01 319.737C1529.85 320.698 1520.82 321.906 1512.01 323.085C1503.1 324.434 1494.57 325.636 1488 326.443C1482.5 327.123 1477.11 327.717 1471.98 327.898C1466.82 328.127 1461.81 328.102 1457.25 327.25C1452.71 326.349 1448.36 324.988 1444.78 322.499C1441.21 319.978 1438.21 316.685 1436.13 312.231C1432.18 303.316 1431.48 290.473 1424.66 284.105C1420.12 280.222 1414.04 279.735 1407.65 280.47C1401.19 281.322 1394.64 282.839 1388.69 282.951C1378.24 282.933 1369.62 277.057 1363.95 266.298C1359.81 258.654 1357.1 247.908 1350.72 242.92C1347.73 240.534 1344.24 239.362 1340.63 238.718C1337 238.121 1333.29 237.827 1329.79 236.771C1323.65 234.886 1318.12 231.298 1312.79 226.223C1307.43 221.428 1302.19 215.656 1296.81 209.85C1341.49 213.51 1385.22 226.187 1425.71 245.275C1466.24 264.388 1503.71 289.803 1537.01 319.737Z" fill="#FE8629"/>
<path d="M1537.01 319.739C1537.1 312.619 1536.98 303.333 1536.3 294.081C1535.53 284.952 1534.42 275.611 1532.89 268.625C1531.6 262.821 1530.07 256.997 1528.06 251.414C1526.02 245.873 1523.37 240.714 1520.08 235.998C1516.83 231.235 1512.59 227.331 1507.83 224.329C1503.1 221.298 1497.62 219.497 1491.73 219.264C1480.19 218.631 1467.43 224.453 1457.2 221.524C1450.37 219.843 1445.66 214.677 1441.05 208.861C1436.39 203.171 1432.1 196.316 1426.47 191.662C1416.62 183.239 1402.6 180.961 1389.76 185.739C1380.28 189.385 1371.56 196.127 1362.53 197.462C1358.27 198.055 1354.31 197.128 1350.3 196.098C1346.27 195.115 1342.27 193.816 1338.16 193.299C1330.98 192.372 1323.63 194.453 1316.69 197.437C1309.69 200.69 1303.02 205.336 1296.81 209.852C1341.49 213.512 1385.22 226.189 1425.71 245.277C1466.24 264.39 1503.71 289.805 1537.01 319.739Z" fill="#FF6C8C"/>
<path d="M1510.96 300.029C1493.93 292.668 1472.33 294.331 1452.26 305.039C1452.17 305.09 1452.08 305.047 1452.08 304.941C1452.08 304.839 1452.15 304.712 1452.25 304.664C1472.37 293.676 1494.23 291.649 1511.65 298.88C1511.89 298.977 1511.93 299.312 1511.74 299.633C1511.55 299.949 1511.2 300.127 1510.96 300.033V300.029Z" fill="#EA6B15"/>
<path d="M1491.96 284.991C1475.72 281.76 1457.29 285.176 1440.2 294.375C1440.09 294.437 1439.99 294.382 1439.99 294.251C1439.99 294.12 1440.07 293.967 1440.18 293.905C1457.33 284.445 1475.94 280.738 1492.47 283.772C1492.74 283.82 1492.84 284.128 1492.7 284.467C1492.56 284.801 1492.23 285.039 1491.96 284.991Z" fill="#EA6B15"/>
<path d="M1440.08 253.294C1420.26 248.72 1397.84 253.188 1378.32 265.858C1378.25 265.901 1378.19 265.869 1378.19 265.781C1378.17 265.694 1378.22 265.588 1378.29 265.541C1397.82 252.558 1420.4 247.697 1440.55 252.035C1440.81 252.082 1440.91 252.405 1440.79 252.755C1440.66 253.101 1440.34 253.344 1440.09 253.294H1440.08Z" fill="#EA6B15"/>
<path d="M1418.85 243.09C1405.22 238.818 1389.03 242.166 1375.14 252.146C1375.04 252.215 1374.94 252.171 1374.93 252.048C1374.9 251.928 1374.96 251.775 1375.05 251.706C1388.97 241.434 1405.35 237.737 1419.33 241.824C1419.58 241.892 1419.67 242.234 1419.55 242.583C1419.42 242.933 1419.11 243.163 1418.86 243.093L1418.85 243.09Z" fill="#EA6B15"/>
<path d="M1368.63 224.129C1362.96 223.397 1357.14 223.346 1351.36 224.18C1345.63 224.936 1339.74 227.16 1334.52 231.406C1334.45 231.464 1334.37 231.431 1334.35 231.333C1334.32 231.238 1334.35 231.115 1334.42 231.053C1339.65 226.64 1345.6 224.223 1351.4 223.314C1357.25 222.324 1363.16 222.214 1368.89 222.801C1369.15 222.822 1369.3 223.139 1369.23 223.503C1369.16 223.871 1368.89 224.15 1368.64 224.129H1368.63Z" fill="#EA6B15"/>
<path d="M1369.61 224.423C1364.36 221.058 1359.21 217.452 1354.26 213.158C1349.33 208.752 1344.47 204.182 1339.8 198.902C1339.76 198.851 1339.76 198.753 1339.8 198.684C1339.84 198.615 1339.92 198.6 1339.96 198.651C1344.71 203.775 1349.63 208.199 1354.63 212.434C1359.65 216.553 1364.85 219.999 1370.14 223.187C1370.37 223.317 1370.43 223.699 1370.29 224.041C1370.14 224.383 1369.85 224.558 1369.62 224.427L1369.61 224.423Z" fill="#EE3A65"/>
<path d="M1396.81 233.7C1392.55 229.886 1389.01 224.934 1385.91 219.298C1382.82 213.601 1379.94 207.789 1376.98 201.72C1376.92 201.585 1376.96 201.389 1377.08 201.277C1377.19 201.164 1377.34 201.182 1377.41 201.313C1380.44 207.291 1383.39 213.04 1386.53 218.611C1389.68 224.127 1393.26 228.9 1397.49 232.554C1397.69 232.728 1397.7 233.128 1397.51 233.445C1397.32 233.765 1397.01 233.881 1396.81 233.707V233.7Z" fill="#EE3A65"/>
<path d="M1415.4 240.818C1406.18 229.987 1399.6 214.609 1396.34 196.839C1396.3 196.646 1396.4 196.424 1396.57 196.344C1396.72 196.264 1396.89 196.351 1396.92 196.544C1400.29 214.093 1406.96 229.201 1416.18 239.752C1416.36 239.956 1416.33 240.363 1416.11 240.658C1415.9 240.953 1415.58 241.026 1415.4 240.822V240.818Z" fill="#EE3A65"/>
<path d="M1439.43 252.619C1434.63 245.039 1430.61 236.217 1426.98 226.967C1425.2 222.288 1423.58 217.376 1422.12 212.267C1420.61 207.271 1419.26 202.068 1418.1 196.691C1418.08 196.596 1418.12 196.487 1418.21 196.439C1418.29 196.396 1418.38 196.436 1418.39 196.527C1419.61 201.864 1421.02 207.003 1422.58 211.954C1424.09 217.004 1425.76 221.851 1427.6 226.461C1431.33 235.565 1435.43 244.257 1440.31 251.655C1440.46 251.884 1440.38 252.284 1440.14 252.553C1439.89 252.819 1439.58 252.852 1439.43 252.623V252.619Z" fill="#EE3A65"/>
<path d="M1484.73 261.219C1484.89 265.509 1485.34 269.634 1486.11 273.528C1486.73 276.592 1487.47 279.652 1488.53 282.435C1488.84 282.559 1489.14 282.704 1489.42 282.864L1489.93 283.145L1490.2 283.283C1488.76 280.194 1487.82 276.595 1487.03 272.975C1486.22 269.165 1485.72 265.116 1485.52 260.895C1485.15 252.461 1485.85 243.262 1488.53 234.156C1488.57 233.995 1488.5 233.853 1488.37 233.839C1488.24 233.824 1488.09 233.944 1488.04 234.104C1485.24 243.328 1484.45 252.632 1484.73 261.219Z" fill="#EE3A65"/>
<path d="M1476.99 274.379C1476.17 271.154 1475.87 267.629 1475.72 264.03C1475.57 260.424 1475.53 256.822 1475.68 253.089C1475.82 249.371 1476.09 245.583 1476.54 241.736C1477 237.894 1477.61 233.979 1478.72 230.05C1478.76 229.922 1478.88 229.824 1478.98 229.831C1479.09 229.842 1479.15 229.954 1479.11 230.086V230.093C1478.07 233.957 1477.51 237.833 1477.12 241.634C1476.72 245.437 1476.51 249.185 1476.42 252.856C1476.33 256.545 1476.43 260.075 1476.61 263.641C1476.82 267.167 1477.18 270.609 1478.02 273.661V273.676C1478.1 273.956 1477.94 274.346 1477.65 274.542C1477.37 274.738 1477.07 274.669 1476.99 274.385V274.379Z" fill="#EE3A65"/>
<path d="M1469.42 269.567C1467.24 263.053 1466.82 255.052 1468.19 246.76C1468.21 246.662 1468.28 246.574 1468.37 246.567C1468.45 246.556 1468.5 246.625 1468.48 246.719C1467.37 254.91 1468.07 262.642 1470.44 268.784C1470.54 269.05 1470.4 269.443 1470.12 269.661C1469.85 269.883 1469.54 269.847 1469.43 269.585L1469.42 269.567Z" fill="#EE3A65"/>
<path d="M1459.99 265.138C1455.65 263.777 1451.02 263.057 1446.4 262.551C1441.76 262.067 1437.15 261.729 1432.38 261.984C1427.65 262.177 1422.91 262.634 1418.19 263.552C1413.41 264.607 1408.63 266.084 1403.96 268.428C1403.91 268.456 1403.86 268.42 1403.85 268.351C1403.85 268.282 1403.9 268.202 1403.95 268.173C1408.65 265.739 1413.45 264.181 1418.26 263.031C1423.01 262.027 1427.78 261.485 1432.56 261.212C1437.37 260.878 1442.04 261.121 1446.73 261.536C1451.41 261.973 1456.1 262.605 1460.53 263.901C1460.78 263.97 1460.86 264.305 1460.72 264.647C1460.57 264.989 1460.25 265.207 1460 265.142L1459.99 265.138Z" fill="#EA6B15"/>
<path d="M1347.83 218.294C1344.13 217.592 1340.21 217.963 1336.4 218.927C1332.57 219.939 1328.82 221.55 1325.29 224.221C1325.22 224.269 1325.16 224.236 1325.14 224.156C1325.12 224.072 1325.14 223.97 1325.21 223.926C1328.76 221.19 1332.53 219.498 1336.39 218.429C1340.24 217.406 1344.2 216.973 1347.97 217.628C1348.09 217.654 1348.16 217.821 1348.13 218.006C1348.09 218.188 1347.96 218.32 1347.84 218.294H1347.83Z" fill="#EA6B15"/>
<path d="M1535.93 320.944C1502.93 290.966 1465.75 265.441 1425.46 246.161C1385.22 226.906 1341.7 213.985 1297.11 210.077C1297.04 210.066 1296.98 209.975 1296.99 209.874C1297 209.768 1297.07 209.691 1297.14 209.698C1341.82 213.137 1385.62 225.621 1426.24 244.523C1466.9 263.459 1504.55 288.714 1538.09 318.539C1538.56 318.935 1538.45 319.798 1537.85 320.464C1537.26 321.125 1536.4 321.344 1535.94 320.948L1535.93 320.944Z" fill="#EA6B15"/>
<path d="M255.001 243.767C252.417 245.703 249.75 247.737 248.256 250.6C246.762 253.464 246.814 257.408 249.258 259.518C250.796 260.85 252.987 261.214 255.003 260.948C257.019 260.683 258.913 259.857 260.776 259.045C264.14 257.572 267.842 255.752 269.059 252.288C270.225 248.97 268.423 245.026 265.35 243.316C262.277 241.609 258.296 241.988 255.301 243.829" fill="#2B89B2"/>
<path d="M189.532 260.776C189.468 263.046 189.714 265.462 191.072 267.285C192.931 269.781 196.438 270.512 199.515 270.05C206.684 268.973 212.105 262.577 214.336 255.674C215.448 252.236 215.931 248.496 215.016 244.999C214.101 241.502 211.619 238.297 208.194 237.14C196.945 233.337 189.76 252.662 189.532 260.776Z" fill="#2B89B2"/>
<path d="M237.401 213.966C236.03 218.75 235.971 224.565 239.593 227.981C242.444 230.67 246.948 231.06 250.62 229.688C254.293 228.32 257.229 225.456 259.566 222.309C262.352 218.558 264.483 214.162 264.739 209.497C264.995 204.833 263.123 199.895 259.27 197.254C248.605 189.94 239.782 205.652 237.401 213.966Z" fill="#EAA7AC"/>
<path d="M1261.21 162.738C1259.77 165.776 1260.54 169.539 1262.48 172.297C1264.42 175.051 1267.36 176.943 1270.38 178.435C1272.75 179.607 1275.29 180.589 1277.94 180.615C1280.58 180.64 1283.36 179.552 1284.8 177.332C1286.36 174.917 1286.06 171.722 1285.09 169.011C1283.61 164.838 1279.88 159.289 1275.32 158.008C1270.53 156.655 1263.54 157.877 1261.21 162.738Z" fill="#FF6C8C"/>
<path d="M1229.78 183.604C1229.22 183.604 1228.64 183.521 1228.08 183.43C1225.98 183.07 1223.81 182.571 1222.11 181.279C1220.4 179.988 1219.28 177.706 1219.94 175.669C1220.75 173.118 1224.62 171.379 1227.48 171.379C1227.87 171.379 1228.24 171.412 1228.58 171.477C1232.14 172.176 1234.08 176.986 1233.45 180.21C1233.21 181.421 1232.62 182.655 1231.52 183.23C1230.98 183.51 1230.39 183.604 1229.78 183.604Z" fill="#FCFAF5"/>
<path d="M1294.27 292.263C1293.78 294.625 1294.6 297.128 1296.06 299.049C1297.52 300.97 1299.56 302.374 1301.69 303.495C1303.36 304.376 1305.13 305.11 1307.01 305.329C1308.88 305.544 1310.87 305.201 1312.39 304.092C1314.29 302.699 1315.24 300.221 1315.08 297.866C1314.94 295.512 1313.8 293.292 1312.24 291.528C1308.02 286.761 1296.11 283.225 1294.27 292.263Z" fill="#0CB4AF"/>
<path d="M1260.37 203.121C1260.12 205.643 1261.49 208.157 1263.54 209.649C1265.58 211.141 1268.19 211.705 1270.72 211.643C1272.63 211.596 1274.75 211.061 1275.71 209.413C1276.63 207.837 1276.14 205.803 1275.29 204.191C1272.5 198.944 1261.36 193.399 1260.37 203.121Z" fill="#EAA7AC"/>
</g>
</g>
<defs>
<clipPath id="clip0_1226_950">
<rect width="1555" height="383" fill="white"/>
</clipPath>
</defs>
</svg>
